<svg width="17" height="21" viewBox="0 0 17 21" fill="none" xmlns="http://www.w3.org/2000/svg">
<path d="M8.50008 20.4167C9.64591 20.4167 10.5834 19.4792 10.5834 18.3333H6.41675C6.41675 19.4792 7.35425 20.4167 8.50008 20.4167ZM14.7501 14.1667V8.95833C14.7501 5.76042 13.0522 3.08333 10.0626 2.375V1.66667C10.0626 0.802085 9.36466 0.104168 8.50008 0.104168C7.6355 0.104168 6.93758 0.802085 6.93758 1.66667V2.375C3.95841 3.08333 2.25008 5.75 2.25008 8.95833V14.1667L0.166748 16.25V17.2917H16.8334V16.25L14.7501 14.1667ZM12.6667 15.2083H4.33341V8.95833C4.33341 6.375 5.90633 4.27083 8.50008 4.27083C11.0938 4.27083 12.6667 6.375 12.6667 8.95833V15.2083Z" fill="#FFFFFC"/>
</svg>
