<svg width="389" height="58" viewBox="0 0 389 58" fill="none" xmlns="http://www.w3.org/2000/svg">
<circle cx="69" cy="8" r="6" fill="#CBD068"/>
<path d="M87.71 1.4541V3.49805H86.6572V1.4541H87.71ZM87.5801 12.6172V14.4492H86.5342V12.6172H87.5801ZM88.6123 10.4092C88.6123 10.1449 88.5576 9.91471 88.4482 9.71875C88.3434 9.51823 88.1702 9.33822 87.9287 9.17871C87.6872 9.01465 87.3636 8.86198 86.958 8.7207C86.3747 8.51562 85.8643 8.28548 85.4268 8.03027C84.9938 7.77051 84.6566 7.4515 84.415 7.07324C84.1781 6.69043 84.0596 6.21419 84.0596 5.64453C84.0596 5.08398 84.1872 4.59863 84.4424 4.18848C84.7021 3.77832 85.0622 3.46159 85.5225 3.23828C85.9827 3.01497 86.5205 2.90332 87.1357 2.90332C87.6097 2.90332 88.0358 2.97396 88.4141 3.11523C88.7969 3.25651 89.1227 3.46387 89.3916 3.7373C89.6605 4.01074 89.8656 4.34798 90.0068 4.74902C90.1527 5.14551 90.2256 5.60124 90.2256 6.11621H88.585C88.585 5.82454 88.5508 5.56478 88.4824 5.33691C88.4186 5.10449 88.3229 4.90853 88.1953 4.74902C88.0677 4.58496 87.9128 4.45964 87.7305 4.37305C87.5527 4.28646 87.3499 4.24316 87.1221 4.24316C86.7985 4.24316 86.5319 4.30469 86.3223 4.42773C86.1126 4.54622 85.9577 4.71029 85.8574 4.91992C85.7617 5.12956 85.7139 5.36882 85.7139 5.6377C85.7139 5.89746 85.764 6.12533 85.8643 6.32129C85.9645 6.51725 86.1354 6.69499 86.377 6.85449C86.623 7.00944 86.9603 7.16667 87.3887 7.32617C87.9766 7.53581 88.4847 7.77051 88.9131 8.03027C89.346 8.28548 89.6787 8.60221 89.9111 8.98047C90.1481 9.35417 90.2666 9.82585 90.2666 10.3955C90.2666 10.9834 90.1299 11.4824 89.8564 11.8926C89.5876 12.3027 89.2093 12.6149 88.7217 12.8291C88.2386 13.0387 87.6758 13.1436 87.0332 13.1436C86.6276 13.1436 86.2243 13.0911 85.8232 12.9863C85.4268 12.877 85.0667 12.6992 84.7432 12.4531C84.4196 12.207 84.1621 11.8812 83.9707 11.4756C83.7793 11.0654 83.6836 10.5641 83.6836 9.97168H85.3379C85.3379 10.3271 85.3857 10.6234 85.4814 10.8604C85.5771 11.0973 85.707 11.2842 85.8711 11.4209C86.0352 11.5576 86.2174 11.6556 86.418 11.7148C86.623 11.7741 86.8281 11.8037 87.0332 11.8037C87.375 11.8037 87.6621 11.7467 87.8945 11.6328C88.1315 11.5143 88.3092 11.3503 88.4277 11.1406C88.5508 10.9264 88.6123 10.6826 88.6123 10.4092ZM98.1963 7.18945V8.81641C98.1963 9.5957 98.1188 10.2611 97.9639 10.8125C97.8135 11.3594 97.5947 11.8037 97.3076 12.1455C97.0205 12.4873 96.6764 12.738 96.2754 12.8975C95.8789 13.057 95.4346 13.1367 94.9424 13.1367C94.5505 13.1367 94.1859 13.0866 93.8486 12.9863C93.516 12.8861 93.2152 12.7288 92.9463 12.5146C92.6774 12.3005 92.4473 12.0247 92.2559 11.6875C92.069 11.3457 91.9232 10.9378 91.8184 10.4639C91.7181 9.98991 91.668 9.44076 91.668 8.81641V7.18945C91.668 6.4056 91.7454 5.74479 91.9004 5.20703C92.0553 4.66471 92.2764 4.22493 92.5635 3.8877C92.8506 3.5459 93.1924 3.29753 93.5889 3.14258C93.9899 2.98763 94.4365 2.91016 94.9287 2.91016C95.3252 2.91016 95.6898 2.96029 96.0225 3.06055C96.3597 3.15625 96.6605 3.30892 96.9248 3.51855C97.1937 3.72819 97.4215 4.00163 97.6084 4.33887C97.7998 4.67155 97.9456 5.07487 98.0459 5.54883C98.1462 6.01823 98.1963 6.5651 98.1963 7.18945ZM96.5488 9.04883V6.94336C96.5488 6.54688 96.526 6.19824 96.4805 5.89746C96.4349 5.59212 96.3665 5.33464 96.2754 5.125C96.1888 4.91081 96.0794 4.73763 95.9473 4.60547C95.8151 4.46875 95.6647 4.37077 95.4961 4.31152C95.3275 4.24772 95.1383 4.21582 94.9287 4.21582C94.6735 4.21582 94.4456 4.26595 94.2451 4.36621C94.0446 4.46191 93.876 4.61686 93.7393 4.83105C93.6025 5.04525 93.4977 5.3278 93.4248 5.67871C93.3564 6.02507 93.3223 6.44661 93.3223 6.94336V9.04883C93.3223 9.44987 93.3451 9.80306 93.3906 10.1084C93.4362 10.4137 93.5046 10.6758 93.5957 10.8945C93.6868 11.1087 93.7962 11.2865 93.9238 11.4277C94.056 11.5645 94.2064 11.6647 94.375 11.7285C94.5482 11.7923 94.7373 11.8242 94.9424 11.8242C95.2021 11.8242 95.4323 11.7741 95.6328 11.6738C95.8333 11.5736 96.002 11.4141 96.1387 11.1953C96.2754 10.972 96.3779 10.6826 96.4463 10.3271C96.5146 9.97168 96.5488 9.54557 96.5488 9.04883ZM106.563 8.0918V9.4043H102.947V8.0918H106.563ZM115.354 1.4541V3.49805H114.302V1.4541H115.354ZM115.225 12.6172V14.4492H114.179V12.6172H115.225ZM116.257 10.4092C116.257 10.1449 116.202 9.91471 116.093 9.71875C115.988 9.51823 115.815 9.33822 115.573 9.17871C115.332 9.01465 115.008 8.86198 114.603 8.7207C114.019 8.51562 113.509 8.28548 113.071 8.03027C112.638 7.77051 112.301 7.4515 112.06 7.07324C111.823 6.69043 111.704 6.21419 111.704 5.64453C111.704 5.08398 111.832 4.59863 112.087 4.18848C112.347 3.77832 112.707 3.46159 113.167 3.23828C113.627 3.01497 114.165 2.90332 114.78 2.90332C115.254 2.90332 115.68 2.97396 116.059 3.11523C116.441 3.25651 116.767 3.46387 117.036 3.7373C117.305 4.01074 117.51 4.34798 117.651 4.74902C117.797 5.14551 117.87 5.60124 117.87 6.11621H116.229C116.229 5.82454 116.195 5.56478 116.127 5.33691C116.063 5.10449 115.967 4.90853 115.84 4.74902C115.712 4.58496 115.557 4.45964 115.375 4.37305C115.197 4.28646 114.994 4.24316 114.767 4.24316C114.443 4.24316 114.176 4.30469 113.967 4.42773C113.757 4.54622 113.602 4.71029 113.502 4.91992C113.406 5.12956 113.358 5.36882 113.358 5.6377C113.358 5.89746 113.409 6.12533 113.509 6.32129C113.609 6.51725 113.78 6.69499 114.021 6.85449C114.268 7.00944 114.605 7.16667 115.033 7.32617C115.621 7.53581 116.129 7.77051 116.558 8.03027C116.991 8.28548 117.323 8.60221 117.556 8.98047C117.793 9.35417 117.911 9.82585 117.911 10.3955C117.911 10.9834 117.774 11.4824 117.501 11.8926C117.232 12.3027 116.854 12.6149 116.366 12.8291C115.883 13.0387 115.32 13.1436 114.678 13.1436C114.272 13.1436 113.869 13.0911 113.468 12.9863C113.071 12.877 112.711 12.6992 112.388 12.4531C112.064 12.207 111.807 11.8812 111.615 11.4756C111.424 11.0654 111.328 10.5641 111.328 9.97168H112.982C112.982 10.3271 113.03 10.6234 113.126 10.8604C113.222 11.0973 113.352 11.2842 113.516 11.4209C113.68 11.5576 113.862 11.6556 114.062 11.7148C114.268 11.7741 114.473 11.8037 114.678 11.8037C115.02 11.8037 115.307 11.7467 115.539 11.6328C115.776 11.5143 115.954 11.3503 116.072 11.1406C116.195 10.9264 116.257 10.6826 116.257 10.4092ZM123.852 3.0127V13H122.204V4.96777L119.764 5.79492V4.43457L123.653 3.0127H123.852ZM129.067 2.5V13H127.413V2.5H129.067ZM133.661 5.60352L130.441 9.17188L128.678 10.9766L128.247 9.58203L129.58 7.93457L131.672 5.60352H133.661ZM132.027 13L129.628 9.52734L130.667 8.37207L133.935 13H132.027Z" fill="#FFFFFC"/>
<circle cx="156" cy="8" r="6" fill="#EB292D"/>
<path d="M174.71 1.4541V3.49805H173.657V1.4541H174.71ZM174.58 12.6172V14.4492H173.534V12.6172H174.58ZM175.612 10.4092C175.612 10.1449 175.558 9.91471 175.448 9.71875C175.343 9.51823 175.17 9.33822 174.929 9.17871C174.687 9.01465 174.364 8.86198 173.958 8.7207C173.375 8.51562 172.864 8.28548 172.427 8.03027C171.994 7.77051 171.657 7.4515 171.415 7.07324C171.178 6.69043 171.06 6.21419 171.06 5.64453C171.06 5.08398 171.187 4.59863 171.442 4.18848C171.702 3.77832 172.062 3.46159 172.522 3.23828C172.983 3.01497 173.521 2.90332 174.136 2.90332C174.61 2.90332 175.036 2.97396 175.414 3.11523C175.797 3.25651 176.123 3.46387 176.392 3.7373C176.66 4.01074 176.866 4.34798 177.007 4.74902C177.153 5.14551 177.226 5.60124 177.226 6.11621H175.585C175.585 5.82454 175.551 5.56478 175.482 5.33691C175.419 5.10449 175.323 4.90853 175.195 4.74902C175.068 4.58496 174.913 4.45964 174.73 4.37305C174.553 4.28646 174.35 4.24316 174.122 4.24316C173.799 4.24316 173.532 4.30469 173.322 4.42773C173.113 4.54622 172.958 4.71029 172.857 4.91992C172.762 5.12956 172.714 5.36882 172.714 5.6377C172.714 5.89746 172.764 6.12533 172.864 6.32129C172.965 6.51725 173.135 6.69499 173.377 6.85449C173.623 7.00944 173.96 7.16667 174.389 7.32617C174.977 7.53581 175.485 7.77051 175.913 8.03027C176.346 8.28548 176.679 8.60221 176.911 8.98047C177.148 9.35417 177.267 9.82585 177.267 10.3955C177.267 10.9834 177.13 11.4824 176.856 11.8926C176.588 12.3027 176.209 12.6149 175.722 12.8291C175.239 13.0387 174.676 13.1436 174.033 13.1436C173.628 13.1436 173.224 13.0911 172.823 12.9863C172.427 12.877 172.067 12.6992 171.743 12.4531C171.42 12.207 171.162 11.8812 170.971 11.4756C170.779 11.0654 170.684 10.5641 170.684 9.97168H172.338C172.338 10.3271 172.386 10.6234 172.481 10.8604C172.577 11.0973 172.707 11.2842 172.871 11.4209C173.035 11.5576 173.217 11.6556 173.418 11.7148C173.623 11.7741 173.828 11.8037 174.033 11.8037C174.375 11.8037 174.662 11.7467 174.895 11.6328C175.132 11.5143 175.309 11.3503 175.428 11.1406C175.551 10.9264 175.612 10.6826 175.612 10.4092ZM183.207 3.0127V13H181.56V4.96777L179.119 5.79492V4.43457L183.009 3.0127H183.207ZM188.423 2.5V13H186.769V2.5H188.423ZM193.017 5.60352L189.797 9.17188L188.033 10.9766L187.603 9.58203L188.936 7.93457L191.027 5.60352H193.017ZM191.383 13L188.983 9.52734L190.022 8.37207L193.29 13H191.383ZM200.864 8.0918V9.4043H197.248V8.0918H200.864ZM209.655 1.4541V3.49805H208.603V1.4541H209.655ZM209.525 12.6172V14.4492H208.479V12.6172H209.525ZM210.558 10.4092C210.558 10.1449 210.503 9.91471 210.394 9.71875C210.289 9.51823 210.116 9.33822 209.874 9.17871C209.632 9.01465 209.309 8.86198 208.903 8.7207C208.32 8.51562 207.81 8.28548 207.372 8.03027C206.939 7.77051 206.602 7.4515 206.36 7.07324C206.123 6.69043 206.005 6.21419 206.005 5.64453C206.005 5.08398 206.132 4.59863 206.388 4.18848C206.647 3.77832 207.007 3.46159 207.468 3.23828C207.928 3.01497 208.466 2.90332 209.081 2.90332C209.555 2.90332 209.981 2.97396 210.359 3.11523C210.742 3.25651 211.068 3.46387 211.337 3.7373C211.606 4.01074 211.811 4.34798 211.952 4.74902C212.098 5.14551 212.171 5.60124 212.171 6.11621H210.53C210.53 5.82454 210.496 5.56478 210.428 5.33691C210.364 5.10449 210.268 4.90853 210.141 4.74902C210.013 4.58496 209.858 4.45964 209.676 4.37305C209.498 4.28646 209.295 4.24316 209.067 4.24316C208.744 4.24316 208.477 4.30469 208.268 4.42773C208.058 4.54622 207.903 4.71029 207.803 4.91992C207.707 5.12956 207.659 5.36882 207.659 5.6377C207.659 5.89746 207.709 6.12533 207.81 6.32129C207.91 6.51725 208.081 6.69499 208.322 6.85449C208.568 7.00944 208.906 7.16667 209.334 7.32617C209.922 7.53581 210.43 7.77051 210.858 8.03027C211.291 8.28548 211.624 8.60221 211.856 8.98047C212.093 9.35417 212.212 9.82585 212.212 10.3955C212.212 10.9834 212.075 11.4824 211.802 11.8926C211.533 12.3027 211.155 12.6149 210.667 12.8291C210.184 13.0387 209.621 13.1436 208.979 13.1436C208.573 13.1436 208.17 13.0911 207.769 12.9863C207.372 12.877 207.012 12.6992 206.688 12.4531C206.365 12.207 206.107 11.8812 205.916 11.4756C205.725 11.0654 205.629 10.5641 205.629 9.97168H207.283C207.283 10.3271 207.331 10.6234 207.427 10.8604C207.522 11.0973 207.652 11.2842 207.816 11.4209C207.98 11.5576 208.163 11.6556 208.363 11.7148C208.568 11.7741 208.773 11.8037 208.979 11.8037C209.32 11.8037 209.607 11.7467 209.84 11.6328C210.077 11.5143 210.255 11.3503 210.373 11.1406C210.496 10.9264 210.558 10.6826 210.558 10.4092ZM218.152 3.0127V13H216.505V4.96777L214.064 5.79492V4.43457L217.954 3.0127H218.152ZM228.099 7.18945V8.81641C228.099 9.5957 228.021 10.2611 227.866 10.8125C227.716 11.3594 227.497 11.8037 227.21 12.1455C226.923 12.4873 226.579 12.738 226.178 12.8975C225.781 13.057 225.337 13.1367 224.845 13.1367C224.453 13.1367 224.088 13.0866 223.751 12.9863C223.418 12.8861 223.118 12.7288 222.849 12.5146C222.58 12.3005 222.35 12.0247 222.158 11.6875C221.971 11.3457 221.826 10.9378 221.721 10.4639C221.62 9.98991 221.57 9.44076 221.57 8.81641V7.18945C221.57 6.4056 221.648 5.74479 221.803 5.20703C221.958 4.66471 222.179 4.22493 222.466 3.8877C222.753 3.5459 223.095 3.29753 223.491 3.14258C223.892 2.98763 224.339 2.91016 224.831 2.91016C225.228 2.91016 225.592 2.96029 225.925 3.06055C226.262 3.15625 226.563 3.30892 226.827 3.51855C227.096 3.72819 227.324 4.00163 227.511 4.33887C227.702 4.67155 227.848 5.07487 227.948 5.54883C228.049 6.01823 228.099 6.5651 228.099 7.18945ZM226.451 9.04883V6.94336C226.451 6.54688 226.428 6.19824 226.383 5.89746C226.337 5.59212 226.269 5.33464 226.178 5.125C226.091 4.91081 225.982 4.73763 225.85 4.60547C225.717 4.46875 225.567 4.37077 225.398 4.31152C225.23 4.24772 225.041 4.21582 224.831 4.21582C224.576 4.21582 224.348 4.26595 224.147 4.36621C223.947 4.46191 223.778 4.61686 223.642 4.83105C223.505 5.04525 223.4 5.3278 223.327 5.67871C223.259 6.02507 223.225 6.44661 223.225 6.94336V9.04883C223.225 9.44987 223.247 9.80306 223.293 10.1084C223.339 10.4137 223.407 10.6758 223.498 10.8945C223.589 11.1087 223.699 11.2865 223.826 11.4277C223.958 11.5645 224.109 11.6647 224.277 11.7285C224.451 11.7923 224.64 11.8242 224.845 11.8242C225.104 11.8242 225.335 11.7741 225.535 11.6738C225.736 11.5736 225.904 11.4141 226.041 11.1953C226.178 10.972 226.28 10.6826 226.349 10.3271C226.417 9.97168 226.451 9.54557 226.451 9.04883ZM236.056 7.18945V8.81641C236.056 9.5957 235.978 10.2611 235.823 10.8125C235.673 11.3594 235.454 11.8037 235.167 12.1455C234.88 12.4873 234.536 12.738 234.135 12.8975C233.738 13.057 233.294 13.1367 232.802 13.1367C232.41 13.1367 232.045 13.0866 231.708 12.9863C231.375 12.8861 231.075 12.7288 230.806 12.5146C230.537 12.3005 230.307 12.0247 230.115 11.6875C229.928 11.3457 229.783 10.9378 229.678 10.4639C229.577 9.98991 229.527 9.44076 229.527 8.81641V7.18945C229.527 6.4056 229.605 5.74479 229.76 5.20703C229.915 4.66471 230.136 4.22493 230.423 3.8877C230.71 3.5459 231.052 3.29753 231.448 3.14258C231.849 2.98763 232.296 2.91016 232.788 2.91016C233.185 2.91016 233.549 2.96029 233.882 3.06055C234.219 3.15625 234.52 3.30892 234.784 3.51855C235.053 3.72819 235.281 4.00163 235.468 4.33887C235.659 4.67155 235.805 5.07487 235.905 5.54883C236.006 6.01823 236.056 6.5651 236.056 7.18945ZM234.408 9.04883V6.94336C234.408 6.54688 234.385 6.19824 234.34 5.89746C234.294 5.59212 234.226 5.33464 234.135 5.125C234.048 4.91081 233.939 4.73763 233.807 4.60547C233.674 4.46875 233.524 4.37077 233.355 4.31152C233.187 4.24772 232.998 4.21582 232.788 4.21582C232.533 4.21582 232.305 4.26595 232.104 4.36621C231.904 4.46191 231.735 4.61686 231.599 4.83105C231.462 5.04525 231.357 5.3278 231.284 5.67871C231.216 6.02507 231.182 6.44661 231.182 6.94336V9.04883C231.182 9.44987 231.204 9.80306 231.25 10.1084C231.296 10.4137 231.364 10.6758 231.455 10.8945C231.546 11.1087 231.656 11.2865 231.783 11.4277C231.915 11.5645 232.066 11.6647 232.234 11.7285C232.408 11.7923 232.597 11.8242 232.802 11.8242C233.062 11.8242 233.292 11.7741 233.492 11.6738C233.693 11.5736 233.861 11.4141 233.998 11.1953C234.135 10.972 234.237 10.6826 234.306 10.3271C234.374 9.97168 234.408 9.54557 234.408 9.04883ZM239.282 2.5V13H237.628V2.5H239.282ZM243.876 5.60352L240.656 9.17188L238.893 10.9766L238.462 9.58203L239.795 7.93457L241.887 5.60352H243.876ZM242.242 13L239.843 9.52734L240.882 8.37207L244.149 13H242.242Z" fill="#FFFFFC"/>
<circle cx="267" cy="8" r="6" fill="#07B307"/>
<path d="M285.71 1.4541V3.49805H284.657V1.4541H285.71ZM285.58 12.6172V14.4492H284.534V12.6172H285.58ZM286.612 10.4092C286.612 10.1449 286.558 9.91471 286.448 9.71875C286.343 9.51823 286.17 9.33822 285.929 9.17871C285.687 9.01465 285.364 8.86198 284.958 8.7207C284.375 8.51562 283.864 8.28548 283.427 8.03027C282.994 7.77051 282.657 7.4515 282.415 7.07324C282.178 6.69043 282.06 6.21419 282.06 5.64453C282.06 5.08398 282.187 4.59863 282.442 4.18848C282.702 3.77832 283.062 3.46159 283.522 3.23828C283.983 3.01497 284.521 2.90332 285.136 2.90332C285.61 2.90332 286.036 2.97396 286.414 3.11523C286.797 3.25651 287.123 3.46387 287.392 3.7373C287.66 4.01074 287.866 4.34798 288.007 4.74902C288.153 5.14551 288.226 5.60124 288.226 6.11621H286.585C286.585 5.82454 286.551 5.56478 286.482 5.33691C286.419 5.10449 286.323 4.90853 286.195 4.74902C286.068 4.58496 285.913 4.45964 285.73 4.37305C285.553 4.28646 285.35 4.24316 285.122 4.24316C284.799 4.24316 284.532 4.30469 284.322 4.42773C284.113 4.54622 283.958 4.71029 283.857 4.91992C283.762 5.12956 283.714 5.36882 283.714 5.6377C283.714 5.89746 283.764 6.12533 283.864 6.32129C283.965 6.51725 284.135 6.69499 284.377 6.85449C284.623 7.00944 284.96 7.16667 285.389 7.32617C285.977 7.53581 286.485 7.77051 286.913 8.03027C287.346 8.28548 287.679 8.60221 287.911 8.98047C288.148 9.35417 288.267 9.82585 288.267 10.3955C288.267 10.9834 288.13 11.4824 287.856 11.8926C287.588 12.3027 287.209 12.6149 286.722 12.8291C286.239 13.0387 285.676 13.1436 285.033 13.1436C284.628 13.1436 284.224 13.0911 283.823 12.9863C283.427 12.877 283.067 12.6992 282.743 12.4531C282.42 12.207 282.162 11.8812 281.971 11.4756C281.779 11.0654 281.684 10.5641 281.684 9.97168H283.338C283.338 10.3271 283.386 10.6234 283.481 10.8604C283.577 11.0973 283.707 11.2842 283.871 11.4209C284.035 11.5576 284.217 11.6556 284.418 11.7148C284.623 11.7741 284.828 11.8037 285.033 11.8037C285.375 11.8037 285.662 11.7467 285.895 11.6328C286.132 11.5143 286.309 11.3503 286.428 11.1406C286.551 10.9264 286.612 10.6826 286.612 10.4092ZM294.207 3.0127V13H292.56V4.96777L290.119 5.79492V4.43457L294.009 3.0127H294.207ZM304.153 7.18945V8.81641C304.153 9.5957 304.076 10.2611 303.921 10.8125C303.771 11.3594 303.552 11.8037 303.265 12.1455C302.978 12.4873 302.633 12.738 302.232 12.8975C301.836 13.057 301.392 13.1367 300.899 13.1367C300.507 13.1367 300.143 13.0866 299.806 12.9863C299.473 12.8861 299.172 12.7288 298.903 12.5146C298.634 12.3005 298.404 12.0247 298.213 11.6875C298.026 11.3457 297.88 10.9378 297.775 10.4639C297.675 9.98991 297.625 9.44076 297.625 8.81641V7.18945C297.625 6.4056 297.702 5.74479 297.857 5.20703C298.012 4.66471 298.233 4.22493 298.521 3.8877C298.808 3.5459 299.149 3.29753 299.546 3.14258C299.947 2.98763 300.394 2.91016 300.886 2.91016C301.282 2.91016 301.647 2.96029 301.979 3.06055C302.317 3.15625 302.618 3.30892 302.882 3.51855C303.151 3.72819 303.379 4.00163 303.565 4.33887C303.757 4.67155 303.903 5.07487 304.003 5.54883C304.103 6.01823 304.153 6.5651 304.153 7.18945ZM302.506 9.04883V6.94336C302.506 6.54688 302.483 6.19824 302.438 5.89746C302.392 5.59212 302.324 5.33464 302.232 5.125C302.146 4.91081 302.036 4.73763 301.904 4.60547C301.772 4.46875 301.622 4.37077 301.453 4.31152C301.285 4.24772 301.095 4.21582 300.886 4.21582C300.631 4.21582 300.403 4.26595 300.202 4.36621C300.002 4.46191 299.833 4.61686 299.696 4.83105C299.56 5.04525 299.455 5.3278 299.382 5.67871C299.313 6.02507 299.279 6.44661 299.279 6.94336V9.04883C299.279 9.44987 299.302 9.80306 299.348 10.1084C299.393 10.4137 299.462 10.6758 299.553 10.8945C299.644 11.1087 299.753 11.2865 299.881 11.4277C300.013 11.5645 300.163 11.6647 300.332 11.7285C300.505 11.7923 300.694 11.8242 300.899 11.8242C301.159 11.8242 301.389 11.7741 301.59 11.6738C301.79 11.5736 301.959 11.4141 302.096 11.1953C302.232 10.972 302.335 10.6826 302.403 10.3271C302.472 9.97168 302.506 9.54557 302.506 9.04883ZM312.11 7.18945V8.81641C312.11 9.5957 312.033 10.2611 311.878 10.8125C311.728 11.3594 311.509 11.8037 311.222 12.1455C310.935 12.4873 310.59 12.738 310.189 12.8975C309.793 13.057 309.349 13.1367 308.856 13.1367C308.465 13.1367 308.1 13.0866 307.763 12.9863C307.43 12.8861 307.129 12.7288 306.86 12.5146C306.591 12.3005 306.361 12.0247 306.17 11.6875C305.983 11.3457 305.837 10.9378 305.732 10.4639C305.632 9.98991 305.582 9.44076 305.582 8.81641V7.18945C305.582 6.4056 305.66 5.74479 305.814 5.20703C305.969 4.66471 306.19 4.22493 306.478 3.8877C306.765 3.5459 307.106 3.29753 307.503 3.14258C307.904 2.98763 308.351 2.91016 308.843 2.91016C309.239 2.91016 309.604 2.96029 309.937 3.06055C310.274 3.15625 310.575 3.30892 310.839 3.51855C311.108 3.72819 311.336 4.00163 311.522 4.33887C311.714 4.67155 311.86 5.07487 311.96 5.54883C312.06 6.01823 312.11 6.5651 312.11 7.18945ZM310.463 9.04883V6.94336C310.463 6.54688 310.44 6.19824 310.395 5.89746C310.349 5.59212 310.281 5.33464 310.189 5.125C310.103 4.91081 309.993 4.73763 309.861 4.60547C309.729 4.46875 309.579 4.37077 309.41 4.31152C309.242 4.24772 309.052 4.21582 308.843 4.21582C308.588 4.21582 308.36 4.26595 308.159 4.36621C307.959 4.46191 307.79 4.61686 307.653 4.83105C307.517 5.04525 307.412 5.3278 307.339 5.67871C307.271 6.02507 307.236 6.44661 307.236 6.94336V9.04883C307.236 9.44987 307.259 9.80306 307.305 10.1084C307.35 10.4137 307.419 10.6758 307.51 10.8945C307.601 11.1087 307.71 11.2865 307.838 11.4277C307.97 11.5645 308.12 11.6647 308.289 11.7285C308.462 11.7923 308.651 11.8242 308.856 11.8242C309.116 11.8242 309.346 11.7741 309.547 11.6738C309.747 11.5736 309.916 11.4141 310.053 11.1953C310.189 10.972 310.292 10.6826 310.36 10.3271C310.429 9.97168 310.463 9.54557 310.463 9.04883ZM315.337 2.5V13H313.683V2.5H315.337ZM319.931 5.60352L316.711 9.17188L314.947 10.9766L314.517 9.58203L315.85 7.93457L317.941 5.60352H319.931ZM318.297 13L315.897 9.52734L316.937 8.37207L320.204 13H318.297ZM327.402 7.54492V9.02832H320.58V7.54492H327.402ZM324.791 4.75586V12.002H323.198V4.75586H324.791Z" fill="#FFFFFC"/>
<path d="M2 34H387" stroke="#07B307" stroke-width="4" stroke-linecap="round"/>
<path d="M2 34H353" stroke="#EB292D" stroke-width="4" stroke-linecap="round"/>
<path d="M2 34H241" stroke="#CBD068" stroke-width="4" stroke-linecap="round"/>
<path d="M110.362 45.0469V45.9492L106.384 55H104.647L108.619 46.3594H103.465V45.0469H110.362ZM113.035 53.7012H113.172C113.801 53.7012 114.325 53.6191 114.744 53.4551C115.168 53.2865 115.505 53.054 115.756 52.7578C116.007 52.4616 116.187 52.113 116.296 51.7119C116.405 51.3109 116.46 50.8757 116.46 50.4062V48.6904C116.46 48.2848 116.417 47.9294 116.33 47.624C116.248 47.3141 116.13 47.0566 115.975 46.8516C115.824 46.6419 115.649 46.4847 115.448 46.3799C115.252 46.2751 115.04 46.2227 114.812 46.2227C114.562 46.2227 114.336 46.2796 114.136 46.3936C113.94 46.5029 113.773 46.6556 113.637 46.8516C113.505 47.043 113.402 47.2686 113.329 47.5283C113.261 47.7835 113.227 48.057 113.227 48.3486C113.227 48.6221 113.258 48.8864 113.322 49.1416C113.391 49.3923 113.491 49.6156 113.623 49.8115C113.755 50.0075 113.922 50.1624 114.122 50.2764C114.323 50.3903 114.557 50.4473 114.826 50.4473C115.081 50.4473 115.316 50.3994 115.53 50.3037C115.744 50.2035 115.931 50.069 116.091 49.9004C116.25 49.7318 116.376 49.5426 116.467 49.333C116.558 49.1234 116.608 48.9092 116.617 48.6904L117.246 48.8818C117.246 49.2282 117.173 49.57 117.027 49.9072C116.886 50.2399 116.688 50.5452 116.433 50.8232C116.182 51.0967 115.888 51.3154 115.551 51.4795C115.218 51.6436 114.856 51.7256 114.464 51.7256C113.99 51.7256 113.571 51.6367 113.206 51.459C112.846 51.2767 112.545 51.0306 112.304 50.7207C112.067 50.4108 111.889 50.0553 111.771 49.6543C111.652 49.2533 111.593 48.8317 111.593 48.3896C111.593 47.9111 111.666 47.4622 111.812 47.043C111.957 46.6237 112.169 46.2546 112.447 45.9355C112.725 45.612 113.062 45.3613 113.459 45.1836C113.86 45.0013 114.313 44.9102 114.819 44.9102C115.357 44.9102 115.829 45.015 116.234 45.2246C116.64 45.4342 116.982 45.7236 117.26 46.0928C117.538 46.4619 117.747 46.8903 117.889 47.3779C118.03 47.8656 118.101 48.3896 118.101 48.9502V49.5312C118.101 50.1191 118.048 50.6865 117.943 51.2334C117.839 51.7757 117.668 52.2793 117.431 52.7441C117.198 53.2044 116.891 53.61 116.508 53.9609C116.13 54.3073 115.665 54.5785 115.113 54.7744C114.566 54.9658 113.924 55.0615 113.186 55.0615H113.035V53.7012ZM119.83 54.1797C119.83 53.9245 119.917 53.7103 120.09 53.5371C120.263 53.3594 120.498 53.2705 120.794 53.2705C121.095 53.2705 121.329 53.3594 121.498 53.5371C121.671 53.7103 121.758 53.9245 121.758 54.1797C121.758 54.4349 121.671 54.6491 121.498 54.8223C121.329 54.9954 121.095 55.082 120.794 55.082C120.498 55.082 120.263 54.9954 120.09 54.8223C119.917 54.6491 119.83 54.4349 119.83 54.1797ZM130.419 51.4521V52.7646H123.241L123.187 51.7734L127.479 45.0469H128.799L127.37 47.4941L124.902 51.4521H130.419ZM129.175 45.0469V55H127.527V45.0469H129.175ZM133.249 50.3721L131.937 50.0508L132.477 45.0469H137.843V46.4414H133.844L133.57 48.8818C133.725 48.7907 133.939 48.7018 134.213 48.6152C134.486 48.5241 134.799 48.4785 135.149 48.4785C135.619 48.4785 136.038 48.556 136.407 48.7109C136.781 48.8613 137.098 49.0824 137.357 49.374C137.617 49.6611 137.815 50.012 137.952 50.4268C138.089 50.8369 138.157 51.2995 138.157 51.8145C138.157 52.2747 138.089 52.7054 137.952 53.1064C137.82 53.5075 137.619 53.8607 137.351 54.166C137.082 54.4714 136.742 54.7106 136.332 54.8838C135.926 55.0524 135.446 55.1367 134.89 55.1367C134.475 55.1367 134.076 55.0775 133.693 54.959C133.315 54.8359 132.976 54.6559 132.675 54.4189C132.374 54.1774 132.132 53.8812 131.95 53.5303C131.768 53.1748 131.663 52.7669 131.636 52.3066H133.249C133.29 52.6302 133.379 52.9059 133.516 53.1338C133.657 53.3571 133.844 53.528 134.076 53.6465C134.309 53.765 134.577 53.8242 134.883 53.8242C135.161 53.8242 135.4 53.7764 135.601 53.6807C135.801 53.5804 135.967 53.4391 136.1 53.2568C136.236 53.07 136.337 52.8512 136.4 52.6006C136.469 52.3499 136.503 52.0719 136.503 51.7666C136.503 51.4749 136.464 51.2083 136.387 50.9668C136.314 50.7253 136.202 50.5156 136.052 50.3379C135.906 50.1602 135.721 50.0234 135.498 49.9277C135.275 49.8275 135.017 49.7773 134.726 49.7773C134.334 49.7773 134.033 49.8343 133.823 49.9482C133.618 50.0622 133.427 50.2035 133.249 50.3721ZM139.408 47.4873V46.9609C139.408 46.5827 139.49 46.2386 139.654 45.9287C139.818 45.6188 140.058 45.3704 140.372 45.1836C140.687 44.9967 141.065 44.9033 141.507 44.9033C141.963 44.9033 142.345 44.9967 142.655 45.1836C142.97 45.3704 143.209 45.6188 143.373 45.9287C143.537 46.2386 143.619 46.5827 143.619 46.9609V47.4873C143.619 47.8564 143.537 48.196 143.373 48.5059C143.214 48.8158 142.977 49.0641 142.662 49.251C142.352 49.4378 141.972 49.5312 141.521 49.5312C141.074 49.5312 140.691 49.4378 140.372 49.251C140.058 49.0641 139.818 48.8158 139.654 48.5059C139.49 48.196 139.408 47.8564 139.408 47.4873ZM140.55 46.9609V47.4873C140.55 47.6696 140.584 47.8428 140.652 48.0068C140.725 48.1709 140.835 48.3031 140.98 48.4033C141.126 48.5036 141.306 48.5537 141.521 48.5537C141.739 48.5537 141.917 48.5036 142.054 48.4033C142.195 48.3031 142.3 48.1709 142.368 48.0068C142.437 47.8428 142.471 47.6696 142.471 47.4873V46.9609C142.471 46.7741 142.434 46.5986 142.361 46.4346C142.293 46.266 142.188 46.1315 142.047 46.0312C141.906 45.931 141.726 45.8809 141.507 45.8809C141.297 45.8809 141.119 45.931 140.974 46.0312C140.832 46.1315 140.725 46.266 140.652 46.4346C140.584 46.5986 140.55 46.7741 140.55 46.9609ZM144.207 53.0928V52.5596C144.207 52.1859 144.289 51.8441 144.453 51.5342C144.622 51.2243 144.863 50.9759 145.178 50.7891C145.492 50.6022 145.87 50.5088 146.312 50.5088C146.768 50.5088 147.151 50.6022 147.461 50.7891C147.775 50.9759 148.012 51.2243 148.172 51.5342C148.336 51.8441 148.418 52.1859 148.418 52.5596V53.0928C148.418 53.4665 148.336 53.8083 148.172 54.1182C148.012 54.4281 147.778 54.6764 147.468 54.8633C147.158 55.0501 146.777 55.1436 146.326 55.1436C145.88 55.1436 145.497 55.0501 145.178 54.8633C144.863 54.6764 144.622 54.4281 144.453 54.1182C144.289 53.8083 144.207 53.4665 144.207 53.0928ZM145.355 52.5596V53.0928C145.355 53.2751 145.392 53.4482 145.465 53.6123C145.542 53.7764 145.654 53.9108 145.8 54.0156C145.946 54.1159 146.121 54.166 146.326 54.166C146.559 54.166 146.745 54.1159 146.887 54.0156C147.028 53.9108 147.128 53.7786 147.188 53.6191C147.251 53.4551 147.283 53.2796 147.283 53.0928V52.5596C147.283 52.3727 147.247 52.1973 147.174 52.0332C147.105 51.8691 146.998 51.737 146.853 51.6367C146.711 51.5365 146.531 51.4863 146.312 51.4863C146.098 51.4863 145.921 51.5365 145.779 51.6367C145.638 51.737 145.531 51.8691 145.458 52.0332C145.39 52.1973 145.355 52.3727 145.355 52.5596ZM146.723 46.4688L141.862 54.248L141.021 53.7627L145.882 45.9834L146.723 46.4688Z" fill="white"/>
<path d="M282.25 45.0127V55H280.603V46.9678L278.162 47.7949V46.4346L282.052 45.0127H282.25ZM287.035 53.7012H287.172C287.801 53.7012 288.325 53.6191 288.744 53.4551C289.168 53.2865 289.505 53.054 289.756 52.7578C290.007 52.4616 290.187 52.113 290.296 51.7119C290.405 51.3109 290.46 50.8757 290.46 50.4062V48.6904C290.46 48.2848 290.417 47.9294 290.33 47.624C290.248 47.3141 290.13 47.0566 289.975 46.8516C289.824 46.6419 289.649 46.4847 289.448 46.3799C289.252 46.2751 289.04 46.2227 288.812 46.2227C288.562 46.2227 288.336 46.2796 288.136 46.3936C287.94 46.5029 287.773 46.6556 287.637 46.8516C287.505 47.043 287.402 47.2686 287.329 47.5283C287.261 47.7835 287.227 48.057 287.227 48.3486C287.227 48.6221 287.258 48.8864 287.322 49.1416C287.391 49.3923 287.491 49.6156 287.623 49.8115C287.755 50.0075 287.922 50.1624 288.122 50.2764C288.323 50.3903 288.557 50.4473 288.826 50.4473C289.081 50.4473 289.316 50.3994 289.53 50.3037C289.744 50.2035 289.931 50.069 290.091 49.9004C290.25 49.7318 290.376 49.5426 290.467 49.333C290.558 49.1234 290.608 48.9092 290.617 48.6904L291.246 48.8818C291.246 49.2282 291.173 49.57 291.027 49.9072C290.886 50.2399 290.688 50.5452 290.433 50.8232C290.182 51.0967 289.888 51.3154 289.551 51.4795C289.218 51.6436 288.856 51.7256 288.464 51.7256C287.99 51.7256 287.571 51.6367 287.206 51.459C286.846 51.2767 286.545 51.0306 286.304 50.7207C286.067 50.4108 285.889 50.0553 285.771 49.6543C285.652 49.2533 285.593 48.8317 285.593 48.3896C285.593 47.9111 285.666 47.4622 285.812 47.043C285.957 46.6237 286.169 46.2546 286.447 45.9355C286.725 45.612 287.062 45.3613 287.459 45.1836C287.86 45.0013 288.313 44.9102 288.819 44.9102C289.357 44.9102 289.829 45.015 290.234 45.2246C290.64 45.4342 290.982 45.7236 291.26 46.0928C291.538 46.4619 291.747 46.8903 291.889 47.3779C292.03 47.8656 292.101 48.3896 292.101 48.9502V49.5312C292.101 50.1191 292.048 50.6865 291.943 51.2334C291.839 51.7757 291.668 52.2793 291.431 52.7441C291.198 53.2044 290.891 53.61 290.508 53.9609C290.13 54.3073 289.665 54.5785 289.113 54.7744C288.566 54.9658 287.924 55.0615 287.186 55.0615H287.035V53.7012ZM293.83 54.1797C293.83 53.9245 293.917 53.7103 294.09 53.5371C294.263 53.3594 294.498 53.2705 294.794 53.2705C295.095 53.2705 295.329 53.3594 295.498 53.5371C295.671 53.7103 295.758 53.9245 295.758 54.1797C295.758 54.4349 295.671 54.6491 295.498 54.8223C295.329 54.9954 295.095 55.082 294.794 55.082C294.498 55.082 294.263 54.9954 294.09 54.8223C293.917 54.6491 293.83 54.4349 293.83 54.1797ZM302.061 45.0127V55H300.413V46.9678L297.973 47.7949V46.4346L301.862 45.0127H302.061ZM310.496 44.9854H310.701V46.332H310.585C309.997 46.332 309.489 46.4232 309.061 46.6055C308.637 46.7878 308.288 47.0384 308.015 47.3574C307.741 47.6764 307.536 48.0501 307.399 48.4785C307.267 48.9023 307.201 49.3535 307.201 49.832V51.3975C307.201 51.7939 307.244 52.1449 307.331 52.4502C307.418 52.751 307.538 53.0039 307.693 53.209C307.853 53.4095 308.035 53.5622 308.24 53.667C308.445 53.7718 308.666 53.8242 308.903 53.8242C309.149 53.8242 309.373 53.7741 309.573 53.6738C309.774 53.569 309.945 53.4255 310.086 53.2432C310.227 53.0609 310.334 52.8444 310.407 52.5938C310.48 52.3431 310.517 52.0697 310.517 51.7734C310.517 51.4909 310.48 51.2266 310.407 50.9805C310.339 50.7298 310.236 50.5111 310.1 50.3242C309.963 50.1328 309.792 49.9847 309.587 49.8799C309.386 49.7705 309.154 49.7158 308.89 49.7158C308.562 49.7158 308.263 49.7933 307.994 49.9482C307.73 50.1032 307.516 50.306 307.352 50.5566C307.192 50.8027 307.105 51.0648 307.092 51.3428L306.463 51.1377C306.499 50.7139 306.593 50.3333 306.743 49.9961C306.898 49.6589 307.101 49.3717 307.352 49.1348C307.602 48.8978 307.892 48.7178 308.22 48.5947C308.552 48.4671 308.917 48.4033 309.313 48.4033C309.797 48.4033 310.216 48.4945 310.571 48.6768C310.927 48.859 311.221 49.1074 311.453 49.4219C311.69 49.7318 311.866 50.0872 311.979 50.4883C312.098 50.8848 312.157 51.2995 312.157 51.7324C312.157 52.2109 312.084 52.6576 311.938 53.0723C311.793 53.4824 311.578 53.8424 311.296 54.1523C311.018 54.4622 310.678 54.7038 310.277 54.877C309.881 55.0501 309.43 55.1367 308.924 55.1367C308.391 55.1367 307.914 55.0342 307.495 54.8291C307.08 54.624 306.727 54.3415 306.436 53.9814C306.148 53.6214 305.93 53.2067 305.779 52.7373C305.629 52.2679 305.554 51.7712 305.554 51.2471V50.5635C305.554 49.807 305.649 49.0938 305.841 48.4238C306.032 47.7493 306.326 47.1546 306.723 46.6396C307.124 46.1247 307.636 45.7214 308.261 45.4297C308.885 45.1335 309.63 44.9854 310.496 44.9854ZM313.408 47.4873V46.9609C313.408 46.5827 313.49 46.2386 313.654 45.9287C313.818 45.6188 314.058 45.3704 314.372 45.1836C314.687 44.9967 315.065 44.9033 315.507 44.9033C315.963 44.9033 316.345 44.9967 316.655 45.1836C316.97 45.3704 317.209 45.6188 317.373 45.9287C317.537 46.2386 317.619 46.5827 317.619 46.9609V47.4873C317.619 47.8564 317.537 48.196 317.373 48.5059C317.214 48.8158 316.977 49.0641 316.662 49.251C316.352 49.4378 315.972 49.5312 315.521 49.5312C315.074 49.5312 314.691 49.4378 314.372 49.251C314.058 49.0641 313.818 48.8158 313.654 48.5059C313.49 48.196 313.408 47.8564 313.408 47.4873ZM314.55 46.9609V47.4873C314.55 47.6696 314.584 47.8428 314.652 48.0068C314.725 48.1709 314.835 48.3031 314.98 48.4033C315.126 48.5036 315.306 48.5537 315.521 48.5537C315.739 48.5537 315.917 48.5036 316.054 48.4033C316.195 48.3031 316.3 48.1709 316.368 48.0068C316.437 47.8428 316.471 47.6696 316.471 47.4873V46.9609C316.471 46.7741 316.434 46.5986 316.361 46.4346C316.293 46.266 316.188 46.1315 316.047 46.0312C315.906 45.931 315.726 45.8809 315.507 45.8809C315.297 45.8809 315.119 45.931 314.974 46.0312C314.832 46.1315 314.725 46.266 314.652 46.4346C314.584 46.5986 314.55 46.7741 314.55 46.9609ZM318.207 53.0928V52.5596C318.207 52.1859 318.289 51.8441 318.453 51.5342C318.622 51.2243 318.863 50.9759 319.178 50.7891C319.492 50.6022 319.87 50.5088 320.312 50.5088C320.768 50.5088 321.151 50.6022 321.461 50.7891C321.775 50.9759 322.012 51.2243 322.172 51.5342C322.336 51.8441 322.418 52.1859 322.418 52.5596V53.0928C322.418 53.4665 322.336 53.8083 322.172 54.1182C322.012 54.4281 321.778 54.6764 321.468 54.8633C321.158 55.0501 320.777 55.1436 320.326 55.1436C319.88 55.1436 319.497 55.0501 319.178 54.8633C318.863 54.6764 318.622 54.4281 318.453 54.1182C318.289 53.8083 318.207 53.4665 318.207 53.0928ZM319.355 52.5596V53.0928C319.355 53.2751 319.392 53.4482 319.465 53.6123C319.542 53.7764 319.654 53.9108 319.8 54.0156C319.946 54.1159 320.121 54.166 320.326 54.166C320.559 54.166 320.745 54.1159 320.887 54.0156C321.028 53.9108 321.128 53.7786 321.188 53.6191C321.251 53.4551 321.283 53.2796 321.283 53.0928V52.5596C321.283 52.3727 321.247 52.1973 321.174 52.0332C321.105 51.8691 320.998 51.737 320.853 51.6367C320.711 51.5365 320.531 51.4863 320.312 51.4863C320.098 51.4863 319.921 51.5365 319.779 51.6367C319.638 51.737 319.531 51.8691 319.458 52.0332C319.39 52.1973 319.355 52.3727 319.355 52.5596ZM320.723 46.4688L315.862 54.248L315.021 53.7627L319.882 45.9834L320.723 46.4688Z" fill="white"/>
<path d="M354.25 45.0127V55H352.603V46.9678L350.162 47.7949V46.4346L354.052 45.0127H354.25ZM357.873 54.1797C357.873 53.9245 357.96 53.7103 358.133 53.5371C358.306 53.3594 358.541 53.2705 358.837 53.2705C359.138 53.2705 359.372 53.3594 359.541 53.5371C359.714 53.7103 359.801 53.9245 359.801 54.1797C359.801 54.4349 359.714 54.6491 359.541 54.8223C359.372 54.9954 359.138 55.082 358.837 55.082C358.541 55.082 358.306 54.9954 358.133 54.8223C357.96 54.6491 357.873 54.4349 357.873 54.1797ZM363.54 49.2783H364.524C364.907 49.2783 365.224 49.2122 365.475 49.0801C365.73 48.9479 365.919 48.7656 366.042 48.5332C366.165 48.3008 366.227 48.0342 366.227 47.7334C366.227 47.4189 366.17 47.1501 366.056 46.9268C365.946 46.6989 365.778 46.5234 365.55 46.4004C365.326 46.2773 365.042 46.2158 364.695 46.2158C364.404 46.2158 364.139 46.2751 363.902 46.3936C363.67 46.5075 363.485 46.6715 363.349 46.8857C363.212 47.0954 363.144 47.346 363.144 47.6377H361.489C361.489 47.109 361.628 46.6396 361.906 46.2295C362.184 45.8193 362.562 45.498 363.041 45.2656C363.524 45.0286 364.066 44.9102 364.668 44.9102C365.311 44.9102 365.871 45.0173 366.35 45.2314C366.833 45.4411 367.209 45.7555 367.478 46.1748C367.746 46.5941 367.881 47.1136 367.881 47.7334C367.881 48.016 367.815 48.3031 367.683 48.5947C367.55 48.8864 367.354 49.153 367.095 49.3945C366.835 49.6315 366.511 49.8252 366.124 49.9756C365.737 50.1214 365.288 50.1943 364.777 50.1943H363.54V49.2783ZM363.54 50.5635V49.6611H364.777C365.361 49.6611 365.857 49.7295 366.268 49.8662C366.682 50.0029 367.02 50.1921 367.279 50.4336C367.539 50.6706 367.728 50.9417 367.847 51.2471C367.97 51.5524 368.031 51.876 368.031 52.2178C368.031 52.6826 367.947 53.0973 367.778 53.4619C367.614 53.8219 367.38 54.1273 367.074 54.3779C366.769 54.6286 366.411 54.8177 366.001 54.9453C365.595 55.0729 365.153 55.1367 364.675 55.1367C364.246 55.1367 363.836 55.0775 363.444 54.959C363.052 54.8405 362.701 54.665 362.392 54.4326C362.082 54.1956 361.836 53.9017 361.653 53.5508C361.476 53.1953 361.387 52.7852 361.387 52.3203H363.034C363.034 52.6165 363.103 52.8786 363.239 53.1064C363.381 53.3298 363.576 53.5052 363.827 53.6328C364.082 53.7604 364.374 53.8242 364.702 53.8242C365.049 53.8242 365.347 53.7627 365.598 53.6396C365.848 53.5166 366.04 53.3343 366.172 53.0928C366.309 52.8512 366.377 52.5596 366.377 52.2178C366.377 51.8304 366.302 51.516 366.151 51.2744C366.001 51.0329 365.787 50.8551 365.509 50.7412C365.231 50.6227 364.903 50.5635 364.524 50.5635H363.54ZM370.889 53.7012H371.025C371.654 53.7012 372.178 53.6191 372.598 53.4551C373.021 53.2865 373.359 53.054 373.609 52.7578C373.86 52.4616 374.04 52.113 374.149 51.7119C374.259 51.3109 374.313 50.8757 374.313 50.4062V48.6904C374.313 48.2848 374.27 47.9294 374.184 47.624C374.102 47.3141 373.983 47.0566 373.828 46.8516C373.678 46.6419 373.502 46.4847 373.302 46.3799C373.106 46.2751 372.894 46.2227 372.666 46.2227C372.415 46.2227 372.19 46.2796 371.989 46.3936C371.793 46.5029 371.627 46.6556 371.49 46.8516C371.358 47.043 371.256 47.2686 371.183 47.5283C371.114 47.7835 371.08 48.057 371.08 48.3486C371.08 48.6221 371.112 48.8864 371.176 49.1416C371.244 49.3923 371.344 49.6156 371.477 49.8115C371.609 50.0075 371.775 50.1624 371.976 50.2764C372.176 50.3903 372.411 50.4473 372.68 50.4473C372.935 50.4473 373.17 50.3994 373.384 50.3037C373.598 50.2035 373.785 50.069 373.944 49.9004C374.104 49.7318 374.229 49.5426 374.32 49.333C374.411 49.1234 374.462 48.9092 374.471 48.6904L375.1 48.8818C375.1 49.2282 375.027 49.57 374.881 49.9072C374.74 50.2399 374.541 50.5452 374.286 50.8232C374.035 51.0967 373.742 51.3154 373.404 51.4795C373.072 51.6436 372.709 51.7256 372.317 51.7256C371.843 51.7256 371.424 51.6367 371.06 51.459C370.7 51.2767 370.399 51.0306 370.157 50.7207C369.92 50.4108 369.743 50.0553 369.624 49.6543C369.506 49.2533 369.446 48.8317 369.446 48.3896C369.446 47.9111 369.519 47.4622 369.665 47.043C369.811 46.6237 370.023 46.2546 370.301 45.9355C370.579 45.612 370.916 45.3613 371.312 45.1836C371.714 45.0013 372.167 44.9102 372.673 44.9102C373.211 44.9102 373.682 45.015 374.088 45.2246C374.493 45.4342 374.835 45.7236 375.113 46.0928C375.391 46.4619 375.601 46.8903 375.742 47.3779C375.883 47.8656 375.954 48.3896 375.954 48.9502V49.5312C375.954 50.1191 375.902 50.6865 375.797 51.2334C375.692 51.7757 375.521 52.2793 375.284 52.7441C375.052 53.2044 374.744 53.61 374.361 53.9609C373.983 54.3073 373.518 54.5785 372.967 54.7744C372.42 54.9658 371.777 55.0615 371.039 55.0615H370.889V53.7012ZM377.451 47.4873V46.9609C377.451 46.5827 377.533 46.2386 377.697 45.9287C377.861 45.6188 378.101 45.3704 378.415 45.1836C378.729 44.9967 379.108 44.9033 379.55 44.9033C380.006 44.9033 380.388 44.9967 380.698 45.1836C381.013 45.3704 381.252 45.6188 381.416 45.9287C381.58 46.2386 381.662 46.5827 381.662 46.9609V47.4873C381.662 47.8564 381.58 48.196 381.416 48.5059C381.257 48.8158 381.02 49.0641 380.705 49.251C380.395 49.4378 380.015 49.5312 379.563 49.5312C379.117 49.5312 378.734 49.4378 378.415 49.251C378.101 49.0641 377.861 48.8158 377.697 48.5059C377.533 48.196 377.451 47.8564 377.451 47.4873ZM378.593 46.9609V47.4873C378.593 47.6696 378.627 47.8428 378.695 48.0068C378.768 48.1709 378.878 48.3031 379.023 48.4033C379.169 48.5036 379.349 48.5537 379.563 48.5537C379.782 48.5537 379.96 48.5036 380.097 48.4033C380.238 48.3031 380.343 48.1709 380.411 48.0068C380.479 47.8428 380.514 47.6696 380.514 47.4873V46.9609C380.514 46.7741 380.477 46.5986 380.404 46.4346C380.336 46.266 380.231 46.1315 380.09 46.0312C379.949 45.931 379.769 45.8809 379.55 45.8809C379.34 45.8809 379.162 45.931 379.017 46.0312C378.875 46.1315 378.768 46.266 378.695 46.4346C378.627 46.5986 378.593 46.7741 378.593 46.9609ZM382.25 53.0928V52.5596C382.25 52.1859 382.332 51.8441 382.496 51.5342C382.665 51.2243 382.906 50.9759 383.221 50.7891C383.535 50.6022 383.913 50.5088 384.355 50.5088C384.811 50.5088 385.194 50.6022 385.504 50.7891C385.818 50.9759 386.055 51.2243 386.215 51.5342C386.379 51.8441 386.461 52.1859 386.461 52.5596V53.0928C386.461 53.4665 386.379 53.8083 386.215 54.1182C386.055 54.4281 385.821 54.6764 385.511 54.8633C385.201 55.0501 384.82 55.1436 384.369 55.1436C383.923 55.1436 383.54 55.0501 383.221 54.8633C382.906 54.6764 382.665 54.4281 382.496 54.1182C382.332 53.8083 382.25 53.4665 382.25 53.0928ZM383.398 52.5596V53.0928C383.398 53.2751 383.435 53.4482 383.508 53.6123C383.585 53.7764 383.697 53.9108 383.843 54.0156C383.989 54.1159 384.164 54.166 384.369 54.166C384.602 54.166 384.788 54.1159 384.93 54.0156C385.071 53.9108 385.171 53.7786 385.23 53.6191C385.294 53.4551 385.326 53.2796 385.326 53.0928V52.5596C385.326 52.3727 385.29 52.1973 385.217 52.0332C385.148 51.8691 385.041 51.737 384.896 51.6367C384.754 51.5365 384.574 51.4863 384.355 51.4863C384.141 51.4863 383.964 51.5365 383.822 51.6367C383.681 51.737 383.574 51.8691 383.501 52.0332C383.433 52.1973 383.398 52.3727 383.398 52.5596ZM384.766 46.4688L379.905 54.248L379.064 53.7627L383.925 45.9834L384.766 46.4688Z" fill="white"/>
</svg>
