<svg width="318" height="73" viewBox="0 0 318 73" fill="none" xmlns="http://www.w3.org/2000/svg">
<path d="M5.38281 18.8047V21.1406H4.17969V18.8047H5.38281ZM5.23438 31.5625V33.6562H4.03906V31.5625H5.23438ZM6.41406 29.0391C6.41406 28.737 6.35156 28.474 6.22656 28.25C6.10677 28.0208 5.90885 27.8151 5.63281 27.6328C5.35677 27.4453 4.98698 27.2708 4.52344 27.1094C3.85677 26.875 3.27344 26.612 2.77344 26.3203C2.27865 26.0234 1.89323 25.6589 1.61719 25.2266C1.34635 24.7891 1.21094 24.2448 1.21094 23.5938C1.21094 22.9531 1.35677 22.3984 1.64844 21.9297C1.94531 21.4609 2.35677 21.099 2.88281 20.8438C3.40885 20.5885 4.02344 20.4609 4.72656 20.4609C5.26823 20.4609 5.75521 20.5417 6.1875 20.7031C6.625 20.8646 6.9974 21.1016 7.30469 21.4141C7.61198 21.7266 7.84635 22.112 8.00781 22.5703C8.17448 23.0234 8.25781 23.5443 8.25781 24.1328H6.38281C6.38281 23.7995 6.34375 23.5026 6.26562 23.2422C6.19271 22.9766 6.08333 22.7526 5.9375 22.5703C5.79167 22.3828 5.61458 22.2396 5.40625 22.1406C5.20312 22.0417 4.97135 21.9922 4.71094 21.9922C4.34115 21.9922 4.03646 22.0625 3.79688 22.2031C3.55729 22.3385 3.38021 22.526 3.26562 22.7656C3.15625 23.0052 3.10156 23.2786 3.10156 23.5859C3.10156 23.8828 3.15885 24.1432 3.27344 24.3672C3.38802 24.5911 3.58333 24.7943 3.85938 24.9766C4.14062 25.1536 4.52604 25.3333 5.01562 25.5156C5.6875 25.7552 6.26823 26.0234 6.75781 26.3203C7.2526 26.612 7.63281 26.974 7.89844 27.4062C8.16927 27.8333 8.30469 28.3724 8.30469 29.0234C8.30469 29.6953 8.14844 30.2656 7.83594 30.7344C7.52865 31.2031 7.09635 31.5599 6.53906 31.8047C5.98698 32.0443 5.34375 32.1641 4.60938 32.1641C4.14583 32.1641 3.6849 32.1042 3.22656 31.9844C2.77344 31.8594 2.36198 31.6562 1.99219 31.375C1.6224 31.0938 1.32812 30.7214 1.10938 30.2578C0.890625 29.7891 0.78125 29.2161 0.78125 28.5391H2.67188C2.67188 28.9453 2.72656 29.2839 2.83594 29.5547C2.94531 29.8255 3.09375 30.0391 3.28125 30.1953C3.46875 30.3516 3.67708 30.4635 3.90625 30.5312C4.14062 30.599 4.375 30.6328 4.60938 30.6328C5 30.6328 5.32812 30.5677 5.59375 30.4375C5.86458 30.3021 6.06771 30.1146 6.20312 29.875C6.34375 29.6302 6.41406 29.3516 6.41406 29.0391ZM15.0938 20.5859V32H13.2109V22.8203L10.4219 23.7656V22.2109L14.8672 20.5859H15.0938ZM19.2344 31.0625C19.2344 30.7708 19.3333 30.526 19.5312 30.3281C19.7292 30.125 19.9974 30.0234 20.3359 30.0234C20.6797 30.0234 20.9479 30.125 21.1406 30.3281C21.3385 30.526 21.4375 30.7708 21.4375 31.0625C21.4375 31.3542 21.3385 31.599 21.1406 31.7969C20.9479 31.9948 20.6797 32.0938 20.3359 32.0938C19.9974 32.0938 19.7292 31.9948 19.5312 31.7969C19.3333 31.599 19.2344 31.3542 19.2344 31.0625ZM28.6406 20.5859V32H26.7578V22.8203L23.9688 23.7656V22.2109L28.4141 20.5859H28.6406ZM37.7344 20.5859V32H35.8516V22.8203L33.0625 23.7656V22.2109L37.5078 20.5859H37.7344Z" fill="#FFFFFC"/>
<path d="M8.27344 46.3594V48.2188C8.27344 49.1094 8.1849 49.8698 8.00781 50.5C7.83594 51.125 7.58594 51.6328 7.25781 52.0234C6.92969 52.4141 6.53646 52.7005 6.07812 52.8828C5.625 53.0651 5.11719 53.1562 4.55469 53.1562C4.10677 53.1562 3.6901 53.099 3.30469 52.9844C2.92448 52.8698 2.58073 52.6901 2.27344 52.4453C1.96615 52.2005 1.70312 51.8854 1.48438 51.5C1.27083 51.1094 1.10417 50.6432 0.984375 50.1016C0.869792 49.5599 0.8125 48.9323 0.8125 48.2188V46.3594C0.8125 45.4635 0.901042 44.7083 1.07812 44.0938C1.25521 43.474 1.50781 42.9714 1.83594 42.5859C2.16406 42.1953 2.55469 41.9115 3.00781 41.7344C3.46615 41.5573 3.97656 41.4688 4.53906 41.4688C4.99219 41.4688 5.40885 41.526 5.78906 41.6406C6.17448 41.75 6.51823 41.9245 6.82031 42.1641C7.1276 42.4036 7.38802 42.7161 7.60156 43.1016C7.82031 43.4818 7.98698 43.9427 8.10156 44.4844C8.21615 45.0208 8.27344 45.6458 8.27344 46.3594ZM6.39062 48.4844V46.0781C6.39062 45.625 6.36458 45.2266 6.3125 44.8828C6.26042 44.5339 6.18229 44.2396 6.07812 44C5.97917 43.7552 5.85417 43.5573 5.70312 43.4062C5.55208 43.25 5.38021 43.138 5.1875 43.0703C4.99479 42.9974 4.77865 42.9609 4.53906 42.9609C4.2474 42.9609 3.98698 43.0182 3.75781 43.1328C3.52865 43.2422 3.33594 43.4193 3.17969 43.6641C3.02344 43.9089 2.90365 44.2318 2.82031 44.6328C2.74219 45.0286 2.70312 45.5104 2.70312 46.0781V48.4844C2.70312 48.9427 2.72917 49.3464 2.78125 49.6953C2.83333 50.0443 2.91146 50.3438 3.01562 50.5938C3.11979 50.8385 3.24479 51.0417 3.39062 51.2031C3.54167 51.3594 3.71354 51.474 3.90625 51.5469C4.10417 51.6198 4.32031 51.6562 4.55469 51.6562C4.85156 51.6562 5.11458 51.599 5.34375 51.4844C5.57292 51.3698 5.76562 51.1875 5.92188 50.9375C6.07812 50.6823 6.19531 50.3516 6.27344 49.9453C6.35156 49.5391 6.39062 49.0521 6.39062 48.4844ZM10.1406 52.0625C10.1406 51.7708 10.2396 51.526 10.4375 51.3281C10.6354 51.125 10.9036 51.0234 11.2422 51.0234C11.5859 51.0234 11.8542 51.125 12.0469 51.3281C12.2448 51.526 12.3438 51.7708 12.3438 52.0625C12.3438 52.3542 12.2448 52.599 12.0469 52.7969C11.8542 52.9948 11.5859 53.0938 11.2422 53.0938C10.9036 53.0938 10.6354 52.9948 10.4375 52.7969C10.2396 52.599 10.1406 52.3542 10.1406 52.0625ZM21.8203 46.3594V48.2188C21.8203 49.1094 21.7318 49.8698 21.5547 50.5C21.3828 51.125 21.1328 51.6328 20.8047 52.0234C20.4766 52.4141 20.0833 52.7005 19.625 52.8828C19.1719 53.0651 18.6641 53.1562 18.1016 53.1562C17.6536 53.1562 17.237 53.099 16.8516 52.9844C16.4714 52.8698 16.1276 52.6901 15.8203 52.4453C15.513 52.2005 15.25 51.8854 15.0312 51.5C14.8177 51.1094 14.651 50.6432 14.5312 50.1016C14.4167 49.5599 14.3594 48.9323 14.3594 48.2188V46.3594C14.3594 45.4635 14.4479 44.7083 14.625 44.0938C14.8021 43.474 15.0547 42.9714 15.3828 42.5859C15.7109 42.1953 16.1016 41.9115 16.5547 41.7344C17.013 41.5573 17.5234 41.4688 18.0859 41.4688C18.5391 41.4688 18.9557 41.526 19.3359 41.6406C19.7214 41.75 20.0651 41.9245 20.3672 42.1641C20.6745 42.4036 20.9349 42.7161 21.1484 43.1016C21.3672 43.4818 21.5339 43.9427 21.6484 44.4844C21.763 45.0208 21.8203 45.6458 21.8203 46.3594ZM19.9375 48.4844V46.0781C19.9375 45.625 19.9115 45.2266 19.8594 44.8828C19.8073 44.5339 19.7292 44.2396 19.625 44C19.526 43.7552 19.401 43.5573 19.25 43.4062C19.099 43.25 18.9271 43.138 18.7344 43.0703C18.5417 42.9974 18.3255 42.9609 18.0859 42.9609C17.7943 42.9609 17.5339 43.0182 17.3047 43.1328C17.0755 43.2422 16.8828 43.4193 16.7266 43.6641C16.5703 43.9089 16.4505 44.2318 16.3672 44.6328C16.2891 45.0286 16.25 45.5104 16.25 46.0781V48.4844C16.25 48.9427 16.276 49.3464 16.3281 49.6953C16.3802 50.0443 16.4583 50.3438 16.5625 50.5938C16.6667 50.8385 16.7917 51.0417 16.9375 51.2031C17.0885 51.3594 17.2604 51.474 17.4531 51.5469C17.651 51.6198 17.8672 51.6562 18.1016 51.6562C18.3984 51.6562 18.6615 51.599 18.8906 51.4844C19.1198 51.3698 19.3125 51.1875 19.4688 50.9375C19.625 50.6823 19.7422 50.3516 19.8203 49.9453C19.8984 49.5391 19.9375 49.0521 19.9375 48.4844ZM30.9141 46.3594V48.2188C30.9141 49.1094 30.8255 49.8698 30.6484 50.5C30.4766 51.125 30.2266 51.6328 29.8984 52.0234C29.5703 52.4141 29.1771 52.7005 28.7188 52.8828C28.2656 53.0651 27.7578 53.1562 27.1953 53.1562C26.7474 53.1562 26.3307 53.099 25.9453 52.9844C25.5651 52.8698 25.2214 52.6901 24.9141 52.4453C24.6068 52.2005 24.3438 51.8854 24.125 51.5C23.9115 51.1094 23.7448 50.6432 23.625 50.1016C23.5104 49.5599 23.4531 48.9323 23.4531 48.2188V46.3594C23.4531 45.4635 23.5417 44.7083 23.7188 44.0938C23.8958 43.474 24.1484 42.9714 24.4766 42.5859C24.8047 42.1953 25.1953 41.9115 25.6484 41.7344C26.1068 41.5573 26.6172 41.4688 27.1797 41.4688C27.6328 41.4688 28.0495 41.526 28.4297 41.6406C28.8151 41.75 29.1589 41.9245 29.4609 42.1641C29.7682 42.4036 30.0286 42.7161 30.2422 43.1016C30.4609 43.4818 30.6276 43.9427 30.7422 44.4844C30.8568 45.0208 30.9141 45.6458 30.9141 46.3594ZM29.0312 48.4844V46.0781C29.0312 45.625 29.0052 45.2266 28.9531 44.8828C28.901 44.5339 28.8229 44.2396 28.7188 44C28.6198 43.7552 28.4948 43.5573 28.3438 43.4062C28.1927 43.25 28.0208 43.138 27.8281 43.0703C27.6354 42.9974 27.4193 42.9609 27.1797 42.9609C26.888 42.9609 26.6276 43.0182 26.3984 43.1328C26.1693 43.2422 25.9766 43.4193 25.8203 43.6641C25.6641 43.9089 25.5443 44.2318 25.4609 44.6328C25.3828 45.0286 25.3438 45.5104 25.3438 46.0781V48.4844C25.3438 48.9427 25.3698 49.3464 25.4219 49.6953C25.474 50.0443 25.5521 50.3438 25.6562 50.5938C25.7604 50.8385 25.8854 51.0417 26.0312 51.2031C26.1823 51.3594 26.3542 51.474 26.5469 51.5469C26.7448 51.6198 26.9609 51.6562 27.1953 51.6562C27.4922 51.6562 27.7552 51.599 27.9844 51.4844C28.2135 51.3698 28.4062 51.1875 28.5625 50.9375C28.7188 50.6823 28.8359 50.3516 28.9141 49.9453C28.9922 49.5391 29.0312 49.0521 29.0312 48.4844ZM40.0078 46.3594V48.2188C40.0078 49.1094 39.9193 49.8698 39.7422 50.5C39.5703 51.125 39.3203 51.6328 38.9922 52.0234C38.6641 52.4141 38.2708 52.7005 37.8125 52.8828C37.3594 53.0651 36.8516 53.1562 36.2891 53.1562C35.8411 53.1562 35.4245 53.099 35.0391 52.9844C34.6589 52.8698 34.3151 52.6901 34.0078 52.4453C33.7005 52.2005 33.4375 51.8854 33.2188 51.5C33.0052 51.1094 32.8385 50.6432 32.7188 50.1016C32.6042 49.5599 32.5469 48.9323 32.5469 48.2188V46.3594C32.5469 45.4635 32.6354 44.7083 32.8125 44.0938C32.9896 43.474 33.2422 42.9714 33.5703 42.5859C33.8984 42.1953 34.2891 41.9115 34.7422 41.7344C35.2005 41.5573 35.7109 41.4688 36.2734 41.4688C36.7266 41.4688 37.1432 41.526 37.5234 41.6406C37.9089 41.75 38.2526 41.9245 38.5547 42.1641C38.862 42.4036 39.1224 42.7161 39.3359 43.1016C39.5547 43.4818 39.7214 43.9427 39.8359 44.4844C39.9505 45.0208 40.0078 45.6458 40.0078 46.3594ZM38.125 48.4844V46.0781C38.125 45.625 38.099 45.2266 38.0469 44.8828C37.9948 44.5339 37.9167 44.2396 37.8125 44C37.7135 43.7552 37.5885 43.5573 37.4375 43.4062C37.2865 43.25 37.1146 43.138 36.9219 43.0703C36.7292 42.9974 36.513 42.9609 36.2734 42.9609C35.9818 42.9609 35.7214 43.0182 35.4922 43.1328C35.263 43.2422 35.0703 43.4193 34.9141 43.6641C34.7578 43.9089 34.638 44.2318 34.5547 44.6328C34.4766 45.0286 34.4375 45.5104 34.4375 46.0781V48.4844C34.4375 48.9427 34.4635 49.3464 34.5156 49.6953C34.5677 50.0443 34.6458 50.3438 34.75 50.5938C34.8542 50.8385 34.9792 51.0417 35.125 51.2031C35.276 51.3594 35.4479 51.474 35.6406 51.5469C35.8385 51.6198 36.0547 51.6562 36.2891 51.6562C36.5859 51.6562 36.849 51.599 37.0781 51.4844C37.3073 51.3698 37.5 51.1875 37.6562 50.9375C37.8125 50.6823 37.9297 50.3516 38.0078 49.9453C38.0859 49.5391 38.125 49.0521 38.125 48.4844ZM49.1016 46.3594V48.2188C49.1016 49.1094 49.013 49.8698 48.8359 50.5C48.6641 51.125 48.4141 51.6328 48.0859 52.0234C47.7578 52.4141 47.3646 52.7005 46.9062 52.8828C46.4531 53.0651 45.9453 53.1562 45.3828 53.1562C44.9349 53.1562 44.5182 53.099 44.1328 52.9844C43.7526 52.8698 43.4089 52.6901 43.1016 52.4453C42.7943 52.2005 42.5312 51.8854 42.3125 51.5C42.099 51.1094 41.9323 50.6432 41.8125 50.1016C41.6979 49.5599 41.6406 48.9323 41.6406 48.2188V46.3594C41.6406 45.4635 41.7292 44.7083 41.9062 44.0938C42.0833 43.474 42.3359 42.9714 42.6641 42.5859C42.9922 42.1953 43.3828 41.9115 43.8359 41.7344C44.2943 41.5573 44.8047 41.4688 45.3672 41.4688C45.8203 41.4688 46.237 41.526 46.6172 41.6406C47.0026 41.75 47.3464 41.9245 47.6484 42.1641C47.9557 42.4036 48.2161 42.7161 48.4297 43.1016C48.6484 43.4818 48.8151 43.9427 48.9297 44.4844C49.0443 45.0208 49.1016 45.6458 49.1016 46.3594ZM47.2188 48.4844V46.0781C47.2188 45.625 47.1927 45.2266 47.1406 44.8828C47.0885 44.5339 47.0104 44.2396 46.9062 44C46.8073 43.7552 46.6823 43.5573 46.5312 43.4062C46.3802 43.25 46.2083 43.138 46.0156 43.0703C45.8229 42.9974 45.6068 42.9609 45.3672 42.9609C45.0755 42.9609 44.8151 43.0182 44.5859 43.1328C44.3568 43.2422 44.1641 43.4193 44.0078 43.6641C43.8516 43.9089 43.7318 44.2318 43.6484 44.6328C43.5703 45.0286 43.5312 45.5104 43.5312 46.0781V48.4844C43.5312 48.9427 43.5573 49.3464 43.6094 49.6953C43.6615 50.0443 43.7396 50.3438 43.8438 50.5938C43.9479 50.8385 44.0729 51.0417 44.2188 51.2031C44.3698 51.3594 44.5417 51.474 44.7344 51.5469C44.9323 51.6198 45.1484 51.6562 45.3828 51.6562C45.6797 51.6562 45.9427 51.599 46.1719 51.4844C46.401 51.3698 46.5938 51.1875 46.75 50.9375C46.9062 50.6823 47.0234 50.3516 47.1016 49.9453C47.1797 49.5391 47.2188 49.0521 47.2188 48.4844ZM55.9219 41.5859V53H54.0391V43.8203L51.25 44.7656V43.2109L55.6953 41.5859H55.9219ZM62.0859 46.4609H63.2109C63.6484 46.4609 64.0104 46.3854 64.2969 46.2344C64.5885 46.0833 64.8047 45.875 64.9453 45.6094C65.0859 45.3438 65.1562 45.0391 65.1562 44.6953C65.1562 44.3359 65.0911 44.0286 64.9609 43.7734C64.8359 43.513 64.6432 43.3125 64.3828 43.1719C64.1276 43.0312 63.8021 42.9609 63.4062 42.9609C63.0729 42.9609 62.7708 43.0286 62.5 43.1641C62.2344 43.2943 62.0234 43.4818 61.8672 43.7266C61.7109 43.9661 61.6328 44.2526 61.6328 44.5859H59.7422C59.7422 43.9818 59.901 43.4453 60.2188 42.9766C60.5365 42.5078 60.9688 42.1406 61.5156 41.875C62.0677 41.6042 62.6875 41.4688 63.375 41.4688C64.1094 41.4688 64.75 41.5911 65.2969 41.8359C65.849 42.0755 66.2786 42.4349 66.5859 42.9141C66.8932 43.3932 67.0469 43.987 67.0469 44.6953C67.0469 45.0182 66.9714 45.3464 66.8203 45.6797C66.6693 46.013 66.4453 46.3177 66.1484 46.5938C65.8516 46.8646 65.4818 47.0859 65.0391 47.2578C64.5964 47.4245 64.0833 47.5078 63.5 47.5078H62.0859V46.4609ZM62.0859 47.9297V46.8984H63.5C64.1667 46.8984 64.7344 46.9766 65.2031 47.1328C65.6771 47.2891 66.0625 47.5052 66.3594 47.7812C66.6562 48.0521 66.8724 48.362 67.0078 48.7109C67.1484 49.0599 67.2188 49.4297 67.2188 49.8203C67.2188 50.3516 67.1224 50.8255 66.9297 51.2422C66.7422 51.6536 66.474 52.0026 66.125 52.2891C65.776 52.5755 65.3672 52.7917 64.8984 52.9375C64.4349 53.0833 63.9297 53.1562 63.3828 53.1562C62.8932 53.1562 62.4245 53.0885 61.9766 52.9531C61.5286 52.8177 61.1276 52.6172 60.7734 52.3516C60.4193 52.0807 60.138 51.7448 59.9297 51.3438C59.7266 50.9375 59.625 50.4688 59.625 49.9375H61.5078C61.5078 50.276 61.5859 50.5755 61.7422 50.8359C61.9036 51.0911 62.1276 51.2917 62.4141 51.4375C62.7057 51.5833 63.0391 51.6562 63.4141 51.6562C63.8099 51.6562 64.151 51.5859 64.4375 51.4453C64.724 51.3047 64.9427 51.0964 65.0938 50.8203C65.25 50.5443 65.3281 50.2109 65.3281 49.8203C65.3281 49.3776 65.2422 49.0182 65.0703 48.7422C64.8984 48.4661 64.6536 48.263 64.3359 48.1328C64.0182 47.9974 63.6432 47.9297 63.2109 47.9297H62.0859ZM77.5156 47.8594H74.6172L74.6016 46.4297H77.1328C77.5599 46.4297 77.9219 46.3672 78.2188 46.2422C78.5208 46.112 78.75 45.9271 78.9062 45.6875C79.0625 45.4427 79.1406 45.1484 79.1406 44.8047C79.1406 44.4245 79.0677 44.1146 78.9219 43.875C78.776 43.6354 78.5521 43.4609 78.25 43.3516C77.9531 43.2422 77.5729 43.1875 77.1094 43.1875H75.2109V53H73.25V41.625H77.1094C77.7344 41.625 78.2917 41.6849 78.7812 41.8047C79.276 41.9245 79.6953 42.112 80.0391 42.3672C80.388 42.6172 80.651 42.9349 80.8281 43.3203C81.0104 43.7057 81.1016 44.1641 81.1016 44.6953C81.1016 45.1641 80.9896 45.5938 80.7656 45.9844C80.5417 46.3698 80.2109 46.6849 79.7734 46.9297C79.3359 47.1745 78.7917 47.3203 78.1406 47.3672L77.5156 47.8594ZM77.4297 53H74L74.8828 51.4453H77.4297C77.8724 51.4453 78.2422 51.3724 78.5391 51.2266C78.8359 51.0755 79.0573 50.8698 79.2031 50.6094C79.3542 50.3438 79.4297 50.0339 79.4297 49.6797C79.4297 49.3099 79.3646 48.9896 79.2344 48.7188C79.1042 48.4427 78.8984 48.2318 78.6172 48.0859C78.3359 47.9349 77.9688 47.8594 77.5156 47.8594H75.3125L75.3281 46.4297H78.1953L78.6406 46.9688C79.2656 46.9896 79.7786 47.1276 80.1797 47.3828C80.5859 47.638 80.888 47.9688 81.0859 48.375C81.2839 48.7812 81.3828 49.2188 81.3828 49.6875C81.3828 50.4115 81.224 51.0182 80.9062 51.5078C80.5938 51.9974 80.1432 52.3698 79.5547 52.625C78.9661 52.875 78.2578 53 77.4297 53ZM87.8203 41.625V53H85.875V41.625H87.8203ZM91.3906 41.625V43.1875H82.3359V41.625H91.3906ZM99.3906 49.2969H101.344C101.281 50.0417 101.073 50.7057 100.719 51.2891C100.365 51.8672 99.8672 52.3229 99.2266 52.6562C98.5859 52.9896 97.8073 53.1562 96.8906 53.1562C96.1875 53.1562 95.5547 53.0312 94.9922 52.7812C94.4297 52.526 93.9479 52.1667 93.5469 51.7031C93.1458 51.2344 92.8385 50.6693 92.625 50.0078C92.4167 49.3464 92.3125 48.6068 92.3125 47.7891V46.8438C92.3125 46.026 92.4193 45.2865 92.6328 44.625C92.8516 43.9635 93.1641 43.3984 93.5703 42.9297C93.9766 42.4557 94.4635 42.0938 95.0312 41.8438C95.6042 41.5938 96.2474 41.4688 96.9609 41.4688C97.8672 41.4688 98.6328 41.6354 99.2578 41.9688C99.8828 42.3021 100.367 42.763 100.711 43.3516C101.06 43.9401 101.273 44.6146 101.352 45.375H99.3984C99.3464 44.8854 99.2318 44.4661 99.0547 44.1172C98.8828 43.7682 98.6276 43.5026 98.2891 43.3203C97.9505 43.1328 97.5078 43.0391 96.9609 43.0391C96.513 43.0391 96.1224 43.1224 95.7891 43.2891C95.4557 43.4557 95.1771 43.7005 94.9531 44.0234C94.7292 44.3464 94.5599 44.7448 94.4453 45.2188C94.3359 45.6875 94.2812 46.224 94.2812 46.8281V47.7891C94.2812 48.362 94.3307 48.8828 94.4297 49.3516C94.5339 49.8151 94.6901 50.2135 94.8984 50.5469C95.112 50.8802 95.3828 51.138 95.7109 51.3203C96.0391 51.5026 96.4323 51.5938 96.8906 51.5938C97.4479 51.5938 97.8984 51.5052 98.2422 51.3281C98.5911 51.151 98.8542 50.8932 99.0312 50.5547C99.2135 50.2109 99.3333 49.7917 99.3906 49.2969Z" fill="#747572"/>
<path d="M162 32.5L175 15.5L185 32.5L200.5 23L213.5 15.5L222.5 3L226.5 23V45L234.5 50L246 45L256.5 36.5L274 23L277.5 3L292 68L304.5 57L316.5 72" stroke="#787AD4" stroke-width="2" stroke-linecap="round"/>
</svg>
