<svg width="389" height="58" viewBox="0 0 389 58" fill="none" xmlns="http://www.w3.org/2000/svg">
<circle cx="129" cy="8" r="6" fill="#FF37AF"/>
<path d="M146.507 10.7646L148.489 3.04688H149.528L149.412 5.03613L147.293 13H146.213L146.507 10.7646ZM145.023 3.04688L146.63 10.7031L146.773 13H145.625L143.321 3.04688H145.023ZM151.777 10.6826L153.363 3.04688H155.072L152.769 13H151.62L151.777 10.6826ZM149.932 3.04688L151.894 10.7852L152.181 13H151.101L149.016 5.03613L148.906 3.04688H149.932ZM157.807 2.5V13H156.166V2.5H157.807ZM157.52 9.02832L156.986 9.02148C156.991 8.51107 157.062 8.03939 157.198 7.60645C157.34 7.1735 157.535 6.79753 157.786 6.47852C158.041 6.15495 158.347 5.90658 158.702 5.7334C159.058 5.55566 159.452 5.4668 159.885 5.4668C160.249 5.4668 160.577 5.51693 160.869 5.61719C161.165 5.71745 161.421 5.87923 161.635 6.10254C161.849 6.32129 162.011 6.6084 162.12 6.96387C162.234 7.31478 162.291 7.74316 162.291 8.24902V13H160.637V8.23535C160.637 7.87988 160.584 7.59733 160.479 7.3877C160.379 7.17806 160.231 7.02767 160.035 6.93652C159.839 6.84082 159.6 6.79297 159.317 6.79297C159.021 6.79297 158.759 6.85221 158.531 6.9707C158.308 7.08919 158.121 7.25098 157.971 7.45605C157.82 7.66113 157.706 7.89811 157.629 8.16699C157.556 8.43587 157.52 8.72298 157.52 9.02832ZM168.129 11.5166V7.98926C168.129 7.72493 168.081 7.49707 167.985 7.30566C167.89 7.11426 167.744 6.96615 167.548 6.86133C167.356 6.75651 167.115 6.7041 166.823 6.7041C166.554 6.7041 166.322 6.74967 166.126 6.84082C165.93 6.93197 165.777 7.05501 165.668 7.20996C165.559 7.36491 165.504 7.54036 165.504 7.73633H163.863C163.863 7.44466 163.934 7.16211 164.075 6.88867C164.216 6.61523 164.422 6.37142 164.69 6.15723C164.959 5.94303 165.281 5.77441 165.654 5.65137C166.028 5.52832 166.447 5.4668 166.912 5.4668C167.468 5.4668 167.96 5.56022 168.389 5.74707C168.822 5.93392 169.161 6.21647 169.407 6.59473C169.658 6.96842 169.783 7.43783 169.783 8.00293V11.291C169.783 11.6283 169.806 11.9313 169.852 12.2002C169.902 12.4645 169.972 12.6947 170.063 12.8906V13H168.375C168.298 12.8223 168.236 12.5967 168.19 12.3232C168.149 12.0452 168.129 11.7764 168.129 11.5166ZM168.368 8.50195L168.382 9.52051H167.199C166.894 9.52051 166.625 9.55013 166.393 9.60938C166.16 9.66406 165.966 9.74609 165.812 9.85547C165.657 9.96484 165.54 10.097 165.463 10.252C165.385 10.4069 165.347 10.5824 165.347 10.7783C165.347 10.9743 165.392 11.1543 165.483 11.3184C165.575 11.4779 165.707 11.6032 165.88 11.6943C166.058 11.7855 166.272 11.8311 166.522 11.8311C166.86 11.8311 167.154 11.7627 167.404 11.626C167.66 11.4847 167.86 11.3138 168.006 11.1133C168.152 10.9082 168.229 10.7145 168.238 10.5322L168.771 11.2637C168.717 11.4505 168.623 11.651 168.491 11.8652C168.359 12.0794 168.186 12.2845 167.972 12.4805C167.762 12.6719 167.509 12.8291 167.213 12.9521C166.921 13.0752 166.584 13.1367 166.201 13.1367C165.718 13.1367 165.287 13.041 164.909 12.8496C164.531 12.6536 164.235 12.3916 164.021 12.0635C163.806 11.7308 163.699 11.3548 163.699 10.9355C163.699 10.5436 163.772 10.1973 163.918 9.89648C164.068 9.59115 164.287 9.33594 164.574 9.13086C164.866 8.92578 165.221 8.77083 165.641 8.66602C166.06 8.55664 166.538 8.50195 167.076 8.50195H168.368ZM173.27 2.5V13H171.615V2.5H173.27ZM178.335 13.1367C177.788 13.1367 177.294 13.0479 176.852 12.8701C176.414 12.6878 176.04 12.4349 175.73 12.1113C175.425 11.7878 175.19 11.4072 175.026 10.9697C174.862 10.5322 174.78 10.0605 174.78 9.55469V9.28125C174.78 8.70247 174.865 8.17839 175.033 7.70898C175.202 7.23958 175.437 6.83854 175.737 6.50586C176.038 6.16862 176.394 5.91113 176.804 5.7334C177.214 5.55566 177.658 5.4668 178.137 5.4668C178.665 5.4668 179.128 5.55566 179.524 5.7334C179.921 5.91113 180.249 6.16178 180.509 6.48535C180.773 6.80436 180.969 7.1849 181.097 7.62695C181.229 8.06901 181.295 8.55664 181.295 9.08984V9.79395H175.58V8.61133H179.668V8.48145C179.659 8.18522 179.6 7.90723 179.49 7.64746C179.385 7.3877 179.224 7.17806 179.005 7.01855C178.786 6.85905 178.494 6.7793 178.13 6.7793C177.856 6.7793 177.613 6.83854 177.398 6.95703C177.189 7.07096 177.013 7.2373 176.872 7.45605C176.731 7.6748 176.621 7.93913 176.544 8.24902C176.471 8.55436 176.435 8.89844 176.435 9.28125V9.55469C176.435 9.87826 176.478 10.179 176.564 10.457C176.656 10.7305 176.788 10.9697 176.961 11.1748C177.134 11.3799 177.344 11.5417 177.59 11.6602C177.836 11.7741 178.116 11.8311 178.431 11.8311C178.827 11.8311 179.18 11.7513 179.49 11.5918C179.8 11.4323 180.069 11.2067 180.297 10.915L181.165 11.7559C181.006 11.9883 180.798 12.2116 180.543 12.4258C180.288 12.6354 179.976 12.8063 179.606 12.9385C179.242 13.0706 178.818 13.1367 178.335 13.1367ZM186.729 10.9971C186.729 10.833 186.688 10.6849 186.606 10.5527C186.524 10.416 186.367 10.293 186.135 10.1836C185.907 10.0742 185.57 9.97396 185.123 9.88281C184.731 9.79622 184.371 9.69368 184.043 9.5752C183.719 9.45215 183.441 9.30404 183.209 9.13086C182.977 8.95768 182.797 8.7526 182.669 8.51562C182.541 8.27865 182.478 8.00521 182.478 7.69531C182.478 7.39453 182.544 7.1097 182.676 6.84082C182.808 6.57194 182.997 6.33496 183.243 6.12988C183.489 5.9248 183.788 5.76302 184.139 5.64453C184.494 5.52604 184.891 5.4668 185.328 5.4668C185.948 5.4668 186.479 5.57161 186.921 5.78125C187.368 5.98633 187.709 6.2666 187.946 6.62207C188.183 6.97298 188.302 7.36947 188.302 7.81152H186.654C186.654 7.61556 186.604 7.43327 186.504 7.26465C186.408 7.09147 186.262 6.95247 186.066 6.84766C185.87 6.73828 185.624 6.68359 185.328 6.68359C185.046 6.68359 184.811 6.72917 184.624 6.82031C184.442 6.9069 184.305 7.02083 184.214 7.16211C184.127 7.30339 184.084 7.45833 184.084 7.62695C184.084 7.75 184.107 7.86165 184.152 7.96191C184.202 8.05762 184.285 8.14648 184.398 8.22852C184.512 8.30599 184.667 8.37891 184.863 8.44727C185.064 8.51562 185.314 8.58171 185.615 8.64551C186.18 8.764 186.666 8.91667 187.071 9.10352C187.481 9.28581 187.796 9.52279 188.015 9.81445C188.233 10.1016 188.343 10.4661 188.343 10.9082C188.343 11.2363 188.272 11.5371 188.131 11.8105C187.994 12.0794 187.794 12.3141 187.529 12.5146C187.265 12.7106 186.948 12.8633 186.579 12.9727C186.215 13.082 185.804 13.1367 185.349 13.1367C184.679 13.1367 184.111 13.0182 183.646 12.7812C183.182 12.5397 182.828 12.2321 182.587 11.8584C182.35 11.4801 182.231 11.0882 182.231 10.6826H183.824C183.842 10.988 183.927 11.2318 184.077 11.4141C184.232 11.5918 184.424 11.7217 184.651 11.8037C184.884 11.8812 185.123 11.9199 185.369 11.9199C185.665 11.9199 185.914 11.8812 186.114 11.8037C186.315 11.7217 186.467 11.6123 186.572 11.4756C186.677 11.3343 186.729 11.1748 186.729 10.9971Z" fill="#FFFFFC"/>
<circle cx="211" cy="8" r="6" fill="#858CFF"/>
<path d="M233.948 7.75V8.29688C233.948 9.04883 233.85 9.72331 233.654 10.3203C233.458 10.9173 233.178 11.4255 232.813 11.8447C232.453 12.264 232.021 12.5853 231.515 12.8086C231.009 13.0273 230.448 13.1367 229.833 13.1367C229.222 13.1367 228.664 13.0273 228.158 12.8086C227.657 12.5853 227.222 12.264 226.853 11.8447C226.483 11.4255 226.196 10.9173 225.991 10.3203C225.791 9.72331 225.69 9.04883 225.69 8.29688V7.75C225.69 6.99805 225.791 6.32585 225.991 5.7334C226.192 5.13639 226.474 4.62826 226.839 4.20898C227.208 3.78516 227.643 3.46387 228.145 3.24512C228.65 3.02181 229.209 2.91016 229.819 2.91016C230.435 2.91016 230.995 3.02181 231.501 3.24512C232.007 3.46387 232.442 3.78516 232.807 4.20898C233.171 4.62826 233.451 5.13639 233.647 5.7334C233.848 6.32585 233.948 6.99805 233.948 7.75ZM232.232 8.29688V7.73633C232.232 7.18034 232.178 6.69043 232.068 6.2666C231.964 5.83822 231.806 5.48047 231.597 5.19336C231.392 4.90169 231.139 4.68294 230.838 4.53711C230.537 4.38672 230.198 4.31152 229.819 4.31152C229.441 4.31152 229.104 4.38672 228.808 4.53711C228.511 4.68294 228.258 4.90169 228.049 5.19336C227.844 5.48047 227.687 5.83822 227.577 6.2666C227.468 6.69043 227.413 7.18034 227.413 7.73633V8.29688C227.413 8.85286 227.468 9.34505 227.577 9.77344C227.687 10.2018 227.846 10.5641 228.056 10.8604C228.27 11.152 228.525 11.373 228.821 11.5234C229.118 11.6693 229.455 11.7422 229.833 11.7422C230.216 11.7422 230.555 11.6693 230.852 11.5234C231.148 11.373 231.398 11.152 231.604 10.8604C231.809 10.5641 231.964 10.2018 232.068 9.77344C232.178 9.34505 232.232 8.85286 232.232 8.29688ZM238.891 5.60352V6.80664H234.721V5.60352H238.891ZM235.924 3.79199H237.571V10.9561C237.571 11.1839 237.603 11.3594 237.667 11.4824C237.735 11.6009 237.829 11.6807 237.947 11.7217C238.066 11.7627 238.205 11.7832 238.364 11.7832C238.478 11.7832 238.588 11.7764 238.692 11.7627C238.797 11.749 238.882 11.7354 238.945 11.7217L238.952 12.9795C238.815 13.0205 238.656 13.057 238.474 13.0889C238.296 13.1208 238.091 13.1367 237.858 13.1367C237.48 13.1367 237.145 13.0706 236.854 12.9385C236.562 12.8018 236.334 12.5807 236.17 12.2754C236.006 11.9701 235.924 11.5645 235.924 11.0586V3.79199ZM241.789 2.5V13H240.148V2.5H241.789ZM241.502 9.02832L240.969 9.02148C240.973 8.51107 241.044 8.03939 241.181 7.60645C241.322 7.1735 241.518 6.79753 241.769 6.47852C242.024 6.15495 242.329 5.90658 242.685 5.7334C243.04 5.55566 243.434 5.4668 243.867 5.4668C244.232 5.4668 244.56 5.51693 244.852 5.61719C245.148 5.71745 245.403 5.87923 245.617 6.10254C245.831 6.32129 245.993 6.6084 246.103 6.96387C246.216 7.31478 246.273 7.74316 246.273 8.24902V13H244.619V8.23535C244.619 7.87988 244.567 7.59733 244.462 7.3877C244.362 7.17806 244.214 7.02767 244.018 6.93652C243.822 6.84082 243.582 6.79297 243.3 6.79297C243.004 6.79297 242.742 6.85221 242.514 6.9707C242.29 7.08919 242.104 7.25098 241.953 7.45605C241.803 7.66113 241.689 7.89811 241.611 8.16699C241.538 8.43587 241.502 8.72298 241.502 9.02832ZM251.202 13.1367C250.655 13.1367 250.161 13.0479 249.719 12.8701C249.281 12.6878 248.908 12.4349 248.598 12.1113C248.292 11.7878 248.058 11.4072 247.894 10.9697C247.729 10.5322 247.647 10.0605 247.647 9.55469V9.28125C247.647 8.70247 247.732 8.17839 247.9 7.70898C248.069 7.23958 248.304 6.83854 248.604 6.50586C248.905 6.16862 249.261 5.91113 249.671 5.7334C250.081 5.55566 250.525 5.4668 251.004 5.4668C251.533 5.4668 251.995 5.55566 252.392 5.7334C252.788 5.91113 253.116 6.16178 253.376 6.48535C253.64 6.80436 253.836 7.1849 253.964 7.62695C254.096 8.06901 254.162 8.55664 254.162 9.08984V9.79395H248.447V8.61133H252.535V8.48145C252.526 8.18522 252.467 7.90723 252.357 7.64746C252.253 7.3877 252.091 7.17806 251.872 7.01855C251.653 6.85905 251.362 6.7793 250.997 6.7793C250.724 6.7793 250.48 6.83854 250.266 6.95703C250.056 7.07096 249.881 7.2373 249.739 7.45605C249.598 7.6748 249.489 7.93913 249.411 8.24902C249.338 8.55436 249.302 8.89844 249.302 9.28125V9.55469C249.302 9.87826 249.345 10.179 249.432 10.457C249.523 10.7305 249.655 10.9697 249.828 11.1748C250.001 11.3799 250.211 11.5417 250.457 11.6602C250.703 11.7741 250.983 11.8311 251.298 11.8311C251.694 11.8311 252.048 11.7513 252.357 11.5918C252.667 11.4323 252.936 11.2067 253.164 10.915L254.032 11.7559C253.873 11.9883 253.665 12.2116 253.41 12.4258C253.155 12.6354 252.843 12.8063 252.474 12.9385C252.109 13.0706 251.685 13.1367 251.202 13.1367ZM257.102 7.01172V13H255.454V5.60352H257.026L257.102 7.01172ZM259.364 5.55566L259.351 7.08691C259.25 7.06868 259.141 7.05501 259.022 7.0459C258.909 7.03678 258.795 7.03223 258.681 7.03223C258.398 7.03223 258.15 7.07324 257.936 7.15527C257.721 7.23275 257.541 7.34668 257.396 7.49707C257.254 7.6429 257.145 7.82064 257.067 8.03027C256.99 8.23991 256.944 8.47461 256.931 8.73438L256.555 8.76172C256.555 8.29688 256.6 7.86621 256.691 7.46973C256.783 7.07324 256.919 6.72461 257.102 6.42383C257.288 6.12305 257.521 5.88835 257.799 5.71973C258.081 5.55111 258.407 5.4668 258.776 5.4668C258.877 5.4668 258.984 5.47591 259.098 5.49414C259.216 5.51237 259.305 5.53288 259.364 5.55566ZM264.546 10.9971C264.546 10.833 264.505 10.6849 264.423 10.5527C264.341 10.416 264.184 10.293 263.951 10.1836C263.723 10.0742 263.386 9.97396 262.939 9.88281C262.548 9.79622 262.188 9.69368 261.859 9.5752C261.536 9.45215 261.258 9.30404 261.025 9.13086C260.793 8.95768 260.613 8.7526 260.485 8.51562C260.358 8.27865 260.294 8.00521 260.294 7.69531C260.294 7.39453 260.36 7.1097 260.492 6.84082C260.624 6.57194 260.813 6.33496 261.06 6.12988C261.306 5.9248 261.604 5.76302 261.955 5.64453C262.311 5.52604 262.707 5.4668 263.145 5.4668C263.764 5.4668 264.295 5.57161 264.737 5.78125C265.184 5.98633 265.526 6.2666 265.763 6.62207C266 6.97298 266.118 7.36947 266.118 7.81152H264.471C264.471 7.61556 264.421 7.43327 264.32 7.26465C264.225 7.09147 264.079 6.95247 263.883 6.84766C263.687 6.73828 263.441 6.68359 263.145 6.68359C262.862 6.68359 262.627 6.72917 262.44 6.82031C262.258 6.9069 262.121 7.02083 262.03 7.16211C261.944 7.30339 261.9 7.45833 261.9 7.62695C261.9 7.75 261.923 7.86165 261.969 7.96191C262.019 8.05762 262.101 8.14648 262.215 8.22852C262.329 8.30599 262.484 8.37891 262.68 8.44727C262.88 8.51562 263.131 8.58171 263.432 8.64551C263.997 8.764 264.482 8.91667 264.888 9.10352C265.298 9.28581 265.612 9.52279 265.831 9.81445C266.05 10.1016 266.159 10.4661 266.159 10.9082C266.159 11.2363 266.089 11.5371 265.947 11.8105C265.811 12.0794 265.61 12.3141 265.346 12.5146C265.081 12.7106 264.765 12.8633 264.396 12.9727C264.031 13.082 263.621 13.1367 263.165 13.1367C262.495 13.1367 261.928 13.0182 261.463 12.7812C260.998 12.5397 260.645 12.2321 260.403 11.8584C260.166 11.4801 260.048 11.0882 260.048 10.6826H261.641C261.659 10.988 261.743 11.2318 261.894 11.4141C262.049 11.5918 262.24 11.7217 262.468 11.8037C262.7 11.8812 262.939 11.9199 263.186 11.9199C263.482 11.9199 263.73 11.8812 263.931 11.8037C264.131 11.7217 264.284 11.6123 264.389 11.4756C264.493 11.3343 264.546 11.1748 264.546 10.9971Z" fill="#FFFFFC"/>
<path d="M2 34H387" stroke="#858CFF" stroke-width="4" stroke-linecap="round"/>
<path d="M2 34H36" stroke="#FF37AF" stroke-width="4" stroke-linecap="round"/>
<path d="M7.25 45.0127V55H5.60254V46.9678L3.16211 47.7949V46.4346L7.05176 45.0127H7.25ZM10.873 54.1797C10.873 53.9245 10.9596 53.7103 11.1328 53.5371C11.306 53.3594 11.5407 53.2705 11.8369 53.2705C12.1377 53.2705 12.3724 53.3594 12.541 53.5371C12.7142 53.7103 12.8008 53.9245 12.8008 54.1797C12.8008 54.4349 12.7142 54.6491 12.541 54.8223C12.3724 54.9954 12.1377 55.082 11.8369 55.082C11.5407 55.082 11.306 54.9954 11.1328 54.8223C10.9596 54.6491 10.873 54.4349 10.873 54.1797ZM21.2773 53.6875V55H14.6055V53.8721L17.8457 50.3379C18.2012 49.9368 18.4814 49.5905 18.6865 49.2988C18.8916 49.0072 19.0352 48.7451 19.1172 48.5127C19.2038 48.2757 19.2471 48.0456 19.2471 47.8223C19.2471 47.5078 19.1878 47.2321 19.0693 46.9951C18.9554 46.7536 18.7868 46.5645 18.5635 46.4277C18.3402 46.2865 18.069 46.2158 17.75 46.2158C17.3809 46.2158 17.071 46.2956 16.8203 46.4551C16.5697 46.6146 16.3805 46.8356 16.2529 47.1182C16.1253 47.3962 16.0615 47.7152 16.0615 48.0752H14.4141C14.4141 47.4964 14.5462 46.9678 14.8105 46.4893C15.0749 46.0062 15.4577 45.6234 15.959 45.3408C16.4603 45.0537 17.0641 44.9102 17.7705 44.9102C18.4359 44.9102 19.001 45.0218 19.4658 45.2451C19.9307 45.4684 20.2839 45.7852 20.5254 46.1953C20.7715 46.6055 20.8945 47.0908 20.8945 47.6514C20.8945 47.9613 20.8444 48.2689 20.7441 48.5742C20.6439 48.8796 20.5003 49.1849 20.3135 49.4902C20.1312 49.791 19.9147 50.0941 19.6641 50.3994C19.4134 50.7002 19.1377 51.0055 18.8369 51.3154L16.6836 53.6875H21.2773ZM24.292 50.3721L22.9795 50.0508L23.5195 45.0469H28.8857V46.4414H24.8867L24.6133 48.8818C24.7682 48.7907 24.9824 48.7018 25.2559 48.6152C25.5293 48.5241 25.8415 48.4785 26.1924 48.4785C26.6618 48.4785 27.0811 48.556 27.4502 48.7109C27.8239 48.8613 28.1406 49.0824 28.4004 49.374C28.6602 49.6611 28.8584 50.012 28.9951 50.4268C29.1318 50.8369 29.2002 51.2995 29.2002 51.8145C29.2002 52.2747 29.1318 52.7054 28.9951 53.1064C28.863 53.5075 28.6624 53.8607 28.3936 54.166C28.1247 54.4714 27.7852 54.7106 27.375 54.8838C26.9694 55.0524 26.4886 55.1367 25.9326 55.1367C25.5179 55.1367 25.1191 55.0775 24.7363 54.959C24.3581 54.8359 24.0186 54.6559 23.7178 54.4189C23.417 54.1774 23.1755 53.8812 22.9932 53.5303C22.8109 53.1748 22.7061 52.7669 22.6787 52.3066H24.292C24.333 52.6302 24.4219 52.9059 24.5586 53.1338C24.6999 53.3571 24.8867 53.528 25.1191 53.6465C25.3516 53.765 25.6204 53.8242 25.9258 53.8242C26.2038 53.8242 26.443 53.7764 26.6436 53.6807C26.8441 53.5804 27.0104 53.4391 27.1426 53.2568C27.2793 53.07 27.3796 52.8512 27.4434 52.6006C27.5117 52.3499 27.5459 52.0719 27.5459 51.7666C27.5459 51.4749 27.5072 51.2083 27.4297 50.9668C27.3568 50.7253 27.2451 50.5156 27.0947 50.3379C26.9489 50.1602 26.7643 50.0234 26.541 49.9277C26.3177 49.8275 26.0602 49.7773 25.7686 49.7773C25.3766 49.7773 25.0758 49.8343 24.8662 49.9482C24.6611 50.0622 24.4697 50.2035 24.292 50.3721ZM30.4512 47.4873V46.9609C30.4512 46.5827 30.5332 46.2386 30.6973 45.9287C30.8613 45.6188 31.1006 45.3704 31.415 45.1836C31.7295 44.9967 32.1077 44.9033 32.5498 44.9033C33.0055 44.9033 33.3883 44.9967 33.6982 45.1836C34.0127 45.3704 34.252 45.6188 34.416 45.9287C34.5801 46.2386 34.6621 46.5827 34.6621 46.9609V47.4873C34.6621 47.8564 34.5801 48.196 34.416 48.5059C34.2565 48.8158 34.0195 49.0641 33.7051 49.251C33.3952 49.4378 33.0146 49.5312 32.5635 49.5312C32.1169 49.5312 31.734 49.4378 31.415 49.251C31.1006 49.0641 30.8613 48.8158 30.6973 48.5059C30.5332 48.196 30.4512 47.8564 30.4512 47.4873ZM31.5928 46.9609V47.4873C31.5928 47.6696 31.627 47.8428 31.6953 48.0068C31.7682 48.1709 31.8776 48.3031 32.0234 48.4033C32.1693 48.5036 32.3493 48.5537 32.5635 48.5537C32.7822 48.5537 32.96 48.5036 33.0967 48.4033C33.238 48.3031 33.3428 48.1709 33.4111 48.0068C33.4795 47.8428 33.5137 47.6696 33.5137 47.4873V46.9609C33.5137 46.7741 33.4772 46.5986 33.4043 46.4346C33.3359 46.266 33.2311 46.1315 33.0898 46.0312C32.9486 45.931 32.7686 45.8809 32.5498 45.8809C32.3402 45.8809 32.1624 45.931 32.0166 46.0312C31.8753 46.1315 31.7682 46.266 31.6953 46.4346C31.627 46.5986 31.5928 46.7741 31.5928 46.9609ZM35.25 53.0928V52.5596C35.25 52.1859 35.332 51.8441 35.4961 51.5342C35.6647 51.2243 35.9062 50.9759 36.2207 50.7891C36.5352 50.6022 36.9134 50.5088 37.3555 50.5088C37.8112 50.5088 38.194 50.6022 38.5039 50.7891C38.8184 50.9759 39.0553 51.2243 39.2148 51.5342C39.3789 51.8441 39.4609 52.1859 39.4609 52.5596V53.0928C39.4609 53.4665 39.3789 53.8083 39.2148 54.1182C39.0553 54.4281 38.8206 54.6764 38.5107 54.8633C38.2008 55.0501 37.8203 55.1436 37.3691 55.1436C36.9225 55.1436 36.5397 55.0501 36.2207 54.8633C35.9062 54.6764 35.6647 54.4281 35.4961 54.1182C35.332 53.8083 35.25 53.4665 35.25 53.0928ZM36.3984 52.5596V53.0928C36.3984 53.2751 36.4349 53.4482 36.5078 53.6123C36.5853 53.7764 36.6969 53.9108 36.8428 54.0156C36.9886 54.1159 37.1641 54.166 37.3691 54.166C37.6016 54.166 37.7884 54.1159 37.9297 54.0156C38.071 53.9108 38.1712 53.7786 38.2305 53.6191C38.2943 53.4551 38.3262 53.2796 38.3262 53.0928V52.5596C38.3262 52.3727 38.2897 52.1973 38.2168 52.0332C38.1484 51.8691 38.0413 51.737 37.8955 51.6367C37.7542 51.5365 37.5742 51.4863 37.3555 51.4863C37.1413 51.4863 36.9635 51.5365 36.8223 51.6367C36.681 51.737 36.5739 51.8691 36.501 52.0332C36.4326 52.1973 36.3984 52.3727 36.3984 52.5596ZM37.7656 46.4688L32.9053 54.248L32.0645 53.7627L36.9248 45.9834L37.7656 46.4688Z" fill="white"/>
<path d="M197.078 53.7012H197.215C197.844 53.7012 198.368 53.6191 198.787 53.4551C199.211 53.2865 199.548 53.054 199.799 52.7578C200.049 52.4616 200.229 52.113 200.339 51.7119C200.448 51.3109 200.503 50.8757 200.503 50.4062V48.6904C200.503 48.2848 200.46 47.9294 200.373 47.624C200.291 47.3141 200.173 47.0566 200.018 46.8516C199.867 46.6419 199.692 46.4847 199.491 46.3799C199.295 46.2751 199.083 46.2227 198.855 46.2227C198.605 46.2227 198.379 46.2796 198.179 46.3936C197.983 46.5029 197.816 46.6556 197.68 46.8516C197.548 47.043 197.445 47.2686 197.372 47.5283C197.304 47.7835 197.27 48.057 197.27 48.3486C197.27 48.6221 197.301 48.8864 197.365 49.1416C197.434 49.3923 197.534 49.6156 197.666 49.8115C197.798 50.0075 197.965 50.1624 198.165 50.2764C198.366 50.3903 198.6 50.4473 198.869 50.4473C199.124 50.4473 199.359 50.3994 199.573 50.3037C199.787 50.2035 199.974 50.069 200.134 49.9004C200.293 49.7318 200.419 49.5426 200.51 49.333C200.601 49.1234 200.651 48.9092 200.66 48.6904L201.289 48.8818C201.289 49.2282 201.216 49.57 201.07 49.9072C200.929 50.2399 200.731 50.5452 200.476 50.8232C200.225 51.0967 199.931 51.3154 199.594 51.4795C199.261 51.6436 198.899 51.7256 198.507 51.7256C198.033 51.7256 197.614 51.6367 197.249 51.459C196.889 51.2767 196.588 51.0306 196.347 50.7207C196.11 50.4108 195.932 50.0553 195.813 49.6543C195.695 49.2533 195.636 48.8317 195.636 48.3896C195.636 47.9111 195.709 47.4622 195.854 47.043C196 46.6237 196.212 46.2546 196.49 45.9355C196.768 45.612 197.105 45.3613 197.502 45.1836C197.903 45.0013 198.356 44.9102 198.862 44.9102C199.4 44.9102 199.872 45.015 200.277 45.2246C200.683 45.4342 201.025 45.7236 201.303 46.0928C201.581 46.4619 201.79 46.8903 201.932 47.3779C202.073 47.8656 202.144 48.3896 202.144 48.9502V49.5312C202.144 50.1191 202.091 50.6865 201.986 51.2334C201.882 51.7757 201.711 52.2793 201.474 52.7441C201.241 53.2044 200.934 53.61 200.551 53.9609C200.173 54.3073 199.708 54.5785 199.156 54.7744C198.609 54.9658 197.967 55.0615 197.229 55.0615H197.078V53.7012ZM210.217 52.2861C210.217 52.9059 210.073 53.4277 209.786 53.8516C209.499 54.2754 209.107 54.5967 208.61 54.8154C208.118 55.0296 207.562 55.1367 206.942 55.1367C206.323 55.1367 205.764 55.0296 205.268 54.8154C204.771 54.5967 204.379 54.2754 204.092 53.8516C203.805 53.4277 203.661 52.9059 203.661 52.2861C203.661 51.876 203.741 51.5046 203.9 51.1719C204.06 50.8346 204.285 50.5452 204.577 50.3037C204.873 50.0576 205.22 49.8685 205.616 49.7363C206.017 49.6042 206.455 49.5381 206.929 49.5381C207.558 49.5381 208.12 49.6543 208.617 49.8867C209.114 50.1191 209.504 50.4404 209.786 50.8506C210.073 51.2607 210.217 51.7393 210.217 52.2861ZM208.562 52.2041C208.562 51.8714 208.494 51.5798 208.357 51.3291C208.221 51.0785 208.029 50.8848 207.783 50.748C207.537 50.6113 207.252 50.543 206.929 50.543C206.601 50.543 206.316 50.6113 206.074 50.748C205.833 50.8848 205.644 51.0785 205.507 51.3291C205.375 51.5798 205.309 51.8714 205.309 52.2041C205.309 52.5413 205.375 52.833 205.507 53.0791C205.639 53.3206 205.828 53.5052 206.074 53.6328C206.32 53.7604 206.61 53.8242 206.942 53.8242C207.275 53.8242 207.562 53.7604 207.804 53.6328C208.045 53.5052 208.232 53.3206 208.364 53.0791C208.496 52.833 208.562 52.5413 208.562 52.2041ZM209.991 47.665C209.991 48.1618 209.859 48.6038 209.595 48.9912C209.335 49.3786 208.975 49.6839 208.515 49.9072C208.054 50.126 207.53 50.2354 206.942 50.2354C206.35 50.2354 205.821 50.126 205.356 49.9072C204.896 49.6839 204.534 49.3786 204.27 48.9912C204.01 48.6038 203.88 48.1618 203.88 47.665C203.88 47.0726 204.01 46.5736 204.27 46.168C204.534 45.7578 204.896 45.4456 205.356 45.2314C205.817 45.0173 206.343 44.9102 206.936 44.9102C207.528 44.9102 208.054 45.0173 208.515 45.2314C208.975 45.4456 209.335 45.7578 209.595 46.168C209.859 46.5736 209.991 47.0726 209.991 47.665ZM208.344 47.7197C208.344 47.4235 208.285 47.1637 208.166 46.9404C208.052 46.7126 207.89 46.5348 207.681 46.4072C207.471 46.2796 207.223 46.2158 206.936 46.2158C206.648 46.2158 206.4 46.2773 206.19 46.4004C205.981 46.5234 205.819 46.6966 205.705 46.9199C205.591 47.1432 205.534 47.4098 205.534 47.7197C205.534 48.0251 205.591 48.2917 205.705 48.5195C205.819 48.7428 205.981 48.9183 206.19 49.0459C206.405 49.1735 206.655 49.2373 206.942 49.2373C207.229 49.2373 207.478 49.1735 207.688 49.0459C207.897 48.9183 208.059 48.7428 208.173 48.5195C208.287 48.2917 208.344 48.0251 208.344 47.7197ZM211.83 54.1797C211.83 53.9245 211.917 53.7103 212.09 53.5371C212.263 53.3594 212.498 53.2705 212.794 53.2705C213.095 53.2705 213.329 53.3594 213.498 53.5371C213.671 53.7103 213.758 53.9245 213.758 54.1797C213.758 54.4349 213.671 54.6491 213.498 54.8223C213.329 54.9954 213.095 55.082 212.794 55.082C212.498 55.082 212.263 54.9954 212.09 54.8223C211.917 54.6491 211.83 54.4349 211.83 54.1797ZM222.173 45.0469V45.9492L218.194 55H216.458L220.43 46.3594H215.275V45.0469H222.173ZM225.249 50.3721L223.937 50.0508L224.477 45.0469H229.843V46.4414H225.844L225.57 48.8818C225.725 48.7907 225.939 48.7018 226.213 48.6152C226.486 48.5241 226.799 48.4785 227.149 48.4785C227.619 48.4785 228.038 48.556 228.407 48.7109C228.781 48.8613 229.098 49.0824 229.357 49.374C229.617 49.6611 229.815 50.012 229.952 50.4268C230.089 50.8369 230.157 51.2995 230.157 51.8145C230.157 52.2747 230.089 52.7054 229.952 53.1064C229.82 53.5075 229.619 53.8607 229.351 54.166C229.082 54.4714 228.742 54.7106 228.332 54.8838C227.926 55.0524 227.446 55.1367 226.89 55.1367C226.475 55.1367 226.076 55.0775 225.693 54.959C225.315 54.8359 224.976 54.6559 224.675 54.4189C224.374 54.1774 224.132 53.8812 223.95 53.5303C223.768 53.1748 223.663 52.7669 223.636 52.3066H225.249C225.29 52.6302 225.379 52.9059 225.516 53.1338C225.657 53.3571 225.844 53.528 226.076 53.6465C226.309 53.765 226.577 53.8242 226.883 53.8242C227.161 53.8242 227.4 53.7764 227.601 53.6807C227.801 53.5804 227.967 53.4391 228.1 53.2568C228.236 53.07 228.337 52.8512 228.4 52.6006C228.469 52.3499 228.503 52.0719 228.503 51.7666C228.503 51.4749 228.464 51.2083 228.387 50.9668C228.314 50.7253 228.202 50.5156 228.052 50.3379C227.906 50.1602 227.721 50.0234 227.498 49.9277C227.275 49.8275 227.017 49.7773 226.726 49.7773C226.334 49.7773 226.033 49.8343 225.823 49.9482C225.618 50.0622 225.427 50.2035 225.249 50.3721ZM231.408 47.4873V46.9609C231.408 46.5827 231.49 46.2386 231.654 45.9287C231.818 45.6188 232.058 45.3704 232.372 45.1836C232.687 44.9967 233.065 44.9033 233.507 44.9033C233.963 44.9033 234.345 44.9967 234.655 45.1836C234.97 45.3704 235.209 45.6188 235.373 45.9287C235.537 46.2386 235.619 46.5827 235.619 46.9609V47.4873C235.619 47.8564 235.537 48.196 235.373 48.5059C235.214 48.8158 234.977 49.0641 234.662 49.251C234.352 49.4378 233.972 49.5312 233.521 49.5312C233.074 49.5312 232.691 49.4378 232.372 49.251C232.058 49.0641 231.818 48.8158 231.654 48.5059C231.49 48.196 231.408 47.8564 231.408 47.4873ZM232.55 46.9609V47.4873C232.55 47.6696 232.584 47.8428 232.652 48.0068C232.725 48.1709 232.835 48.3031 232.98 48.4033C233.126 48.5036 233.306 48.5537 233.521 48.5537C233.739 48.5537 233.917 48.5036 234.054 48.4033C234.195 48.3031 234.3 48.1709 234.368 48.0068C234.437 47.8428 234.471 47.6696 234.471 47.4873V46.9609C234.471 46.7741 234.434 46.5986 234.361 46.4346C234.293 46.266 234.188 46.1315 234.047 46.0312C233.906 45.931 233.726 45.8809 233.507 45.8809C233.297 45.8809 233.119 45.931 232.974 46.0312C232.832 46.1315 232.725 46.266 232.652 46.4346C232.584 46.5986 232.55 46.7741 232.55 46.9609ZM236.207 53.0928V52.5596C236.207 52.1859 236.289 51.8441 236.453 51.5342C236.622 51.2243 236.863 50.9759 237.178 50.7891C237.492 50.6022 237.87 50.5088 238.312 50.5088C238.768 50.5088 239.151 50.6022 239.461 50.7891C239.775 50.9759 240.012 51.2243 240.172 51.5342C240.336 51.8441 240.418 52.1859 240.418 52.5596V53.0928C240.418 53.4665 240.336 53.8083 240.172 54.1182C240.012 54.4281 239.778 54.6764 239.468 54.8633C239.158 55.0501 238.777 55.1436 238.326 55.1436C237.88 55.1436 237.497 55.0501 237.178 54.8633C236.863 54.6764 236.622 54.4281 236.453 54.1182C236.289 53.8083 236.207 53.4665 236.207 53.0928ZM237.355 52.5596V53.0928C237.355 53.2751 237.392 53.4482 237.465 53.6123C237.542 53.7764 237.654 53.9108 237.8 54.0156C237.946 54.1159 238.121 54.166 238.326 54.166C238.559 54.166 238.745 54.1159 238.887 54.0156C239.028 53.9108 239.128 53.7786 239.188 53.6191C239.251 53.4551 239.283 53.2796 239.283 53.0928V52.5596C239.283 52.3727 239.247 52.1973 239.174 52.0332C239.105 51.8691 238.998 51.737 238.853 51.6367C238.711 51.5365 238.531 51.4863 238.312 51.4863C238.098 51.4863 237.921 51.5365 237.779 51.6367C237.638 51.737 237.531 51.8691 237.458 52.0332C237.39 52.1973 237.355 52.3727 237.355 52.5596ZM238.723 46.4688L233.862 54.248L233.021 53.7627L237.882 45.9834L238.723 46.4688Z" fill="white"/>
</svg>
