<svg width="389" height="58" viewBox="0 0 389 58" fill="none" xmlns="http://www.w3.org/2000/svg">
<circle cx="80.5" cy="8" r="5.5" fill="#2529E5" stroke="#2529E5"/>
<path d="M101.391 9.75977H103.1C103.045 10.4115 102.863 10.9925 102.553 11.5029C102.243 12.0088 101.808 12.4076 101.247 12.6992C100.687 12.9909 100.005 13.1367 99.2031 13.1367C98.5879 13.1367 98.0342 13.0273 97.542 12.8086C97.0498 12.5853 96.6283 12.2708 96.2773 11.8652C95.9264 11.4551 95.6576 10.9606 95.4707 10.3818C95.2884 9.80306 95.1973 9.15592 95.1973 8.44043V7.61328C95.1973 6.89779 95.2907 6.25065 95.4775 5.67188C95.6689 5.0931 95.9424 4.59863 96.2979 4.18848C96.6533 3.77376 97.0794 3.45703 97.5762 3.23828C98.0775 3.01953 98.6403 2.91016 99.2646 2.91016C100.058 2.91016 100.728 3.05599 101.274 3.34766C101.821 3.63932 102.245 4.04264 102.546 4.55762C102.851 5.07259 103.038 5.66276 103.106 6.32812H101.397C101.352 5.89974 101.252 5.53288 101.097 5.22754C100.946 4.9222 100.723 4.68978 100.427 4.53027C100.131 4.36621 99.7432 4.28418 99.2646 4.28418C98.8727 4.28418 98.5309 4.3571 98.2393 4.50293C97.9476 4.64876 97.7038 4.86296 97.5078 5.14551C97.3118 5.42806 97.1637 5.77669 97.0635 6.19141C96.9678 6.60156 96.9199 7.07096 96.9199 7.59961V8.44043C96.9199 8.94173 96.9632 9.39746 97.0498 9.80762C97.141 10.2132 97.2777 10.5618 97.46 10.8535C97.6468 11.1452 97.8838 11.3708 98.1709 11.5303C98.458 11.6898 98.8021 11.7695 99.2031 11.7695C99.6908 11.7695 100.085 11.6921 100.386 11.5371C100.691 11.3822 100.921 11.1566 101.076 10.8604C101.236 10.5596 101.34 10.1927 101.391 9.75977ZM106.148 7.01172V13H104.501V5.60352H106.073L106.148 7.01172ZM108.411 5.55566L108.397 7.08691C108.297 7.06868 108.188 7.05501 108.069 7.0459C107.955 7.03678 107.841 7.03223 107.728 7.03223C107.445 7.03223 107.197 7.07324 106.982 7.15527C106.768 7.23275 106.588 7.34668 106.442 7.49707C106.301 7.6429 106.192 7.82064 106.114 8.03027C106.037 8.23991 105.991 8.47461 105.978 8.73438L105.602 8.76172C105.602 8.29688 105.647 7.86621 105.738 7.46973C105.829 7.07324 105.966 6.72461 106.148 6.42383C106.335 6.12305 106.568 5.88835 106.846 5.71973C107.128 5.55111 107.454 5.4668 107.823 5.4668C107.924 5.4668 108.031 5.47591 108.145 5.49414C108.263 5.51237 108.352 5.53288 108.411 5.55566ZM113.894 11.2568V5.60352H115.548V13H113.989L113.894 11.2568ZM114.126 9.71875L114.68 9.70508C114.68 10.2018 114.625 10.6598 114.516 11.0791C114.406 11.4938 114.238 11.8561 114.01 12.166C113.782 12.4714 113.49 12.7106 113.135 12.8838C112.779 13.0524 112.353 13.1367 111.856 13.1367C111.496 13.1367 111.166 13.0843 110.865 12.9795C110.564 12.8747 110.305 12.7129 110.086 12.4941C109.872 12.2754 109.705 11.9906 109.587 11.6396C109.468 11.2887 109.409 10.8695 109.409 10.3818V5.60352H111.057V10.3955C111.057 10.6644 111.089 10.89 111.152 11.0723C111.216 11.25 111.303 11.3936 111.412 11.5029C111.521 11.6123 111.649 11.6898 111.795 11.7354C111.941 11.7809 112.096 11.8037 112.26 11.8037C112.729 11.8037 113.098 11.7126 113.367 11.5303C113.641 11.3434 113.834 11.0928 113.948 10.7783C114.067 10.4639 114.126 10.1107 114.126 9.71875ZM119 5.60352V13H117.346V5.60352H119ZM117.236 3.66211C117.236 3.41146 117.318 3.2041 117.482 3.04004C117.651 2.87142 117.883 2.78711 118.18 2.78711C118.471 2.78711 118.701 2.87142 118.87 3.04004C119.039 3.2041 119.123 3.41146 119.123 3.66211C119.123 3.9082 119.039 4.11328 118.87 4.27734C118.701 4.44141 118.471 4.52344 118.18 4.52344C117.883 4.52344 117.651 4.44141 117.482 4.27734C117.318 4.11328 117.236 3.9082 117.236 3.66211ZM124.954 10.9971C124.954 10.833 124.913 10.6849 124.831 10.5527C124.749 10.416 124.592 10.293 124.359 10.1836C124.132 10.0742 123.794 9.97396 123.348 9.88281C122.956 9.79622 122.596 9.69368 122.268 9.5752C121.944 9.45215 121.666 9.30404 121.434 9.13086C121.201 8.95768 121.021 8.7526 120.894 8.51562C120.766 8.27865 120.702 8.00521 120.702 7.69531C120.702 7.39453 120.768 7.1097 120.9 6.84082C121.033 6.57194 121.222 6.33496 121.468 6.12988C121.714 5.9248 122.012 5.76302 122.363 5.64453C122.719 5.52604 123.115 5.4668 123.553 5.4668C124.173 5.4668 124.703 5.57161 125.146 5.78125C125.592 5.98633 125.934 6.2666 126.171 6.62207C126.408 6.97298 126.526 7.36947 126.526 7.81152H124.879C124.879 7.61556 124.829 7.43327 124.729 7.26465C124.633 7.09147 124.487 6.95247 124.291 6.84766C124.095 6.73828 123.849 6.68359 123.553 6.68359C123.27 6.68359 123.035 6.72917 122.849 6.82031C122.666 6.9069 122.53 7.02083 122.438 7.16211C122.352 7.30339 122.309 7.45833 122.309 7.62695C122.309 7.75 122.331 7.86165 122.377 7.96191C122.427 8.05762 122.509 8.14648 122.623 8.22852C122.737 8.30599 122.892 8.37891 123.088 8.44727C123.288 8.51562 123.539 8.58171 123.84 8.64551C124.405 8.764 124.89 8.91667 125.296 9.10352C125.706 9.28581 126.021 9.52279 126.239 9.81445C126.458 10.1016 126.567 10.4661 126.567 10.9082C126.567 11.2363 126.497 11.5371 126.355 11.8105C126.219 12.0794 126.018 12.3141 125.754 12.5146C125.49 12.7106 125.173 12.8633 124.804 12.9727C124.439 13.082 124.029 13.1367 123.573 13.1367C122.903 13.1367 122.336 13.0182 121.871 12.7812C121.406 12.5397 121.053 12.2321 120.812 11.8584C120.575 11.4801 120.456 11.0882 120.456 10.6826H122.049C122.067 10.988 122.151 11.2318 122.302 11.4141C122.457 11.5918 122.648 11.7217 122.876 11.8037C123.108 11.8812 123.348 11.9199 123.594 11.9199C123.89 11.9199 124.138 11.8812 124.339 11.8037C124.539 11.7217 124.692 11.6123 124.797 11.4756C124.902 11.3343 124.954 11.1748 124.954 10.9971ZM131.271 13.1367C130.724 13.1367 130.229 13.0479 129.787 12.8701C129.35 12.6878 128.976 12.4349 128.666 12.1113C128.361 11.7878 128.126 11.4072 127.962 10.9697C127.798 10.5322 127.716 10.0605 127.716 9.55469V9.28125C127.716 8.70247 127.8 8.17839 127.969 7.70898C128.137 7.23958 128.372 6.83854 128.673 6.50586C128.974 6.16862 129.329 5.91113 129.739 5.7334C130.149 5.55566 130.594 5.4668 131.072 5.4668C131.601 5.4668 132.063 5.55566 132.46 5.7334C132.856 5.91113 133.185 6.16178 133.444 6.48535C133.709 6.80436 133.905 7.1849 134.032 7.62695C134.164 8.06901 134.23 8.55664 134.23 9.08984V9.79395H128.516V8.61133H132.604V8.48145C132.594 8.18522 132.535 7.90723 132.426 7.64746C132.321 7.3877 132.159 7.17806 131.94 7.01855C131.722 6.85905 131.43 6.7793 131.065 6.7793C130.792 6.7793 130.548 6.83854 130.334 6.95703C130.124 7.07096 129.949 7.2373 129.808 7.45605C129.666 7.6748 129.557 7.93913 129.479 8.24902C129.407 8.55436 129.37 8.89844 129.37 9.28125V9.55469C129.37 9.87826 129.413 10.179 129.5 10.457C129.591 10.7305 129.723 10.9697 129.896 11.1748C130.07 11.3799 130.279 11.5417 130.525 11.6602C130.771 11.7741 131.052 11.8311 131.366 11.8311C131.763 11.8311 132.116 11.7513 132.426 11.5918C132.736 11.4323 133.005 11.2067 133.232 10.915L134.101 11.7559C133.941 11.9883 133.734 12.2116 133.479 12.4258C133.223 12.6354 132.911 12.8063 132.542 12.9385C132.177 13.0706 131.754 13.1367 131.271 13.1367ZM137.17 7.01172V13H135.522V5.60352H137.095L137.17 7.01172ZM139.433 5.55566L139.419 7.08691C139.319 7.06868 139.209 7.05501 139.091 7.0459C138.977 7.03678 138.863 7.03223 138.749 7.03223C138.466 7.03223 138.218 7.07324 138.004 7.15527C137.79 7.23275 137.61 7.34668 137.464 7.49707C137.323 7.6429 137.213 7.82064 137.136 8.03027C137.058 8.23991 137.013 8.47461 136.999 8.73438L136.623 8.76172C136.623 8.29688 136.669 7.86621 136.76 7.46973C136.851 7.07324 136.988 6.72461 137.17 6.42383C137.357 6.12305 137.589 5.88835 137.867 5.71973C138.15 5.55111 138.476 5.4668 138.845 5.4668C138.945 5.4668 139.052 5.47591 139.166 5.49414C139.285 5.51237 139.373 5.53288 139.433 5.55566ZM144.614 10.9971C144.614 10.833 144.573 10.6849 144.491 10.5527C144.409 10.416 144.252 10.293 144.02 10.1836C143.792 10.0742 143.454 9.97396 143.008 9.88281C142.616 9.79622 142.256 9.69368 141.928 9.5752C141.604 9.45215 141.326 9.30404 141.094 9.13086C140.861 8.95768 140.681 8.7526 140.554 8.51562C140.426 8.27865 140.362 8.00521 140.362 7.69531C140.362 7.39453 140.428 7.1097 140.561 6.84082C140.693 6.57194 140.882 6.33496 141.128 6.12988C141.374 5.9248 141.673 5.76302 142.023 5.64453C142.379 5.52604 142.775 5.4668 143.213 5.4668C143.833 5.4668 144.364 5.57161 144.806 5.78125C145.252 5.98633 145.594 6.2666 145.831 6.62207C146.068 6.97298 146.187 7.36947 146.187 7.81152H144.539C144.539 7.61556 144.489 7.43327 144.389 7.26465C144.293 7.09147 144.147 6.95247 143.951 6.84766C143.755 6.73828 143.509 6.68359 143.213 6.68359C142.93 6.68359 142.696 6.72917 142.509 6.82031C142.326 6.9069 142.19 7.02083 142.099 7.16211C142.012 7.30339 141.969 7.45833 141.969 7.62695C141.969 7.75 141.992 7.86165 142.037 7.96191C142.087 8.05762 142.169 8.14648 142.283 8.22852C142.397 8.30599 142.552 8.37891 142.748 8.44727C142.949 8.51562 143.199 8.58171 143.5 8.64551C144.065 8.764 144.55 8.91667 144.956 9.10352C145.366 9.28581 145.681 9.52279 145.899 9.81445C146.118 10.1016 146.228 10.4661 146.228 10.9082C146.228 11.2363 146.157 11.5371 146.016 11.8105C145.879 12.0794 145.678 12.3141 145.414 12.5146C145.15 12.7106 144.833 12.8633 144.464 12.9727C144.099 13.082 143.689 13.1367 143.233 13.1367C142.563 13.1367 141.996 13.0182 141.531 12.7812C141.066 12.5397 140.713 12.2321 140.472 11.8584C140.235 11.4801 140.116 11.0882 140.116 10.6826H141.709C141.727 10.988 141.812 11.2318 141.962 11.4141C142.117 11.5918 142.308 11.7217 142.536 11.8037C142.769 11.8812 143.008 11.9199 143.254 11.9199C143.55 11.9199 143.799 11.8812 143.999 11.8037C144.2 11.7217 144.352 11.6123 144.457 11.4756C144.562 11.3343 144.614 11.1748 144.614 10.9971Z" fill="#FFFFFC"/>
<circle cx="169.5" cy="8" r="5.5" fill="#39D246" stroke="#39D246"/>
<path d="M188.606 3.04688V13H186.904V3.04688H188.606ZM191.73 3.04688V4.41406H183.808V3.04688H191.73ZM194.041 7.01172V13H192.394V5.60352H193.966L194.041 7.01172ZM196.304 5.55566L196.29 7.08691C196.19 7.06868 196.08 7.05501 195.962 7.0459C195.848 7.03678 195.734 7.03223 195.62 7.03223C195.338 7.03223 195.089 7.07324 194.875 7.15527C194.661 7.23275 194.481 7.34668 194.335 7.49707C194.194 7.6429 194.084 7.82064 194.007 8.03027C193.929 8.23991 193.884 8.47461 193.87 8.73438L193.494 8.76172C193.494 8.29688 193.54 7.86621 193.631 7.46973C193.722 7.07324 193.859 6.72461 194.041 6.42383C194.228 6.12305 194.46 5.88835 194.738 5.71973C195.021 5.55111 195.347 5.4668 195.716 5.4668C195.816 5.4668 195.923 5.47591 196.037 5.49414C196.156 5.51237 196.244 5.53288 196.304 5.55566ZM201.26 11.5166V7.98926C201.26 7.72493 201.212 7.49707 201.116 7.30566C201.021 7.11426 200.875 6.96615 200.679 6.86133C200.487 6.75651 200.246 6.7041 199.954 6.7041C199.685 6.7041 199.453 6.74967 199.257 6.84082C199.061 6.93197 198.908 7.05501 198.799 7.20996C198.689 7.36491 198.635 7.54036 198.635 7.73633H196.994C196.994 7.44466 197.065 7.16211 197.206 6.88867C197.347 6.61523 197.552 6.37142 197.821 6.15723C198.09 5.94303 198.411 5.77441 198.785 5.65137C199.159 5.52832 199.578 5.4668 200.043 5.4668C200.599 5.4668 201.091 5.56022 201.52 5.74707C201.952 5.93392 202.292 6.21647 202.538 6.59473C202.789 6.96842 202.914 7.43783 202.914 8.00293V11.291C202.914 11.6283 202.937 11.9313 202.982 12.2002C203.033 12.4645 203.103 12.6947 203.194 12.8906V13H201.506C201.428 12.8223 201.367 12.5967 201.321 12.3232C201.28 12.0452 201.26 11.7764 201.26 11.5166ZM201.499 8.50195L201.513 9.52051H200.33C200.025 9.52051 199.756 9.55013 199.523 9.60938C199.291 9.66406 199.097 9.74609 198.942 9.85547C198.787 9.96484 198.671 10.097 198.594 10.252C198.516 10.4069 198.478 10.5824 198.478 10.7783C198.478 10.9743 198.523 11.1543 198.614 11.3184C198.705 11.4779 198.838 11.6032 199.011 11.6943C199.188 11.7855 199.403 11.8311 199.653 11.8311C199.991 11.8311 200.285 11.7627 200.535 11.626C200.79 11.4847 200.991 11.3138 201.137 11.1133C201.283 10.9082 201.36 10.7145 201.369 10.5322L201.902 11.2637C201.848 11.4505 201.754 11.651 201.622 11.8652C201.49 12.0794 201.317 12.2845 201.103 12.4805C200.893 12.6719 200.64 12.8291 200.344 12.9521C200.052 13.0752 199.715 13.1367 199.332 13.1367C198.849 13.1367 198.418 13.041 198.04 12.8496C197.662 12.6536 197.366 12.3916 197.151 12.0635C196.937 11.7308 196.83 11.3548 196.83 10.9355C196.83 10.5436 196.903 10.1973 197.049 9.89648C197.199 9.59115 197.418 9.33594 197.705 9.13086C197.997 8.92578 198.352 8.77083 198.771 8.66602C199.191 8.55664 199.669 8.50195 200.207 8.50195H201.499ZM209.148 11.4688V2.5H210.803V13H209.306L209.148 11.4688ZM204.336 9.38379V9.24023C204.336 8.67969 204.402 8.16927 204.534 7.70898C204.666 7.24414 204.858 6.84538 205.108 6.5127C205.359 6.17546 205.664 5.91797 206.024 5.74023C206.384 5.55794 206.79 5.4668 207.241 5.4668C207.688 5.4668 208.08 5.55339 208.417 5.72656C208.754 5.89974 209.041 6.14811 209.278 6.47168C209.515 6.79069 209.704 7.1735 209.846 7.62012C209.987 8.06217 210.087 8.55436 210.146 9.09668V9.55469C210.087 10.0833 209.987 10.5664 209.846 11.0039C209.704 11.4414 209.515 11.8197 209.278 12.1387C209.041 12.4577 208.752 12.7038 208.41 12.877C208.073 13.0501 207.679 13.1367 207.228 13.1367C206.781 13.1367 206.378 13.0433 206.018 12.8564C205.662 12.6696 205.359 12.4076 205.108 12.0703C204.858 11.7331 204.666 11.3366 204.534 10.8809C204.402 10.4206 204.336 9.92155 204.336 9.38379ZM205.983 9.24023V9.38379C205.983 9.72103 206.013 10.0355 206.072 10.3271C206.136 10.6188 206.234 10.8763 206.366 11.0996C206.498 11.3184 206.669 11.4915 206.879 11.6191C207.093 11.7422 207.348 11.8037 207.645 11.8037C208.018 11.8037 208.326 11.7217 208.567 11.5576C208.809 11.3936 208.998 11.1725 209.135 10.8945C209.276 10.612 209.372 10.2975 209.422 9.95117V8.71387C209.395 8.44499 209.338 8.19434 209.251 7.96191C209.169 7.72949 209.057 7.52669 208.916 7.35352C208.775 7.17578 208.599 7.03906 208.39 6.94336C208.185 6.8431 207.941 6.79297 207.658 6.79297C207.357 6.79297 207.102 6.85677 206.893 6.98438C206.683 7.11198 206.51 7.28743 206.373 7.51074C206.241 7.73405 206.143 7.99382 206.079 8.29004C206.015 8.58626 205.983 8.90299 205.983 9.24023ZM215.786 13.1367C215.239 13.1367 214.745 13.0479 214.303 12.8701C213.865 12.6878 213.492 12.4349 213.182 12.1113C212.876 11.7878 212.642 11.4072 212.478 10.9697C212.313 10.5322 212.231 10.0605 212.231 9.55469V9.28125C212.231 8.70247 212.316 8.17839 212.484 7.70898C212.653 7.23958 212.888 6.83854 213.188 6.50586C213.489 6.16862 213.845 5.91113 214.255 5.7334C214.665 5.55566 215.109 5.4668 215.588 5.4668C216.117 5.4668 216.579 5.55566 216.976 5.7334C217.372 5.91113 217.7 6.16178 217.96 6.48535C218.224 6.80436 218.42 7.1849 218.548 7.62695C218.68 8.06901 218.746 8.55664 218.746 9.08984V9.79395H213.031V8.61133H217.119V8.48145C217.11 8.18522 217.051 7.90723 216.941 7.64746C216.837 7.3877 216.675 7.17806 216.456 7.01855C216.237 6.85905 215.946 6.7793 215.581 6.7793C215.308 6.7793 215.064 6.83854 214.85 6.95703C214.64 7.07096 214.465 7.2373 214.323 7.45605C214.182 7.6748 214.073 7.93913 213.995 8.24902C213.922 8.55436 213.886 8.89844 213.886 9.28125V9.55469C213.886 9.87826 213.929 10.179 214.016 10.457C214.107 10.7305 214.239 10.9697 214.412 11.1748C214.585 11.3799 214.795 11.5417 215.041 11.6602C215.287 11.7741 215.567 11.8311 215.882 11.8311C216.278 11.8311 216.632 11.7513 216.941 11.5918C217.251 11.4323 217.52 11.2067 217.748 10.915L218.616 11.7559C218.457 11.9883 218.249 12.2116 217.994 12.4258C217.739 12.6354 217.427 12.8063 217.058 12.9385C216.693 13.0706 216.269 13.1367 215.786 13.1367ZM221.686 7.01172V13H220.038V5.60352H221.61L221.686 7.01172ZM223.948 5.55566L223.935 7.08691C223.834 7.06868 223.725 7.05501 223.606 7.0459C223.493 7.03678 223.379 7.03223 223.265 7.03223C222.982 7.03223 222.734 7.07324 222.52 7.15527C222.305 7.23275 222.125 7.34668 221.979 7.49707C221.838 7.6429 221.729 7.82064 221.651 8.03027C221.574 8.23991 221.528 8.47461 221.515 8.73438L221.139 8.76172C221.139 8.29688 221.184 7.86621 221.275 7.46973C221.367 7.07324 221.503 6.72461 221.686 6.42383C221.872 6.12305 222.105 5.88835 222.383 5.71973C222.665 5.55111 222.991 5.4668 223.36 5.4668C223.461 5.4668 223.568 5.47591 223.682 5.49414C223.8 5.51237 223.889 5.53288 223.948 5.55566ZM229.13 10.9971C229.13 10.833 229.089 10.6849 229.007 10.5527C228.925 10.416 228.768 10.293 228.535 10.1836C228.307 10.0742 227.97 9.97396 227.523 9.88281C227.132 9.79622 226.771 9.69368 226.443 9.5752C226.12 9.45215 225.842 9.30404 225.609 9.13086C225.377 8.95768 225.197 8.7526 225.069 8.51562C224.942 8.27865 224.878 8.00521 224.878 7.69531C224.878 7.39453 224.944 7.1097 225.076 6.84082C225.208 6.57194 225.397 6.33496 225.644 6.12988C225.89 5.9248 226.188 5.76302 226.539 5.64453C226.895 5.52604 227.291 5.4668 227.729 5.4668C228.348 5.4668 228.879 5.57161 229.321 5.78125C229.768 5.98633 230.11 6.2666 230.347 6.62207C230.584 6.97298 230.702 7.36947 230.702 7.81152H229.055C229.055 7.61556 229.005 7.43327 228.904 7.26465C228.809 7.09147 228.663 6.95247 228.467 6.84766C228.271 6.73828 228.025 6.68359 227.729 6.68359C227.446 6.68359 227.211 6.72917 227.024 6.82031C226.842 6.9069 226.705 7.02083 226.614 7.16211C226.528 7.30339 226.484 7.45833 226.484 7.62695C226.484 7.75 226.507 7.86165 226.553 7.96191C226.603 8.05762 226.685 8.14648 226.799 8.22852C226.913 8.30599 227.068 8.37891 227.264 8.44727C227.464 8.51562 227.715 8.58171 228.016 8.64551C228.581 8.764 229.066 8.91667 229.472 9.10352C229.882 9.28581 230.196 9.52279 230.415 9.81445C230.634 10.1016 230.743 10.4661 230.743 10.9082C230.743 11.2363 230.673 11.5371 230.531 11.8105C230.395 12.0794 230.194 12.3141 229.93 12.5146C229.665 12.7106 229.349 12.8633 228.979 12.9727C228.615 13.082 228.205 13.1367 227.749 13.1367C227.079 13.1367 226.512 13.0182 226.047 12.7812C225.582 12.5397 225.229 12.2321 224.987 11.8584C224.75 11.4801 224.632 11.0882 224.632 10.6826H226.225C226.243 10.988 226.327 11.2318 226.478 11.4141C226.632 11.5918 226.824 11.7217 227.052 11.8037C227.284 11.8812 227.523 11.9199 227.77 11.9199C228.066 11.9199 228.314 11.8812 228.515 11.8037C228.715 11.7217 228.868 11.6123 228.973 11.4756C229.077 11.3343 229.13 11.1748 229.13 10.9971Z" fill="#FFFFFC"/>
<circle cx="253.5" cy="8" r="6" fill="#F3913A"/>
<path d="M275.088 7.20312V8.56348H269.804V7.20312H275.088ZM270.228 3.04688V13H268.512V3.04688H270.228ZM276.407 3.04688V13H274.698V3.04688H276.407ZM277.973 9.38379V9.22656C277.973 8.69336 278.05 8.19889 278.205 7.74316C278.36 7.28288 278.583 6.88411 278.875 6.54688C279.171 6.20508 279.531 5.94076 279.955 5.75391C280.383 5.5625 280.867 5.4668 281.404 5.4668C281.947 5.4668 282.43 5.5625 282.854 5.75391C283.282 5.94076 283.644 6.20508 283.94 6.54688C284.237 6.88411 284.462 7.28288 284.617 7.74316C284.772 8.19889 284.85 8.69336 284.85 9.22656V9.38379C284.85 9.91699 284.772 10.4115 284.617 10.8672C284.462 11.3229 284.237 11.7217 283.94 12.0635C283.644 12.4007 283.284 12.665 282.86 12.8564C282.437 13.0433 281.956 13.1367 281.418 13.1367C280.876 13.1367 280.39 13.0433 279.962 12.8564C279.538 12.665 279.178 12.4007 278.882 12.0635C278.586 11.7217 278.36 11.3229 278.205 10.8672C278.05 10.4115 277.973 9.91699 277.973 9.38379ZM279.62 9.22656V9.38379C279.62 9.71647 279.654 10.0309 279.723 10.3271C279.791 10.6234 279.898 10.8831 280.044 11.1064C280.19 11.3298 280.377 11.5052 280.604 11.6328C280.832 11.7604 281.104 11.8242 281.418 11.8242C281.723 11.8242 281.988 11.7604 282.211 11.6328C282.439 11.5052 282.626 11.3298 282.771 11.1064C282.917 10.8831 283.024 10.6234 283.093 10.3271C283.166 10.0309 283.202 9.71647 283.202 9.38379V9.22656C283.202 8.89844 283.166 8.58854 283.093 8.29688C283.024 8.00065 282.915 7.73861 282.765 7.51074C282.619 7.28288 282.432 7.10514 282.204 6.97754C281.981 6.84538 281.714 6.7793 281.404 6.7793C281.094 6.7793 280.826 6.84538 280.598 6.97754C280.374 7.10514 280.19 7.28288 280.044 7.51074C279.898 7.73861 279.791 8.00065 279.723 8.29688C279.654 8.58854 279.62 8.89844 279.62 9.22656ZM287.994 2.5V13H286.34V2.5H287.994ZM294.311 11.4688V2.5H295.965V13H294.468L294.311 11.4688ZM289.498 9.38379V9.24023C289.498 8.67969 289.564 8.16927 289.696 7.70898C289.828 7.24414 290.02 6.84538 290.271 6.5127C290.521 6.17546 290.826 5.91797 291.187 5.74023C291.547 5.55794 291.952 5.4668 292.403 5.4668C292.85 5.4668 293.242 5.55339 293.579 5.72656C293.916 5.89974 294.203 6.14811 294.44 6.47168C294.677 6.79069 294.867 7.1735 295.008 7.62012C295.149 8.06217 295.249 8.55436 295.309 9.09668V9.55469C295.249 10.0833 295.149 10.5664 295.008 11.0039C294.867 11.4414 294.677 11.8197 294.44 12.1387C294.203 12.4577 293.914 12.7038 293.572 12.877C293.235 13.0501 292.841 13.1367 292.39 13.1367C291.943 13.1367 291.54 13.0433 291.18 12.8564C290.824 12.6696 290.521 12.4076 290.271 12.0703C290.02 11.7331 289.828 11.3366 289.696 10.8809C289.564 10.4206 289.498 9.92155 289.498 9.38379ZM291.146 9.24023V9.38379C291.146 9.72103 291.175 10.0355 291.234 10.3271C291.298 10.6188 291.396 10.8763 291.528 11.0996C291.66 11.3184 291.831 11.4915 292.041 11.6191C292.255 11.7422 292.51 11.8037 292.807 11.8037C293.18 11.8037 293.488 11.7217 293.729 11.5576C293.971 11.3936 294.16 11.1725 294.297 10.8945C294.438 10.612 294.534 10.2975 294.584 9.95117V8.71387C294.557 8.44499 294.5 8.19434 294.413 7.96191C294.331 7.72949 294.219 7.52669 294.078 7.35352C293.937 7.17578 293.761 7.03906 293.552 6.94336C293.347 6.8431 293.103 6.79297 292.82 6.79297C292.52 6.79297 292.264 6.85677 292.055 6.98438C291.845 7.11198 291.672 7.28743 291.535 7.51074C291.403 7.73405 291.305 7.99382 291.241 8.29004C291.177 8.58626 291.146 8.90299 291.146 9.24023ZM300.948 13.1367C300.401 13.1367 299.907 13.0479 299.465 12.8701C299.027 12.6878 298.654 12.4349 298.344 12.1113C298.038 11.7878 297.804 11.4072 297.64 10.9697C297.476 10.5322 297.394 10.0605 297.394 9.55469V9.28125C297.394 8.70247 297.478 8.17839 297.646 7.70898C297.815 7.23958 298.05 6.83854 298.351 6.50586C298.651 6.16862 299.007 5.91113 299.417 5.7334C299.827 5.55566 300.271 5.4668 300.75 5.4668C301.279 5.4668 301.741 5.55566 302.138 5.7334C302.534 5.91113 302.862 6.16178 303.122 6.48535C303.386 6.80436 303.582 7.1849 303.71 7.62695C303.842 8.06901 303.908 8.55664 303.908 9.08984V9.79395H298.193V8.61133H302.281V8.48145C302.272 8.18522 302.213 7.90723 302.104 7.64746C301.999 7.3877 301.837 7.17806 301.618 7.01855C301.399 6.85905 301.108 6.7793 300.743 6.7793C300.47 6.7793 300.226 6.83854 300.012 6.95703C299.802 7.07096 299.627 7.2373 299.485 7.45605C299.344 7.6748 299.235 7.93913 299.157 8.24902C299.084 8.55436 299.048 8.89844 299.048 9.28125V9.55469C299.048 9.87826 299.091 10.179 299.178 10.457C299.269 10.7305 299.401 10.9697 299.574 11.1748C299.747 11.3799 299.957 11.5417 300.203 11.6602C300.449 11.7741 300.729 11.8311 301.044 11.8311C301.44 11.8311 301.794 11.7513 302.104 11.5918C302.413 11.4323 302.682 11.2067 302.91 10.915L303.778 11.7559C303.619 11.9883 303.411 12.2116 303.156 12.4258C302.901 12.6354 302.589 12.8063 302.22 12.9385C301.855 13.0706 301.431 13.1367 300.948 13.1367ZM306.848 7.01172V13H305.2V5.60352H306.772L306.848 7.01172ZM309.11 5.55566L309.097 7.08691C308.996 7.06868 308.887 7.05501 308.769 7.0459C308.655 7.03678 308.541 7.03223 308.427 7.03223C308.144 7.03223 307.896 7.07324 307.682 7.15527C307.467 7.23275 307.287 7.34668 307.142 7.49707C307 7.6429 306.891 7.82064 306.813 8.03027C306.736 8.23991 306.69 8.47461 306.677 8.73438L306.301 8.76172C306.301 8.29688 306.346 7.86621 306.438 7.46973C306.529 7.07324 306.665 6.72461 306.848 6.42383C307.035 6.12305 307.267 5.88835 307.545 5.71973C307.827 5.55111 308.153 5.4668 308.522 5.4668C308.623 5.4668 308.73 5.47591 308.844 5.49414C308.962 5.51237 309.051 5.53288 309.11 5.55566ZM314.292 10.9971C314.292 10.833 314.251 10.6849 314.169 10.5527C314.087 10.416 313.93 10.293 313.697 10.1836C313.469 10.0742 313.132 9.97396 312.686 9.88281C312.294 9.79622 311.934 9.69368 311.605 9.5752C311.282 9.45215 311.004 9.30404 310.771 9.13086C310.539 8.95768 310.359 8.7526 310.231 8.51562C310.104 8.27865 310.04 8.00521 310.04 7.69531C310.04 7.39453 310.106 7.1097 310.238 6.84082C310.37 6.57194 310.56 6.33496 310.806 6.12988C311.052 5.9248 311.35 5.76302 311.701 5.64453C312.057 5.52604 312.453 5.4668 312.891 5.4668C313.51 5.4668 314.041 5.57161 314.483 5.78125C314.93 5.98633 315.272 6.2666 315.509 6.62207C315.746 6.97298 315.864 7.36947 315.864 7.81152H314.217C314.217 7.61556 314.167 7.43327 314.066 7.26465C313.971 7.09147 313.825 6.95247 313.629 6.84766C313.433 6.73828 313.187 6.68359 312.891 6.68359C312.608 6.68359 312.373 6.72917 312.187 6.82031C312.004 6.9069 311.868 7.02083 311.776 7.16211C311.69 7.30339 311.646 7.45833 311.646 7.62695C311.646 7.75 311.669 7.86165 311.715 7.96191C311.765 8.05762 311.847 8.14648 311.961 8.22852C312.075 8.30599 312.23 8.37891 312.426 8.44727C312.626 8.51562 312.877 8.58171 313.178 8.64551C313.743 8.764 314.228 8.91667 314.634 9.10352C315.044 9.28581 315.358 9.52279 315.577 9.81445C315.796 10.1016 315.905 10.4661 315.905 10.9082C315.905 11.2363 315.835 11.5371 315.693 11.8105C315.557 12.0794 315.356 12.3141 315.092 12.5146C314.827 12.7106 314.511 12.8633 314.142 12.9727C313.777 13.082 313.367 13.1367 312.911 13.1367C312.241 13.1367 311.674 13.0182 311.209 12.7812C310.744 12.5397 310.391 12.2321 310.149 11.8584C309.912 11.4801 309.794 11.0882 309.794 10.6826H311.387C311.405 10.988 311.489 11.2318 311.64 11.4141C311.795 11.5918 311.986 11.7217 312.214 11.8037C312.446 11.8812 312.686 11.9199 312.932 11.9199C313.228 11.9199 313.476 11.8812 313.677 11.8037C313.877 11.7217 314.03 11.6123 314.135 11.4756C314.24 11.3343 314.292 11.1748 314.292 10.9971Z" fill="#FFFFFC"/>
<path d="M2 34H387" stroke="#F3913A" stroke-width="4" stroke-linecap="round"/>
<path d="M2 34H168" stroke="#39D246" stroke-width="4" stroke-linecap="round"/>
<path d="M2 34H135" stroke="#2529E5" stroke-width="4" stroke-linecap="round"/>
<path d="M52.4238 53.6875V55H45.752V53.8721L48.9922 50.3379C49.3477 49.9368 49.6279 49.5905 49.833 49.2988C50.0381 49.0072 50.1816 48.7451 50.2637 48.5127C50.3503 48.2757 50.3936 48.0456 50.3936 47.8223C50.3936 47.5078 50.3343 47.2321 50.2158 46.9951C50.1019 46.7536 49.9333 46.5645 49.71 46.4277C49.4867 46.2865 49.2155 46.2158 48.8965 46.2158C48.5273 46.2158 48.2174 46.2956 47.9668 46.4551C47.7161 46.6146 47.527 46.8356 47.3994 47.1182C47.2718 47.3962 47.208 47.7152 47.208 48.0752H45.5605C45.5605 47.4964 45.6927 46.9678 45.957 46.4893C46.2214 46.0062 46.6042 45.6234 47.1055 45.3408C47.6068 45.0537 48.2106 44.9102 48.917 44.9102C49.5824 44.9102 50.1475 45.0218 50.6123 45.2451C51.0771 45.4684 51.4303 45.7852 51.6719 46.1953C51.918 46.6055 52.041 47.0908 52.041 47.6514C52.041 47.9613 51.9909 48.2689 51.8906 48.5742C51.7904 48.8796 51.6468 49.1849 51.46 49.4902C51.2777 49.791 51.0612 50.0941 50.8105 50.3994C50.5599 50.7002 50.2842 51.0055 49.9834 51.3154L47.8301 53.6875H52.4238ZM58.207 45.0127V55H56.5596V46.9678L54.1191 47.7949V46.4346L58.0088 45.0127H58.207ZM61.8301 54.1797C61.8301 53.9245 61.9167 53.7103 62.0898 53.5371C62.263 53.3594 62.4977 53.2705 62.7939 53.2705C63.0947 53.2705 63.3294 53.3594 63.498 53.5371C63.6712 53.7103 63.7578 53.9245 63.7578 54.1797C63.7578 54.4349 63.6712 54.6491 63.498 54.8223C63.3294 54.9954 63.0947 55.082 62.7939 55.082C62.4977 55.082 62.263 54.9954 62.0898 54.8223C61.9167 54.6491 61.8301 54.4349 61.8301 54.1797ZM66.8887 53.7012H67.0254C67.6543 53.7012 68.1784 53.6191 68.5977 53.4551C69.0215 53.2865 69.3587 53.054 69.6094 52.7578C69.86 52.4616 70.04 52.113 70.1494 51.7119C70.2588 51.3109 70.3135 50.8757 70.3135 50.4062V48.6904C70.3135 48.2848 70.2702 47.9294 70.1836 47.624C70.1016 47.3141 69.9831 47.0566 69.8281 46.8516C69.6777 46.6419 69.5023 46.4847 69.3018 46.3799C69.1058 46.2751 68.8939 46.2227 68.666 46.2227C68.4154 46.2227 68.1898 46.2796 67.9893 46.3936C67.7933 46.5029 67.627 46.6556 67.4902 46.8516C67.3581 47.043 67.2555 47.2686 67.1826 47.5283C67.1143 47.7835 67.0801 48.057 67.0801 48.3486C67.0801 48.6221 67.112 48.8864 67.1758 49.1416C67.2441 49.3923 67.3444 49.6156 67.4766 49.8115C67.6087 50.0075 67.7751 50.1624 67.9756 50.2764C68.1761 50.3903 68.4108 50.4473 68.6797 50.4473C68.9349 50.4473 69.1696 50.3994 69.3838 50.3037C69.598 50.2035 69.7848 50.069 69.9443 49.9004C70.1038 49.7318 70.2292 49.5426 70.3203 49.333C70.4115 49.1234 70.4616 48.9092 70.4707 48.6904L71.0996 48.8818C71.0996 49.2282 71.0267 49.57 70.8809 49.9072C70.7396 50.2399 70.5413 50.5452 70.2861 50.8232C70.0355 51.0967 69.7415 51.3154 69.4043 51.4795C69.0716 51.6436 68.7093 51.7256 68.3174 51.7256C67.8434 51.7256 67.4242 51.6367 67.0596 51.459C66.6995 51.2767 66.3988 51.0306 66.1572 50.7207C65.9202 50.4108 65.7425 50.0553 65.624 49.6543C65.5055 49.2533 65.4463 48.8317 65.4463 48.3896C65.4463 47.9111 65.5192 47.4622 65.665 47.043C65.8109 46.6237 66.0228 46.2546 66.3008 45.9355C66.5788 45.612 66.916 45.3613 67.3125 45.1836C67.7135 45.0013 68.167 44.9102 68.6729 44.9102C69.2106 44.9102 69.6823 45.015 70.0879 45.2246C70.4935 45.4342 70.8353 45.7236 71.1133 46.0928C71.3913 46.4619 71.6009 46.8903 71.7422 47.3779C71.8835 47.8656 71.9541 48.3896 71.9541 48.9502V49.5312C71.9541 50.1191 71.9017 50.6865 71.7969 51.2334C71.6921 51.7757 71.5212 52.2793 71.2842 52.7441C71.0518 53.2044 70.7441 53.61 70.3613 53.9609C69.9831 54.3073 69.5182 54.5785 68.9668 54.7744C68.4199 54.9658 67.7773 55.0615 67.0391 55.0615H66.8887V53.7012ZM80.0068 49.1895V50.8164C80.0068 51.5957 79.9294 52.2611 79.7744 52.8125C79.624 53.3594 79.4053 53.8037 79.1182 54.1455C78.8311 54.4873 78.487 54.738 78.0859 54.8975C77.6895 55.057 77.2451 55.1367 76.7529 55.1367C76.361 55.1367 75.9964 55.0866 75.6592 54.9863C75.3265 54.8861 75.0257 54.7288 74.7568 54.5146C74.488 54.3005 74.2578 54.0247 74.0664 53.6875C73.8796 53.3457 73.7337 52.9378 73.6289 52.4639C73.5286 51.9899 73.4785 51.4408 73.4785 50.8164V49.1895C73.4785 48.4056 73.556 47.7448 73.7109 47.207C73.8659 46.6647 74.0869 46.2249 74.374 45.8877C74.6611 45.5459 75.0029 45.2975 75.3994 45.1426C75.8005 44.9876 76.2471 44.9102 76.7393 44.9102C77.1357 44.9102 77.5003 44.9603 77.833 45.0605C78.1702 45.1562 78.471 45.3089 78.7354 45.5186C79.0042 45.7282 79.2321 46.0016 79.4189 46.3389C79.6104 46.6715 79.7562 47.0749 79.8564 47.5488C79.9567 48.0182 80.0068 48.5651 80.0068 49.1895ZM78.3594 51.0488V48.9434C78.3594 48.5469 78.3366 48.1982 78.291 47.8975C78.2454 47.5921 78.1771 47.3346 78.0859 47.125C77.9993 46.9108 77.89 46.7376 77.7578 46.6055C77.6257 46.4688 77.4753 46.3708 77.3066 46.3115C77.138 46.2477 76.9489 46.2158 76.7393 46.2158C76.484 46.2158 76.2562 46.266 76.0557 46.3662C75.8551 46.4619 75.6865 46.6169 75.5498 46.8311C75.4131 47.0452 75.3083 47.3278 75.2354 47.6787C75.167 48.0251 75.1328 48.4466 75.1328 48.9434V51.0488C75.1328 51.4499 75.1556 51.8031 75.2012 52.1084C75.2467 52.4137 75.3151 52.6758 75.4062 52.8945C75.4974 53.1087 75.6068 53.2865 75.7344 53.4277C75.8665 53.5645 76.0169 53.6647 76.1855 53.7285C76.3587 53.7923 76.5479 53.8242 76.7529 53.8242C77.0127 53.8242 77.2428 53.7741 77.4434 53.6738C77.6439 53.5736 77.8125 53.4141 77.9492 53.1953C78.0859 52.972 78.1885 52.6826 78.2568 52.3271C78.3252 51.9717 78.3594 51.5456 78.3594 51.0488ZM81.4082 47.4873V46.9609C81.4082 46.5827 81.4902 46.2386 81.6543 45.9287C81.8184 45.6188 82.0576 45.3704 82.3721 45.1836C82.6865 44.9967 83.0648 44.9033 83.5068 44.9033C83.9626 44.9033 84.3454 44.9967 84.6553 45.1836C84.9697 45.3704 85.209 45.6188 85.373 45.9287C85.5371 46.2386 85.6191 46.5827 85.6191 46.9609V47.4873C85.6191 47.8564 85.5371 48.196 85.373 48.5059C85.2135 48.8158 84.9766 49.0641 84.6621 49.251C84.3522 49.4378 83.9717 49.5312 83.5205 49.5312C83.0739 49.5312 82.6911 49.4378 82.3721 49.251C82.0576 49.0641 81.8184 48.8158 81.6543 48.5059C81.4902 48.196 81.4082 47.8564 81.4082 47.4873ZM82.5498 46.9609V47.4873C82.5498 47.6696 82.584 47.8428 82.6523 48.0068C82.7253 48.1709 82.8346 48.3031 82.9805 48.4033C83.1263 48.5036 83.3063 48.5537 83.5205 48.5537C83.7393 48.5537 83.917 48.5036 84.0537 48.4033C84.195 48.3031 84.2998 48.1709 84.3682 48.0068C84.4365 47.8428 84.4707 47.6696 84.4707 47.4873V46.9609C84.4707 46.7741 84.4342 46.5986 84.3613 46.4346C84.293 46.266 84.1882 46.1315 84.0469 46.0312C83.9056 45.931 83.7256 45.8809 83.5068 45.8809C83.2972 45.8809 83.1195 45.931 82.9736 46.0312C82.8324 46.1315 82.7253 46.266 82.6523 46.4346C82.584 46.5986 82.5498 46.7741 82.5498 46.9609ZM86.207 53.0928V52.5596C86.207 52.1859 86.2891 51.8441 86.4531 51.5342C86.6217 51.2243 86.8633 50.9759 87.1777 50.7891C87.4922 50.6022 87.8704 50.5088 88.3125 50.5088C88.7682 50.5088 89.151 50.6022 89.4609 50.7891C89.7754 50.9759 90.0124 51.2243 90.1719 51.5342C90.3359 51.8441 90.418 52.1859 90.418 52.5596V53.0928C90.418 53.4665 90.3359 53.8083 90.1719 54.1182C90.0124 54.4281 89.7777 54.6764 89.4678 54.8633C89.1579 55.0501 88.7773 55.1436 88.3262 55.1436C87.8796 55.1436 87.4967 55.0501 87.1777 54.8633C86.8633 54.6764 86.6217 54.4281 86.4531 54.1182C86.2891 53.8083 86.207 53.4665 86.207 53.0928ZM87.3555 52.5596V53.0928C87.3555 53.2751 87.3919 53.4482 87.4648 53.6123C87.5423 53.7764 87.654 53.9108 87.7998 54.0156C87.9456 54.1159 88.1211 54.166 88.3262 54.166C88.5586 54.166 88.7454 54.1159 88.8867 54.0156C89.028 53.9108 89.1283 53.7786 89.1875 53.6191C89.2513 53.4551 89.2832 53.2796 89.2832 53.0928V52.5596C89.2832 52.3727 89.2467 52.1973 89.1738 52.0332C89.1055 51.8691 88.9984 51.737 88.8525 51.6367C88.7113 51.5365 88.5312 51.4863 88.3125 51.4863C88.0983 51.4863 87.9206 51.5365 87.7793 51.6367C87.638 51.737 87.5309 51.8691 87.458 52.0332C87.3896 52.1973 87.3555 52.3727 87.3555 52.5596ZM88.7227 46.4688L83.8623 54.248L83.0215 53.7627L87.8818 45.9834L88.7227 46.4688Z" fill="white"/>
<path d="M142.608 51.4521V52.7646H135.431L135.376 51.7734L139.669 45.0469H140.988L139.56 47.4941L137.092 51.4521H142.608ZM141.364 45.0469V55H139.717V45.0469H141.364ZM143.873 54.1797C143.873 53.9245 143.96 53.7103 144.133 53.5371C144.306 53.3594 144.541 53.2705 144.837 53.2705C145.138 53.2705 145.372 53.3594 145.541 53.5371C145.714 53.7103 145.801 53.9245 145.801 54.1797C145.801 54.4349 145.714 54.6491 145.541 54.8223C145.372 54.9954 145.138 55.082 144.837 55.082C144.541 55.082 144.306 54.9954 144.133 54.8223C143.96 54.6491 143.873 54.4349 143.873 54.1797ZM152.582 44.9854H152.787V46.332H152.671C152.083 46.332 151.575 46.4232 151.146 46.6055C150.723 46.7878 150.374 47.0384 150.101 47.3574C149.827 47.6764 149.622 48.0501 149.485 48.4785C149.353 48.9023 149.287 49.3535 149.287 49.832V51.3975C149.287 51.7939 149.33 52.1449 149.417 52.4502C149.504 52.751 149.624 53.0039 149.779 53.209C149.939 53.4095 150.121 53.5622 150.326 53.667C150.531 53.7718 150.752 53.8242 150.989 53.8242C151.235 53.8242 151.459 53.7741 151.659 53.6738C151.86 53.569 152.031 53.4255 152.172 53.2432C152.313 53.0609 152.42 52.8444 152.493 52.5938C152.566 52.3431 152.603 52.0697 152.603 51.7734C152.603 51.4909 152.566 51.2266 152.493 50.9805C152.425 50.7298 152.322 50.5111 152.186 50.3242C152.049 50.1328 151.878 49.9847 151.673 49.8799C151.472 49.7705 151.24 49.7158 150.976 49.7158C150.647 49.7158 150.349 49.7933 150.08 49.9482C149.816 50.1032 149.602 50.306 149.438 50.5566C149.278 50.8027 149.191 51.0648 149.178 51.3428L148.549 51.1377C148.585 50.7139 148.679 50.3333 148.829 49.9961C148.984 49.6589 149.187 49.3717 149.438 49.1348C149.688 48.8978 149.978 48.7178 150.306 48.5947C150.638 48.4671 151.003 48.4033 151.399 48.4033C151.882 48.4033 152.302 48.4945 152.657 48.6768C153.013 48.859 153.307 49.1074 153.539 49.4219C153.776 49.7318 153.951 50.0872 154.065 50.4883C154.184 50.8848 154.243 51.2995 154.243 51.7324C154.243 52.2109 154.17 52.6576 154.024 53.0723C153.879 53.4824 153.664 53.8424 153.382 54.1523C153.104 54.4622 152.764 54.7038 152.363 54.877C151.967 55.0501 151.516 55.1367 151.01 55.1367C150.477 55.1367 150 55.0342 149.581 54.8291C149.166 54.624 148.813 54.3415 148.521 53.9814C148.234 53.6214 148.016 53.2067 147.865 52.7373C147.715 52.2679 147.64 51.7712 147.64 51.2471V50.5635C147.64 49.807 147.735 49.0938 147.927 48.4238C148.118 47.7493 148.412 47.1546 148.809 46.6396C149.21 46.1247 149.722 45.7214 150.347 45.4297C150.971 45.1335 151.716 44.9854 152.582 44.9854ZM162.05 49.1895V50.8164C162.05 51.5957 161.972 52.2611 161.817 52.8125C161.667 53.3594 161.448 53.8037 161.161 54.1455C160.874 54.4873 160.53 54.738 160.129 54.8975C159.732 55.057 159.288 55.1367 158.796 55.1367C158.404 55.1367 158.039 55.0866 157.702 54.9863C157.369 54.8861 157.069 54.7288 156.8 54.5146C156.531 54.3005 156.301 54.0247 156.109 53.6875C155.923 53.3457 155.777 52.9378 155.672 52.4639C155.572 51.9899 155.521 51.4408 155.521 50.8164V49.1895C155.521 48.4056 155.599 47.7448 155.754 47.207C155.909 46.6647 156.13 46.2249 156.417 45.8877C156.704 45.5459 157.046 45.2975 157.442 45.1426C157.843 44.9876 158.29 44.9102 158.782 44.9102C159.179 44.9102 159.543 44.9603 159.876 45.0605C160.213 45.1562 160.514 45.3089 160.778 45.5186C161.047 45.7282 161.275 46.0016 161.462 46.3389C161.653 46.6715 161.799 47.0749 161.899 47.5488C162 48.0182 162.05 48.5651 162.05 49.1895ZM160.402 51.0488V48.9434C160.402 48.5469 160.38 48.1982 160.334 47.8975C160.288 47.5921 160.22 47.3346 160.129 47.125C160.042 46.9108 159.933 46.7376 159.801 46.6055C159.669 46.4688 159.518 46.3708 159.35 46.3115C159.181 46.2477 158.992 46.2158 158.782 46.2158C158.527 46.2158 158.299 46.266 158.099 46.3662C157.898 46.4619 157.729 46.6169 157.593 46.8311C157.456 47.0452 157.351 47.3278 157.278 47.6787C157.21 48.0251 157.176 48.4466 157.176 48.9434V51.0488C157.176 51.4499 157.199 51.8031 157.244 52.1084C157.29 52.4137 157.358 52.6758 157.449 52.8945C157.54 53.1087 157.65 53.2865 157.777 53.4277C157.91 53.5645 158.06 53.6647 158.229 53.7285C158.402 53.7923 158.591 53.8242 158.796 53.8242C159.056 53.8242 159.286 53.7741 159.486 53.6738C159.687 53.5736 159.855 53.4141 159.992 53.1953C160.129 52.972 160.231 52.6826 160.3 52.3271C160.368 51.9717 160.402 51.5456 160.402 51.0488ZM163.451 47.4873V46.9609C163.451 46.5827 163.533 46.2386 163.697 45.9287C163.861 45.6188 164.101 45.3704 164.415 45.1836C164.729 44.9967 165.108 44.9033 165.55 44.9033C166.006 44.9033 166.388 44.9967 166.698 45.1836C167.013 45.3704 167.252 45.6188 167.416 45.9287C167.58 46.2386 167.662 46.5827 167.662 46.9609V47.4873C167.662 47.8564 167.58 48.196 167.416 48.5059C167.257 48.8158 167.02 49.0641 166.705 49.251C166.395 49.4378 166.015 49.5312 165.563 49.5312C165.117 49.5312 164.734 49.4378 164.415 49.251C164.101 49.0641 163.861 48.8158 163.697 48.5059C163.533 48.196 163.451 47.8564 163.451 47.4873ZM164.593 46.9609V47.4873C164.593 47.6696 164.627 47.8428 164.695 48.0068C164.768 48.1709 164.878 48.3031 165.023 48.4033C165.169 48.5036 165.349 48.5537 165.563 48.5537C165.782 48.5537 165.96 48.5036 166.097 48.4033C166.238 48.3031 166.343 48.1709 166.411 48.0068C166.479 47.8428 166.514 47.6696 166.514 47.4873V46.9609C166.514 46.7741 166.477 46.5986 166.404 46.4346C166.336 46.266 166.231 46.1315 166.09 46.0312C165.949 45.931 165.769 45.8809 165.55 45.8809C165.34 45.8809 165.162 45.931 165.017 46.0312C164.875 46.1315 164.768 46.266 164.695 46.4346C164.627 46.5986 164.593 46.7741 164.593 46.9609ZM168.25 53.0928V52.5596C168.25 52.1859 168.332 51.8441 168.496 51.5342C168.665 51.2243 168.906 50.9759 169.221 50.7891C169.535 50.6022 169.913 50.5088 170.355 50.5088C170.811 50.5088 171.194 50.6022 171.504 50.7891C171.818 50.9759 172.055 51.2243 172.215 51.5342C172.379 51.8441 172.461 52.1859 172.461 52.5596V53.0928C172.461 53.4665 172.379 53.8083 172.215 54.1182C172.055 54.4281 171.821 54.6764 171.511 54.8633C171.201 55.0501 170.82 55.1436 170.369 55.1436C169.923 55.1436 169.54 55.0501 169.221 54.8633C168.906 54.6764 168.665 54.4281 168.496 54.1182C168.332 53.8083 168.25 53.4665 168.25 53.0928ZM169.398 52.5596V53.0928C169.398 53.2751 169.435 53.4482 169.508 53.6123C169.585 53.7764 169.697 53.9108 169.843 54.0156C169.989 54.1159 170.164 54.166 170.369 54.166C170.602 54.166 170.788 54.1159 170.93 54.0156C171.071 53.9108 171.171 53.7786 171.23 53.6191C171.294 53.4551 171.326 53.2796 171.326 53.0928V52.5596C171.326 52.3727 171.29 52.1973 171.217 52.0332C171.148 51.8691 171.041 51.737 170.896 51.6367C170.754 51.5365 170.574 51.4863 170.355 51.4863C170.141 51.4863 169.964 51.5365 169.822 51.6367C169.681 51.737 169.574 51.8691 169.501 52.0332C169.433 52.1973 169.398 52.3727 169.398 52.5596ZM170.766 46.4688L165.905 54.248L165.064 53.7627L169.925 45.9834L170.766 46.4688Z" fill="white"/>
<path d="M256.362 45.0469V45.9492L252.384 55H250.647L254.619 46.3594H249.465V45.0469H256.362ZM259.644 49.2783H260.628C261.011 49.2783 261.327 49.2122 261.578 49.0801C261.833 48.9479 262.022 48.7656 262.146 48.5332C262.269 48.3008 262.33 48.0342 262.33 47.7334C262.33 47.4189 262.273 47.1501 262.159 46.9268C262.05 46.6989 261.881 46.5234 261.653 46.4004C261.43 46.2773 261.145 46.2158 260.799 46.2158C260.507 46.2158 260.243 46.2751 260.006 46.3936C259.773 46.5075 259.589 46.6715 259.452 46.8857C259.315 47.0954 259.247 47.346 259.247 47.6377H257.593C257.593 47.109 257.732 46.6396 258.01 46.2295C258.288 45.8193 258.666 45.498 259.145 45.2656C259.628 45.0286 260.17 44.9102 260.771 44.9102C261.414 44.9102 261.975 45.0173 262.453 45.2314C262.936 45.4411 263.312 45.7555 263.581 46.1748C263.85 46.5941 263.984 47.1136 263.984 47.7334C263.984 48.016 263.918 48.3031 263.786 48.5947C263.654 48.8864 263.458 49.153 263.198 49.3945C262.938 49.6315 262.615 49.8252 262.228 49.9756C261.84 50.1214 261.391 50.1943 260.881 50.1943H259.644V49.2783ZM259.644 50.5635V49.6611H260.881C261.464 49.6611 261.961 49.7295 262.371 49.8662C262.786 50.0029 263.123 50.1921 263.383 50.4336C263.643 50.6706 263.832 50.9417 263.95 51.2471C264.073 51.5524 264.135 51.876 264.135 52.2178C264.135 52.6826 264.05 53.0973 263.882 53.4619C263.718 53.8219 263.483 54.1273 263.178 54.3779C262.872 54.6286 262.515 54.8177 262.104 54.9453C261.699 55.0729 261.257 55.1367 260.778 55.1367C260.35 55.1367 259.94 55.0775 259.548 54.959C259.156 54.8405 258.805 54.665 258.495 54.4326C258.185 54.1956 257.939 53.9017 257.757 53.5508C257.579 53.1953 257.49 52.7852 257.49 52.3203H259.138C259.138 52.6165 259.206 52.8786 259.343 53.1064C259.484 53.3298 259.68 53.5052 259.931 53.6328C260.186 53.7604 260.478 53.8242 260.806 53.8242C261.152 53.8242 261.451 53.7627 261.701 53.6396C261.952 53.5166 262.143 53.3343 262.275 53.0928C262.412 52.8512 262.48 52.5596 262.48 52.2178C262.48 51.8304 262.405 51.516 262.255 51.2744C262.104 51.0329 261.89 50.8551 261.612 50.7412C261.334 50.6227 261.006 50.5635 260.628 50.5635H259.644ZM265.83 54.1797C265.83 53.9245 265.917 53.7103 266.09 53.5371C266.263 53.3594 266.498 53.2705 266.794 53.2705C267.095 53.2705 267.329 53.3594 267.498 53.5371C267.671 53.7103 267.758 53.9245 267.758 54.1797C267.758 54.4349 267.671 54.6491 267.498 54.8223C267.329 54.9954 267.095 55.082 266.794 55.082C266.498 55.082 266.263 54.9954 266.09 54.8223C265.917 54.6491 265.83 54.4349 265.83 54.1797ZM271.292 50.3721L269.979 50.0508L270.52 45.0469H275.886V46.4414H271.887L271.613 48.8818C271.768 48.7907 271.982 48.7018 272.256 48.6152C272.529 48.5241 272.841 48.4785 273.192 48.4785C273.662 48.4785 274.081 48.556 274.45 48.7109C274.824 48.8613 275.141 49.0824 275.4 49.374C275.66 49.6611 275.858 50.012 275.995 50.4268C276.132 50.8369 276.2 51.2995 276.2 51.8145C276.2 52.2747 276.132 52.7054 275.995 53.1064C275.863 53.5075 275.662 53.8607 275.394 54.166C275.125 54.4714 274.785 54.7106 274.375 54.8838C273.969 55.0524 273.489 55.1367 272.933 55.1367C272.518 55.1367 272.119 55.0775 271.736 54.959C271.358 54.8359 271.019 54.6559 270.718 54.4189C270.417 54.1774 270.175 53.8812 269.993 53.5303C269.811 53.1748 269.706 52.7669 269.679 52.3066H271.292C271.333 52.6302 271.422 52.9059 271.559 53.1338C271.7 53.3571 271.887 53.528 272.119 53.6465C272.352 53.765 272.62 53.8242 272.926 53.8242C273.204 53.8242 273.443 53.7764 273.644 53.6807C273.844 53.5804 274.01 53.4391 274.143 53.2568C274.279 53.07 274.38 52.8512 274.443 52.6006C274.512 52.3499 274.546 52.0719 274.546 51.7666C274.546 51.4749 274.507 51.2083 274.43 50.9668C274.357 50.7253 274.245 50.5156 274.095 50.3379C273.949 50.1602 273.764 50.0234 273.541 49.9277C273.318 49.8275 273.06 49.7773 272.769 49.7773C272.377 49.7773 272.076 49.8343 271.866 49.9482C271.661 50.0622 271.47 50.2035 271.292 50.3721ZM284.007 49.1895V50.8164C284.007 51.5957 283.929 52.2611 283.774 52.8125C283.624 53.3594 283.405 53.8037 283.118 54.1455C282.831 54.4873 282.487 54.738 282.086 54.8975C281.689 55.057 281.245 55.1367 280.753 55.1367C280.361 55.1367 279.996 55.0866 279.659 54.9863C279.326 54.8861 279.026 54.7288 278.757 54.5146C278.488 54.3005 278.258 54.0247 278.066 53.6875C277.88 53.3457 277.734 52.9378 277.629 52.4639C277.529 51.9899 277.479 51.4408 277.479 50.8164V49.1895C277.479 48.4056 277.556 47.7448 277.711 47.207C277.866 46.6647 278.087 46.2249 278.374 45.8877C278.661 45.5459 279.003 45.2975 279.399 45.1426C279.8 44.9876 280.247 44.9102 280.739 44.9102C281.136 44.9102 281.5 44.9603 281.833 45.0605C282.17 45.1562 282.471 45.3089 282.735 45.5186C283.004 45.7282 283.232 46.0016 283.419 46.3389C283.61 46.6715 283.756 47.0749 283.856 47.5488C283.957 48.0182 284.007 48.5651 284.007 49.1895ZM282.359 51.0488V48.9434C282.359 48.5469 282.337 48.1982 282.291 47.8975C282.245 47.5921 282.177 47.3346 282.086 47.125C281.999 46.9108 281.89 46.7376 281.758 46.6055C281.626 46.4688 281.475 46.3708 281.307 46.3115C281.138 46.2477 280.949 46.2158 280.739 46.2158C280.484 46.2158 280.256 46.266 280.056 46.3662C279.855 46.4619 279.687 46.6169 279.55 46.8311C279.413 47.0452 279.308 47.3278 279.235 47.6787C279.167 48.0251 279.133 48.4466 279.133 48.9434V51.0488C279.133 51.4499 279.156 51.8031 279.201 52.1084C279.247 52.4137 279.315 52.6758 279.406 52.8945C279.497 53.1087 279.607 53.2865 279.734 53.4277C279.867 53.5645 280.017 53.6647 280.186 53.7285C280.359 53.7923 280.548 53.8242 280.753 53.8242C281.013 53.8242 281.243 53.7741 281.443 53.6738C281.644 53.5736 281.812 53.4141 281.949 53.1953C282.086 52.972 282.188 52.6826 282.257 52.3271C282.325 51.9717 282.359 51.5456 282.359 51.0488ZM285.408 47.4873V46.9609C285.408 46.5827 285.49 46.2386 285.654 45.9287C285.818 45.6188 286.058 45.3704 286.372 45.1836C286.687 44.9967 287.065 44.9033 287.507 44.9033C287.963 44.9033 288.345 44.9967 288.655 45.1836C288.97 45.3704 289.209 45.6188 289.373 45.9287C289.537 46.2386 289.619 46.5827 289.619 46.9609V47.4873C289.619 47.8564 289.537 48.196 289.373 48.5059C289.214 48.8158 288.977 49.0641 288.662 49.251C288.352 49.4378 287.972 49.5312 287.521 49.5312C287.074 49.5312 286.691 49.4378 286.372 49.251C286.058 49.0641 285.818 48.8158 285.654 48.5059C285.49 48.196 285.408 47.8564 285.408 47.4873ZM286.55 46.9609V47.4873C286.55 47.6696 286.584 47.8428 286.652 48.0068C286.725 48.1709 286.835 48.3031 286.98 48.4033C287.126 48.5036 287.306 48.5537 287.521 48.5537C287.739 48.5537 287.917 48.5036 288.054 48.4033C288.195 48.3031 288.3 48.1709 288.368 48.0068C288.437 47.8428 288.471 47.6696 288.471 47.4873V46.9609C288.471 46.7741 288.434 46.5986 288.361 46.4346C288.293 46.266 288.188 46.1315 288.047 46.0312C287.906 45.931 287.726 45.8809 287.507 45.8809C287.297 45.8809 287.119 45.931 286.974 46.0312C286.832 46.1315 286.725 46.266 286.652 46.4346C286.584 46.5986 286.55 46.7741 286.55 46.9609ZM290.207 53.0928V52.5596C290.207 52.1859 290.289 51.8441 290.453 51.5342C290.622 51.2243 290.863 50.9759 291.178 50.7891C291.492 50.6022 291.87 50.5088 292.312 50.5088C292.768 50.5088 293.151 50.6022 293.461 50.7891C293.775 50.9759 294.012 51.2243 294.172 51.5342C294.336 51.8441 294.418 52.1859 294.418 52.5596V53.0928C294.418 53.4665 294.336 53.8083 294.172 54.1182C294.012 54.4281 293.778 54.6764 293.468 54.8633C293.158 55.0501 292.777 55.1436 292.326 55.1436C291.88 55.1436 291.497 55.0501 291.178 54.8633C290.863 54.6764 290.622 54.4281 290.453 54.1182C290.289 53.8083 290.207 53.4665 290.207 53.0928ZM291.355 52.5596V53.0928C291.355 53.2751 291.392 53.4482 291.465 53.6123C291.542 53.7764 291.654 53.9108 291.8 54.0156C291.946 54.1159 292.121 54.166 292.326 54.166C292.559 54.166 292.745 54.1159 292.887 54.0156C293.028 53.9108 293.128 53.7786 293.188 53.6191C293.251 53.4551 293.283 53.2796 293.283 53.0928V52.5596C293.283 52.3727 293.247 52.1973 293.174 52.0332C293.105 51.8691 292.998 51.737 292.853 51.6367C292.711 51.5365 292.531 51.4863 292.312 51.4863C292.098 51.4863 291.921 51.5365 291.779 51.6367C291.638 51.737 291.531 51.8691 291.458 52.0332C291.39 52.1973 291.355 52.3727 291.355 52.5596ZM292.723 46.4688L287.862 54.248L287.021 53.7627L291.882 45.9834L292.723 46.4688Z" fill="white"/>
</svg>
