<svg width="113" height="44" viewBox="0 0 113 44" fill="none" xmlns="http://www.w3.org/2000/svg">
<path d="M0.0574717 18.0514C0.0574716 18.8869 0.738641 19.576 1.56421 19.448C2.33694 19.3282 3.09441 19.1163 3.82018 18.8157C5.01311 18.3215 6.09703 17.5973 7.01005 16.6843C7.92308 15.7712 8.64733 14.6873 9.14146 13.4944C9.63558 12.3015 9.88991 11.0229 9.88991 9.73168C9.88991 8.44047 9.63558 7.1619 9.14146 5.96897C8.64733 4.77605 7.92308 3.69213 7.01005 2.7791C6.09703 1.86608 5.01311 1.14183 3.82018 0.647699C3.09441 0.347075 2.33694 0.135212 1.56421 0.0153819C0.738642 -0.112641 0.0574716 0.576501 0.0574717 1.41193V18.0514Z" fill="#747572"/>
<path d="M0 22.2647C-2.27763e-07 20.8223 1.82673 20.1983 2.7092 21.3391L18.3514 41.5618C19.1204 42.556 18.4118 44 17.1549 44L1.51269 44C0.677255 44 3.32532e-06 43.3227 3.1934e-06 42.4873L0 22.2647Z" fill="#747572"/>
<path d="M58.8 22.5895C59.6354 22.5895 60.3184 21.9113 60.2574 21.0781C59.9967 17.5215 58.8193 14.0834 56.8286 11.104C54.557 7.70429 51.3282 5.05454 47.5507 3.48982C43.7731 1.92511 39.6164 1.51571 35.6062 2.31339C31.5959 3.11108 27.9123 5.08002 25.0211 7.97124C22.1299 10.8625 20.1609 14.5461 19.3632 18.5563C18.5656 22.5666 18.975 26.7233 20.5397 30.5008C22.1044 34.2784 24.7541 37.5071 28.1539 39.7787C31.1332 41.7695 34.5714 42.9468 38.128 43.2075C38.9612 43.2686 39.6393 42.5856 39.6393 41.7501V24.1022C39.6393 23.2667 40.3166 22.5895 41.152 22.5895H58.8Z" fill="#747572"/>
<path d="M75.2681 3.09638C75.7335 1.72955 77.6666 1.72955 78.132 3.09638L91.0842 41.1365C91.4183 42.1178 90.6889 43.1368 89.6523 43.1368H63.7478C62.7112 43.1368 61.9818 42.1178 62.3159 41.1365L75.2681 3.09638Z" fill="#747572"/>
<path d="M96.4457 42.0826C96.911 43.4494 98.8442 43.4494 99.3096 42.0826L112.262 4.04246C112.596 3.0612 111.866 2.04222 110.83 2.04222H84.9254C83.8888 2.04222 83.1593 3.0612 83.4934 4.04246L96.4457 42.0826Z" fill="#747572"/>
</svg>
