<svg width="1230" height="344" viewBox="0 0 1230 344" fill="none" xmlns="http://www.w3.org/2000/svg">
<g clip-path="url(#clip0_210_154)">
<rect width="1230" height="344" rx="20" fill="#3772FF"/>
<path d="M1324.1 185C1324.1 304.293 1186.8 488 1042.1 488C897.404 488 729.103 535.294 729.103 416C729.103 296.706 850.904 249.5 995.603 249.5C1140.3 249.5 1324.1 65.7062 1324.1 185Z" fill="#5B8AFB" fill-opacity="0.75"/>
<path d="M1269 215.741C1269 334.824 1011.89 492.015 842.634 492.015C673.375 492.015 187 533.472 187 414.389C187 295.306 526.574 242.693 695.832 242.693C865.091 242.693 1269 96.6575 1269 215.741Z" fill="#5B8AFB" fill-opacity="0.75"/>
<path d="M1031.98 92.0837C1038.68 114.217 1038.67 137.839 1031.96 159.967C1025.24 182.095 1012.11 201.737 994.242 216.411C976.369 231.085 954.548 240.133 931.536 242.413C908.523 244.693 885.351 240.102 864.946 229.221C844.541 218.34 827.818 201.655 816.89 181.276C805.961 160.896 801.317 137.734 803.544 114.717C805.771 91.6992 814.768 69.8576 829.401 51.9507C844.033 34.0437 863.644 20.8745 885.757 14.1063C900.478 9.60991 915.941 8.06067 931.261 9.54729C946.582 11.0339 961.459 15.5272 975.041 22.77C988.622 30.0129 1000.64 39.863 1010.41 51.7567C1020.18 63.6504 1027.51 77.3542 1031.98 92.0837Z" fill="#EBEBEB" fill-opacity="0.2"/>
<path d="M951.868 229.866C931.342 236.133 909.418 236.172 888.87 229.976C868.322 223.781 850.073 211.63 836.432 195.061C822.79 178.492 814.37 158.249 812.236 136.894C810.101 115.539 814.349 94.0299 824.441 75.089C834.533 56.148 850.016 40.6258 868.931 30.4861C887.847 20.3464 909.345 16.0447 930.706 18.1253C952.066 20.2059 972.33 28.5753 988.933 42.1747C1005.54 55.774 1017.73 73.9923 1023.98 94.5247C1032.35 122.035 1029.46 151.743 1015.94 177.12C1002.41 202.498 979.37 221.47 951.868 229.866ZM1013.81 99.4407C1008.57 80.9231 997.961 64.3712 983.329 51.8698C968.697 39.3684 950.692 31.4768 931.583 29.1889C912.474 26.901 893.115 30.3192 875.945 39.0129C858.776 47.7067 844.562 61.2871 835.096 78.0436C825.63 94.8001 821.334 113.983 822.75 133.176C824.166 152.37 831.23 170.715 843.053 185.901C854.875 201.087 870.927 212.435 889.187 218.515C907.447 224.595 927.098 225.135 945.664 220.068C958.087 216.668 969.714 210.843 979.874 202.927C990.035 195.011 998.527 185.163 1004.86 173.948C1011.2 162.734 1015.25 150.377 1016.79 137.589C1018.32 124.801 1017.31 111.836 1013.81 99.4407Z" fill="#DBDBDB" fill-opacity="0.2"/>
<path d="M899.454 60.6893L910.167 57.299L911.116 60.3842C912.371 64.5543 913.727 68.6905 914.914 72.8945C915.354 74.454 916.032 74.6574 917.592 74.4201C922.175 73.5272 926.825 73.017 931.492 72.8945C936.848 72.689 942.092 74.4573 946.229 77.8635C950.367 81.2697 953.109 86.0767 953.936 91.3717C954.46 93.49 954.834 95.6426 955.055 97.8133C955.309 100.455 954.944 103.12 953.991 105.597C953.038 108.074 951.522 110.296 949.563 112.087C948.647 113.002 947.664 113.883 946.545 114.968C948.546 115.172 950.309 115.273 952.038 115.545C956.595 116.091 960.89 117.967 964.387 120.94C967.884 123.912 970.428 127.849 971.702 132.259C973.326 136.588 974.053 141.202 973.837 145.82C973.677 148.853 972.899 151.821 971.553 154.543C970.206 157.266 968.319 159.685 966.006 161.653C960.6 166.243 954.329 169.702 947.562 171.824C946.003 172.366 945.528 172.909 946.071 174.638C947.427 178.706 948.512 182.843 949.8 186.945C950.105 187.962 950.003 188.606 948.952 188.945L939.765 191.759C939.358 190.369 938.985 189.149 938.612 187.928C937.527 184.538 936.408 181.147 935.425 177.486C935.086 176.299 934.577 175.858 933.323 176.299C931.357 177.011 929.322 177.554 927.119 178.232C928.746 183.622 930.509 188.776 931.967 194.031L921.254 197.421C919.626 192.166 918.067 187.047 916.405 181.656L889.859 189.827L884.435 171.553L892.266 169.146C885.825 148.499 879.553 127.953 873.213 107.611L865.449 109.985L859.957 92.0837L886.367 83.8791L881.044 66.385L891.69 62.9947L896.911 80.4888L904.777 78.0817C903.014 72.2164 901.386 66.5546 899.454 60.6893ZM920.304 133.649C918.541 134.191 916.914 134.802 915.015 135.242C913.863 135.581 913.625 136.124 913.964 137.277C916.225 144.374 918.417 151.493 920.542 158.636C920.948 160.026 921.593 160.195 922.847 159.754C925.898 158.771 929.017 157.89 932.069 156.873C934.937 156.103 937.408 154.278 938.986 151.763C940.564 149.248 941.133 146.229 940.578 143.311C940.494 141.365 939.947 139.467 938.984 137.774C938.02 136.081 936.668 134.642 935.038 133.575C933.408 132.509 931.548 131.845 929.61 131.64C927.673 131.434 925.715 131.693 923.898 132.395L920.304 133.649ZM905.455 109.578C906.404 112.595 907.353 115.613 908.235 118.664C908.54 119.681 909.014 120.088 910.099 119.715C913.286 118.63 916.507 117.748 919.66 116.528C921.277 115.97 922.649 114.866 923.54 113.405C924.431 111.945 924.786 110.22 924.542 108.527C924.308 106.2 923.748 103.918 922.881 101.746C922.465 100.592 921.824 99.5314 920.996 98.6261C920.168 97.7208 919.169 96.9886 918.056 96.4716C916.943 95.9546 915.739 95.6632 914.513 95.6142C913.287 95.5652 912.064 95.7595 910.913 96.186C908.506 96.9318 906.133 97.7116 903.726 98.3897C902.539 98.7287 902.302 99.2712 902.641 100.39C903.624 103.509 904.539 106.526 905.455 109.578Z" fill="#DBDBDB" fill-opacity="0.2"/>
<path d="M965.802 39.805C977.309 45.6302 987.534 53.6994 995.875 63.5372C1004.23 73.4141 1010.56 84.8431 1014.49 97.1692C1018.42 109.545 1019.81 122.586 1018.59 135.514C1017.42 148.466 1013.67 161.055 1007.57 172.541C1001.47 184.027 993.134 194.18 983.059 202.405C973.089 210.648 961.558 216.794 949.156 220.475C936.805 224.177 923.835 225.352 911.02 223.931C898.205 222.509 885.808 218.521 874.569 212.203C891.617 220.854 910.824 224.33 929.823 222.204C948.823 220.077 966.785 212.441 981.5 200.235C1000.98 183.855 1013.36 160.558 1016.01 135.243C1017.85 116.173 1014.08 96.9807 1005.16 80.0256C996.24 63.0705 982.56 49.0909 965.802 39.805Z" fill="white" fill-opacity="0.2"/>
<path d="M873.518 212.135C862.03 206.31 851.827 198.24 843.513 188.403C835.181 178.5 828.889 167.047 825.002 154.703C821.123 142.34 819.774 129.322 821.035 116.426C822.246 103.479 826.026 90.9031 832.156 79.4348C838.286 67.9665 846.642 57.8363 856.735 49.6369C866.792 41.4139 878.404 35.3026 890.876 31.6682C903.29 28.0428 916.295 26.8909 929.153 28.2778C941.931 29.7776 954.285 33.7994 965.497 40.11C948.472 31.4229 929.281 27.8957 910.279 29.9615C891.278 32.0272 873.293 39.596 858.532 51.7388C838.966 68.064 826.517 91.3588 823.815 116.697C821.898 135.718 825.58 154.885 834.411 171.84C843.241 188.796 856.833 202.802 873.518 212.135Z" fill="#DBDBDB" fill-opacity="0.2"/>
<path d="M865.449 109.883C864.906 108.425 864.364 106.967 863.855 105.476C863.347 103.984 862.804 102.56 862.296 101.068L859.312 92.1855L859.109 91.5752L859.753 91.3718C868.5 88.5239 877.304 85.823 886.164 83.2689L885.723 84.0826L883.282 75.2678L882.095 70.8265L881.044 66.3851C881.587 67.8091 882.095 69.2669 882.604 70.6909L884.129 75.0305L887.045 83.6758L887.249 84.286L886.604 84.4895C877.857 87.3712 869.043 90.0496 860.194 92.6262L860.635 91.8125L863.109 100.831C863.516 102.323 863.889 103.848 864.296 105.34C864.703 106.832 865.076 108.391 865.449 109.883Z" fill="white" fill-opacity="0.2"/>
<path d="M889.859 189.555C888.808 186.572 887.825 183.622 886.808 180.639C885.791 177.655 884.842 174.706 883.858 171.722V171.248H884.367L892.165 168.705L891.724 169.519L886.876 154.127C885.282 149.007 883.791 143.956 882.231 138.701C880.672 133.446 879.18 128.53 877.688 123.241C876.196 117.952 874.772 112.866 873.382 107.679C875.19 112.765 876.92 117.85 878.57 122.936C880.265 128.055 881.96 133.107 883.519 138.294C885.079 143.481 886.91 148.465 888.334 153.686L892.978 169.146V169.756L892.368 169.959L884.435 172.027L884.774 171.383C885.621 174.401 886.503 177.384 887.317 180.435C888.13 183.487 889.08 186.504 889.859 189.555Z" fill="white" fill-opacity="0.2"/>
<path d="M922.847 159.755C924.474 159.076 926.237 158.5 927.83 157.822L932.882 156.059C934.436 155.435 935.834 154.476 936.976 153.252C938.119 152.027 938.978 150.567 939.493 148.973C940.464 145.695 940.162 142.172 938.646 139.107C937.945 137.529 936.93 136.11 935.662 134.937C934.414 133.674 932.896 132.712 931.221 132.123C933.022 132.503 934.717 133.278 936.182 134.392C937.648 135.506 938.848 136.931 939.697 138.565C940.632 140.199 941.228 142.005 941.45 143.875C941.671 145.745 941.513 147.64 940.985 149.448C940.402 151.263 939.393 152.912 938.042 154.256C936.692 155.601 935.038 156.603 933.221 157.178C929.797 158.127 926.339 159.009 922.847 159.755Z" fill="white" fill-opacity="0.2"/>
<path d="M910.472 119.613C913.184 118.426 915.998 117.409 918.676 116.426C919.894 115.818 920.954 114.934 921.772 113.846C922.59 112.757 923.143 111.493 923.389 110.154C923.885 107.4 923.443 104.559 922.134 102.085C920.885 99.4727 918.876 97.2984 916.371 95.8469C919.241 96.9527 921.65 99.0013 923.202 101.656C924.755 104.312 925.358 107.416 924.914 110.459C924.621 112.032 923.936 113.506 922.923 114.744C921.909 115.983 920.601 116.946 919.117 117.545C916.201 118.393 913.387 119.003 910.472 119.613Z" fill="white" fill-opacity="0.2"/>
<path d="M916.406 181.385C918.979 186.296 920.622 191.641 921.254 197.15C919.924 194.72 918.866 192.15 918.101 189.488C917.257 186.853 916.689 184.137 916.406 181.385Z" fill="white" fill-opacity="0.2"/>
<path d="M934.544 176.028C935.854 178.456 936.91 181.012 937.697 183.656C938.542 186.278 939.099 188.983 939.358 191.725C938.048 189.297 936.992 186.741 936.205 184.097C935.356 181.477 934.799 178.771 934.544 176.028Z" fill="white" fill-opacity="0.2"/>
<path d="M704.282 116.113C710.581 136.922 710.573 159.131 704.257 179.935C697.942 200.739 685.604 219.205 668.8 233.001C651.996 246.797 631.481 255.304 609.845 257.448C588.21 259.592 566.424 255.276 547.24 245.045C528.056 234.815 512.333 219.129 502.059 199.968C491.784 180.808 487.418 159.032 489.511 137.392C491.605 115.751 500.064 95.2166 513.821 78.381C527.578 61.5454 546.016 49.1641 566.806 42.8008C580.646 38.5734 595.184 37.1169 609.588 38.5145C623.991 39.9122 637.978 44.1367 650.748 50.9462C663.517 57.7557 674.818 67.0165 684.004 78.1986C693.19 89.3807 700.081 102.265 704.282 116.113Z" fill="#EBEBEB" fill-opacity="0.08"/>
<path d="M628.962 245.652C609.664 251.544 589.051 251.58 569.733 245.755C550.414 239.931 533.257 228.507 520.432 212.929C507.607 197.351 499.69 178.32 497.683 158.242C495.677 138.165 499.67 117.943 509.158 100.135C518.647 82.3272 533.203 67.7337 550.987 58.2006C568.771 48.6676 588.983 44.6233 609.065 46.5794C629.148 48.5355 648.2 56.4041 663.809 69.1899C679.419 81.9756 690.886 99.1039 696.76 118.408C704.629 144.272 701.909 172.202 689.196 196.062C676.483 219.921 654.819 237.758 628.962 245.652ZM687.197 123.03C682.268 105.62 672.297 90.0584 658.54 78.305C644.784 66.5515 627.856 59.132 609.89 56.981C591.925 54.83 573.724 58.0437 557.582 66.2173C541.439 74.3909 528.076 87.1588 519.176 102.913C510.276 118.667 506.238 136.702 507.569 154.747C508.9 172.792 515.542 190.04 526.657 204.317C537.772 218.595 552.864 229.263 570.031 234.98C587.198 240.696 605.673 241.204 623.129 236.44C634.809 233.244 645.74 227.767 655.292 220.325C664.845 212.883 672.829 203.623 678.785 193.08C684.741 182.537 688.551 170.919 689.995 158.896C691.439 146.873 690.488 134.683 687.197 123.03Z" fill="#DBDBDB" fill-opacity="0.08"/>
<path d="M579.683 86.5968L589.756 83.4094L590.648 86.31C591.828 90.2306 593.103 94.1193 594.218 98.0718C594.633 99.538 595.27 99.7292 596.736 99.5061C601.045 98.6667 605.417 98.1869 609.805 98.0718C614.84 97.8786 619.77 99.5411 623.66 102.744C627.55 105.946 630.129 110.465 630.906 115.444C631.398 117.435 631.75 119.459 631.958 121.5C632.197 123.984 631.854 126.489 630.958 128.818C630.062 131.147 628.636 133.236 626.794 134.919C625.934 135.78 625.009 136.608 623.958 137.628C625.838 137.82 627.496 137.915 629.121 138.17C633.406 138.684 637.444 140.448 640.732 143.243C644.02 146.037 646.412 149.739 647.609 153.885C649.136 157.954 649.819 162.292 649.617 166.634C649.466 169.486 648.735 172.276 647.469 174.836C646.203 177.395 644.428 179.67 642.254 181.52C637.172 185.836 631.275 189.087 624.914 191.082C623.448 191.592 623.001 192.102 623.511 193.728C624.786 197.553 625.806 201.442 627.018 205.299C627.304 206.255 627.209 206.86 626.221 207.179L617.583 209.825C617.2 208.518 616.85 207.37 616.499 206.223C615.479 203.035 614.427 199.848 613.503 196.406C613.184 195.29 612.706 194.876 611.526 195.29C609.678 195.959 607.765 196.469 605.693 197.107C607.223 202.175 608.881 207.02 610.251 211.96L600.179 215.148C598.649 210.207 597.183 205.394 595.621 200.326L570.663 208.008L565.563 190.827L572.926 188.564C566.87 169.153 560.973 149.836 555.012 130.712L547.713 132.943L542.549 116.113L567.38 108.399L562.375 91.9518L572.384 88.7643L577.293 105.212L584.688 102.949C583.03 97.4343 581.5 92.1112 579.683 86.5968ZM599.286 155.191C597.629 155.701 596.099 156.275 594.314 156.69C593.23 157.008 593.007 157.518 593.326 158.602C595.451 165.274 597.512 171.968 599.51 178.683C599.892 179.99 600.498 180.149 601.677 179.735C604.546 178.811 607.478 177.982 610.347 177.026C613.044 176.302 615.367 174.586 616.851 172.222C618.335 169.857 618.869 167.018 618.348 164.276C618.268 162.446 617.754 160.662 616.848 159.07C615.943 157.478 614.671 156.125 613.139 155.122C611.606 154.119 609.857 153.495 608.036 153.302C606.215 153.109 604.374 153.353 602.665 154.012L599.286 155.191ZM585.325 132.56C586.218 135.397 587.11 138.234 587.939 141.103C588.226 142.059 588.672 142.441 589.692 142.091C592.688 141.071 595.716 140.242 598.681 139.095C600.201 138.57 601.491 137.532 602.329 136.159C603.167 134.786 603.5 133.164 603.271 131.572C603.05 129.385 602.525 127.239 601.709 125.197C601.318 124.112 600.715 123.115 599.937 122.264C599.158 121.413 598.219 120.724 597.173 120.238C596.126 119.752 594.994 119.478 593.842 119.432C592.689 119.386 591.539 119.569 590.457 119.97C588.194 120.671 585.963 121.404 583.7 122.042C582.584 122.36 582.361 122.87 582.68 123.922C583.604 126.855 584.465 129.692 585.325 132.56Z" fill="#DBDBDB" fill-opacity="0.08"/>
<path d="M642.062 66.9619C652.881 72.4386 662.494 80.025 670.335 89.2743C678.192 98.5602 684.139 109.305 687.834 120.894C691.531 132.529 692.843 144.791 691.691 156.944C690.587 169.122 687.064 180.957 681.328 191.756C675.592 202.555 667.759 212.101 658.286 219.833C648.913 227.583 638.071 233.362 626.412 236.823C614.8 240.303 602.606 241.408 590.558 240.072C578.51 238.735 566.854 234.985 556.287 229.045C572.316 237.179 590.373 240.447 608.236 238.448C626.098 236.449 642.986 229.269 656.82 217.793C675.138 202.394 686.77 180.49 689.269 156.689C690.998 138.76 687.451 120.717 679.065 104.776C670.678 88.8354 657.817 75.6923 642.062 66.9619Z" fill="white" fill-opacity="0.08"/>
<path d="M555.298 228.982C544.498 223.505 534.906 215.918 527.089 206.669C519.255 197.359 513.34 186.591 509.686 174.986C506.039 163.362 504.77 151.123 505.956 138.999C507.094 126.826 510.649 115.003 516.412 104.221C522.175 93.4387 530.031 83.9145 539.52 76.2056C548.976 68.4747 559.892 62.729 571.618 59.312C583.289 55.9035 595.516 54.8205 607.605 56.1245C619.619 57.5346 631.233 61.3158 641.775 67.2488C625.768 59.0814 607.725 55.7652 589.861 57.7074C571.996 59.6496 555.087 66.7655 541.21 78.1819C522.814 93.5303 511.109 115.431 508.57 139.254C506.767 157.137 510.229 175.157 518.531 191.098C526.833 207.039 539.613 220.207 555.298 228.982Z" fill="#DBDBDB" fill-opacity="0.08"/>
<path d="M547.713 132.847C547.203 131.477 546.693 130.106 546.215 128.703C545.737 127.301 545.227 125.962 544.749 124.56L541.944 116.209L541.752 115.635L542.358 115.444C550.582 112.766 558.859 110.227 567.189 107.825L566.774 108.59L564.479 100.303L563.364 96.1274L562.375 91.9518C562.885 93.2905 563.364 94.6612 563.842 95.9999L565.276 100.08L568.017 108.208L568.209 108.782L567.603 108.973C559.379 111.682 551.092 114.2 542.772 116.623L543.187 115.858L545.514 124.337C545.896 125.739 546.247 127.173 546.629 128.576C547.012 129.978 547.362 131.445 547.713 132.847Z" fill="white" fill-opacity="0.08"/>
<path d="M570.663 207.753C569.675 204.948 568.751 202.175 567.794 199.37C566.838 196.565 565.946 193.792 565.021 190.987V190.541H565.499L572.831 188.15L572.416 188.915L567.858 174.444C566.36 169.631 564.957 164.881 563.491 159.941C562.025 155 560.622 150.378 559.22 145.406C557.817 140.433 556.479 135.652 555.172 130.775C556.872 135.556 558.497 140.338 560.049 145.119C561.642 149.932 563.236 154.681 564.702 159.558C566.169 164.435 567.89 169.121 569.229 174.029L573.596 188.564V189.138L573.022 189.329L565.563 191.274L565.882 190.668C566.679 193.505 567.507 196.31 568.272 199.179C569.037 202.047 569.93 204.884 570.663 207.753Z" fill="white" fill-opacity="0.08"/>
<path d="M601.676 179.735C603.206 179.097 604.863 178.556 606.361 177.918L611.111 176.261C612.572 175.674 613.886 174.773 614.96 173.621C616.034 172.47 616.842 171.097 617.326 169.599C618.239 166.517 617.955 163.204 616.529 160.323C615.871 158.839 614.917 157.505 613.724 156.403C612.551 155.215 611.123 154.311 609.549 153.757C611.242 154.114 612.836 154.843 614.214 155.89C615.592 156.937 616.72 158.277 617.518 159.813C618.397 161.35 618.958 163.048 619.166 164.806C619.374 166.564 619.225 168.346 618.729 170.045C618.181 171.751 617.232 173.301 615.962 174.566C614.692 175.83 613.138 176.772 611.429 177.312C608.21 178.205 604.959 179.034 601.676 179.735Z" fill="white" fill-opacity="0.08"/>
<path d="M590.042 141.995C592.592 140.88 595.238 139.923 597.756 138.999C598.901 138.427 599.897 137.596 600.666 136.573C601.435 135.55 601.956 134.361 602.186 133.102C602.653 130.513 602.238 127.842 601.007 125.516C599.833 123.06 597.944 121.016 595.588 119.651C598.287 120.691 600.551 122.617 602.011 125.113C603.47 127.609 604.038 130.528 603.621 133.389C603.345 134.868 602.701 136.253 601.748 137.418C600.795 138.582 599.565 139.488 598.17 140.051C595.429 140.848 592.783 141.421 590.042 141.995Z" fill="white" fill-opacity="0.08"/>
<path d="M595.621 200.071C598.04 204.689 599.585 209.714 600.179 214.893C598.929 212.608 597.935 210.192 597.215 207.689C596.422 205.212 595.887 202.659 595.621 200.071Z" fill="white" fill-opacity="0.08"/>
<path d="M612.674 195.035C613.905 197.318 614.899 199.721 615.638 202.207C616.433 204.671 616.957 207.215 617.2 209.793C615.969 207.51 614.975 205.107 614.236 202.621C613.438 200.158 612.914 197.613 612.674 195.035Z" fill="white" fill-opacity="0.08"/>
<path d="M796.905 30.7983C799.711 40.0684 799.708 49.9622 796.894 59.2302C794.081 68.4982 788.584 76.7246 781.098 82.8706C773.613 89.0165 764.473 92.8063 754.835 93.7612C745.197 94.7162 735.491 92.7935 726.945 88.236C718.399 83.6785 711.395 76.6906 706.817 68.1548C702.24 59.6191 700.295 49.9183 701.228 40.2778C702.16 30.6372 705.929 21.4892 712.058 13.9892C718.186 6.48915 726.4 0.973451 735.661 -1.86129C741.827 -3.74455 748.304 -4.39342 754.72 -3.77077C761.137 -3.14813 767.368 -1.26618 773.056 1.76736C778.745 4.80089 783.779 8.92646 787.872 13.9079C791.964 18.8894 795.034 24.629 796.905 30.7983Z" fill="#EBEBEB" fill-opacity="0.05"/>
<path d="M763.351 88.5063C754.754 91.1311 745.572 91.1472 736.965 88.5523C728.359 85.9574 720.716 80.8682 715.002 73.9286C709.289 66.989 705.762 58.5107 704.868 49.5664C703.974 40.622 705.753 31.6134 709.98 23.6803C714.207 15.7472 720.692 9.24599 728.614 4.99914C736.537 0.752285 745.541 -1.0494 754.488 -0.177969C763.434 0.693457 771.921 4.19883 778.875 9.8947C785.829 15.5906 790.938 23.221 793.554 31.8207C797.06 43.3428 795.848 55.7854 790.185 66.4145C784.521 77.0435 774.87 84.9894 763.351 88.5063ZM789.294 33.8796C787.098 26.1239 782.656 19.1914 776.528 13.9554C770.399 8.71936 762.859 5.41406 754.855 4.45581C746.852 3.49756 738.744 4.92922 731.552 8.57045C724.361 12.2117 718.408 17.8996 714.443 24.9178C710.478 31.936 708.679 39.9705 709.272 48.0093C709.865 56.0481 712.824 63.7316 717.776 70.0921C722.727 76.4525 729.45 81.2053 737.098 83.7519C744.746 86.2985 752.976 86.5248 760.753 84.4025C765.956 82.9786 770.826 80.5386 775.081 77.2232C779.336 73.9079 782.894 69.7828 785.547 65.086C788.2 60.3892 789.897 55.2135 790.541 49.8575C791.184 44.5015 790.76 39.0711 789.294 33.8796Z" fill="#DBDBDB" fill-opacity="0.05"/>
<path d="M741.398 17.6492L745.885 16.2292L746.283 17.5214C746.808 19.268 747.376 21.0004 747.873 22.7612C748.058 23.4143 748.342 23.4995 748.995 23.4001C750.915 23.0262 752.862 22.8125 754.817 22.7612C757.06 22.6751 759.256 23.4157 760.989 24.8424C762.722 26.269 763.871 28.2823 764.217 30.5C764.437 31.3873 764.593 32.2888 764.686 33.198C764.792 34.3046 764.64 35.4207 764.24 36.4582C763.841 37.4957 763.206 38.4262 762.386 39.1761C762.002 39.5595 761.59 39.9287 761.122 40.3831C761.96 40.4683 762.698 40.5109 763.422 40.6245C765.331 40.8532 767.13 41.6391 768.595 42.8841C770.059 44.1291 771.125 45.7781 771.658 47.625C772.339 49.438 772.643 51.3705 772.553 53.3049C772.485 54.5752 772.16 55.8183 771.596 56.9585C771.032 58.0987 770.241 59.1119 769.272 59.9362C767.009 61.8588 764.382 63.3074 761.548 64.1962C760.895 64.4234 760.696 64.6506 760.923 65.3748C761.491 67.0787 761.945 68.8111 762.485 70.5293C762.613 70.9553 762.57 71.2251 762.13 71.3671L758.282 72.5457C758.111 71.9635 757.955 71.4523 757.799 70.9411C757.345 69.5211 756.876 68.1011 756.464 66.5675C756.322 66.0705 756.109 65.886 755.584 66.0705C754.76 66.3687 753.908 66.5959 752.985 66.8799C753.667 69.1377 754.405 71.2961 755.016 73.497L750.529 74.917C749.847 72.7161 749.194 70.5719 748.498 68.3141L737.38 71.7363L735.108 64.0826L738.388 63.0744C735.69 54.4267 733.063 45.8216 730.408 37.3017L727.156 38.2957L724.855 30.7982L735.917 27.3619L733.688 20.0348L738.146 18.6148L740.333 25.9419L743.628 24.9337C742.889 22.4772 742.208 20.1058 741.398 17.6492ZM750.131 48.2072C749.393 48.4344 748.711 48.69 747.916 48.8746C747.433 49.0166 747.334 49.2438 747.476 49.7266C748.422 52.6991 749.341 55.681 750.231 58.6725C750.401 59.2546 750.671 59.3256 751.196 59.141C752.474 58.7292 753.78 58.3601 755.058 57.9341C756.26 57.6119 757.295 56.8474 757.956 55.7939C758.617 54.7404 758.855 53.4759 758.623 52.2541C758.587 51.439 758.358 50.6441 757.955 49.935C757.551 49.2259 756.985 48.6231 756.302 48.1763C755.619 47.7295 754.84 47.4517 754.029 47.3657C753.218 47.2797 752.397 47.388 751.636 47.6818L750.131 48.2072ZM743.912 38.1253C744.309 39.3891 744.707 40.6529 745.076 41.9309C745.204 42.3569 745.403 42.5273 745.857 42.3711C747.192 41.9167 748.541 41.5475 749.861 41.0363C750.539 40.8026 751.113 40.3401 751.486 39.7285C751.86 39.1169 752.008 38.3943 751.906 37.6851C751.808 36.7107 751.574 35.7547 751.21 34.8452C751.036 34.3617 750.768 33.9176 750.421 33.5384C750.074 33.1593 749.655 32.8526 749.189 32.636C748.723 32.4195 748.219 32.2975 747.706 32.2769C747.192 32.2564 746.68 32.3378 746.198 32.5164C745.19 32.8288 744.196 33.1554 743.187 33.4394C742.69 33.5814 742.591 33.8086 742.733 34.2772C743.145 35.5836 743.528 36.8474 743.912 38.1253Z" fill="#DBDBDB" fill-opacity="0.05"/>
<path d="M769.187 8.90216C774.007 11.342 778.289 14.7216 781.782 18.842C785.283 22.9788 787.932 27.7656 789.578 32.9282C791.225 38.1116 791.809 43.5738 791.296 48.9882C790.805 54.4133 789.235 59.6856 786.68 64.4964C784.124 69.3071 780.635 73.5595 776.415 77.0044C772.239 80.4568 767.409 83.031 762.215 84.5729C757.042 86.1233 751.61 86.6155 746.243 86.0202C740.875 85.4249 735.683 83.7543 730.976 81.1082C738.116 84.7315 746.16 86.1875 754.118 85.2969C762.076 84.4063 769.599 81.2079 775.762 76.0956C783.922 69.2352 789.104 59.4774 790.217 48.8746C790.988 40.8875 789.408 32.8493 785.671 25.7479C781.935 18.6465 776.206 12.7914 769.187 8.90216Z" fill="white" fill-opacity="0.05"/>
<path d="M730.535 81.0797C725.724 78.64 721.45 75.2601 717.968 71.1399C714.478 66.9924 711.843 62.1954 710.215 57.0252C708.59 51.8472 708.025 46.3949 708.554 40.9937C709.061 35.5709 710.644 30.3037 713.212 25.5005C715.779 20.6972 719.279 16.4543 723.506 13.0201C727.718 9.57602 732.582 7.01641 737.805 5.49417C743.005 3.97576 748.452 3.4933 753.837 4.07419C759.189 4.70236 764.363 6.38683 769.059 9.02992C761.928 5.39144 753.89 3.91414 745.932 4.77935C737.974 5.64456 730.441 8.81464 724.259 13.9005C716.064 20.738 710.849 30.4946 709.718 41.1073C708.915 49.0738 710.457 57.1014 714.156 64.203C717.854 71.3046 723.547 77.1706 730.535 81.0797Z" fill="#DBDBDB" fill-opacity="0.05"/>
<path d="M727.156 38.2531C726.929 37.6425 726.701 37.032 726.488 36.4072C726.275 35.7824 726.048 35.186 725.835 34.5612L724.586 30.8408L724.5 30.5852L724.77 30.5C728.434 29.3073 732.121 28.176 735.832 27.1063L735.647 27.4471L734.625 23.7551L734.128 21.895L733.688 20.0348C733.915 20.6312 734.128 21.2418 734.341 21.8382L734.98 23.6557L736.201 27.2767L736.286 27.5323L736.017 27.6175C732.353 28.8245 728.661 29.9463 724.955 31.0254L725.139 30.6846L726.176 34.4618C726.346 35.0866 726.503 35.7256 726.673 36.3504C726.843 36.9752 727 37.6283 727.156 38.2531Z" fill="white" fill-opacity="0.05"/>
<path d="M737.38 71.6227C736.939 70.3731 736.528 69.1377 736.102 67.8881C735.676 66.6385 735.278 65.4032 734.866 64.1536V63.9548H735.079L738.345 62.8898L738.161 63.2306L736.13 56.7839C735.463 54.6397 734.838 52.5239 734.185 50.323C733.531 48.122 732.907 46.063 732.282 43.8479C731.657 41.6327 731.061 39.5027 730.479 37.3301C731.236 39.4601 731.96 41.5901 732.651 43.72C733.361 45.8642 734.071 47.98 734.724 50.1526C735.377 52.3251 736.144 54.4125 736.741 56.5993L738.686 63.0744V63.33L738.43 63.4152L735.108 64.2814L735.25 64.0116C735.605 65.2754 735.974 66.5249 736.315 67.8029C736.655 69.0809 737.053 70.3447 737.38 71.6227Z" fill="white" fill-opacity="0.05"/>
<path d="M751.196 59.1411C751.877 58.8571 752.616 58.6157 753.283 58.3317L755.399 57.5933C756.05 57.3318 756.635 56.9304 757.114 56.4175C757.592 55.9047 757.952 55.2929 758.168 54.6255C758.575 53.2526 758.448 51.7768 757.813 50.4934C757.52 49.8322 757.094 49.2378 756.563 48.7468C756.041 48.2179 755.405 47.8148 754.703 47.5682C755.458 47.7273 756.167 48.0518 756.781 48.5184C757.395 48.9849 757.898 49.5819 758.253 50.2662C758.645 50.9506 758.895 51.7071 758.987 52.4903C759.08 53.2735 759.014 54.0673 758.793 54.8243C758.549 55.5844 758.126 56.275 757.56 56.8383C756.995 57.4016 756.302 57.8212 755.541 58.0619C754.107 58.4595 752.658 58.8287 751.196 59.1411Z" fill="white" fill-opacity="0.05"/>
<path d="M746.013 42.3285C747.149 41.8315 748.327 41.4055 749.449 40.9937C749.959 40.7389 750.403 40.3689 750.746 39.9129C751.088 39.457 751.32 38.9277 751.423 38.3668C751.631 37.2132 751.446 36.0233 750.897 34.9872C750.374 33.893 749.533 32.9824 748.483 32.3745C749.686 32.8376 750.694 33.6956 751.345 34.8077C751.995 35.9198 752.248 37.2198 752.062 38.4946C751.939 39.1534 751.652 39.7706 751.228 40.2892C750.803 40.8079 750.255 41.2114 749.634 41.4623C748.412 41.8173 747.234 42.0729 746.013 42.3285Z" fill="white" fill-opacity="0.05"/>
<path d="M748.498 68.2006C749.576 70.2577 750.264 72.4962 750.529 74.8035C749.972 73.7857 749.529 72.7094 749.208 71.5943C748.855 70.4907 748.617 69.3533 748.498 68.2006Z" fill="white" fill-opacity="0.05"/>
<path d="M756.095 65.957C756.644 66.9738 757.086 68.0445 757.416 69.1519C757.77 70.2498 758.003 71.383 758.112 72.5315C757.563 71.5146 757.12 70.444 756.791 69.3365C756.436 68.239 756.202 67.1056 756.095 65.957Z" fill="white" fill-opacity="0.05"/>
</g>
<defs>
<clipPath id="clip0_210_154">
<rect width="1230" height="344" rx="20" fill="white"/>
</clipPath>
</defs>
</svg>
