<svg width="223" height="88" viewBox="0 0 223 88" fill="none" xmlns="http://www.w3.org/2000/svg">
<path d="M0.11398 35.8002C0.11398 37.457 1.4649 38.8238 3.10218 38.5699C4.63469 38.3322 6.13693 37.912 7.57631 37.3158C9.94216 36.3359 12.0918 34.8995 13.9026 33.0888C15.7133 31.278 17.1497 29.1284 18.1296 26.7625C19.1096 24.3967 19.614 21.861 19.614 19.3002C19.614 16.7394 19.1096 14.2037 18.1296 11.8379C17.1497 9.47201 15.7133 7.32235 13.9026 5.51161C12.0918 3.70086 9.94216 2.2645 7.57631 1.28454C6.13693 0.68833 4.63469 0.268158 3.10218 0.0305059C1.4649 -0.223394 0.11398 1.14333 0.11398 2.80019V35.8002Z" fill="#FFFFFC"/>
<path d="M0 44.156C-4.51707e-07 41.2955 3.62283 40.0578 5.37297 42.3205L36.3951 82.4267C37.9203 84.3984 36.5149 87.2622 34.0222 87.2622L3.00001 87.2622C1.34315 87.2622 6.59488e-06 85.919 6.33324e-06 84.2622L0 44.156Z" fill="#FFFFFC"/>
<path d="M116.614 44.8002C118.271 44.8002 119.625 43.4552 119.504 41.8028C118.987 34.7492 116.652 27.9306 112.704 22.0218C108.199 15.2794 101.796 10.0243 94.304 6.92113C86.8122 3.81793 78.5685 3.006 70.6153 4.58799C62.6621 6.16998 55.3566 10.0749 49.6226 15.8088C43.8887 21.5428 39.9838 28.8483 38.4018 36.8015C36.8198 44.7547 37.6317 52.9984 40.7349 60.4902C43.8381 67.982 49.0932 74.3853 55.8356 78.8904C61.7444 82.8386 68.563 85.1735 75.6166 85.6905C77.269 85.8116 78.614 84.457 78.614 82.8002V47.8002C78.614 46.1433 79.9571 44.8002 81.614 44.8002H116.614Z" fill="#FFFFFC"/>
<path d="M149.274 6.14084C150.197 3.43011 154.031 3.4301 154.954 6.14083L180.641 81.5832C181.304 83.5293 179.857 85.5502 177.801 85.5502H126.427C124.371 85.5502 122.924 83.5293 123.587 81.5832L149.274 6.14084Z" fill="#FFFFFC"/>
<path d="M191.274 83.4595C192.197 86.1703 196.031 86.1703 196.954 83.4595L222.641 8.01714C223.304 6.07106 221.857 4.05019 219.801 4.05019H168.427C166.371 4.05019 164.924 6.07106 165.587 8.01714L191.274 83.4595Z" fill="#FFFFFC"/>
</svg>
